<svg xmlns="http://www.w3.org/2000/svg" width="38.949" height="38.598" viewBox="0 0 38.949 38.598">
  <g id="audio_icon" style="isolation: isolate">
    <rect id="audio_icon-2" data-name="audio_icon" width="38.949" height="38.598" fill="none" style="isolation: isolate"/>
    <g id="base" transform="translate(1.919)" style="isolation: isolate">
      <path id="Vector" d="M16.917,2.948H14.924a2.009,2.009,0,0,0-1.715.967H4.959A2.948,2.948,0,0,1,1.993.967.976.976,0,0,0,1.02,0,1.017,1.017,0,0,0,0,.967,4.949,4.949,0,0,0,4.959,5.9h8.25a1.914,1.914,0,0,0,1.715.967h1.993a1.958,1.958,0,1,0,0-3.915Z" transform="translate(0 31.689)" fill="#ef5388" style="isolation: isolate"/>
      <path id="Vector-2" data-name="Vector" d="M31.918,23.306h-.27V15.062A14.929,14.929,0,0,0,16.927,0,14.891,14.891,0,0,0,2.251,15.062v8.245H1.936A1.944,1.944,0,0,0,0,25.287v2.948a1.944,1.944,0,0,0,1.936,1.981h.945v.967a1.944,1.944,0,0,0,1.936,1.981H8.688a1.944,1.944,0,0,0,1.936-1.981V22.339a1.944,1.944,0,0,0-1.936-1.981H6.077v-5.3a10.983,10.983,0,0,1,10.849-11.1,10.983,10.983,0,0,1,10.849,11.1v5.3H25.165a1.944,1.944,0,0,0-1.936,1.981v8.89a1.944,1.944,0,0,0,1.936,1.981h3.872a1.944,1.944,0,0,0,1.936-1.981v-.967h.945a1.944,1.944,0,0,0,1.936-1.981V25.333A1.956,1.956,0,0,0,31.918,23.306Z" transform="translate(0.973)" fill="#ef5388" style="isolation: isolate"/>
    </g>
  </g>
</svg>
