<svg xmlns="http://www.w3.org/2000/svg" width="90" height="90" viewBox="0 0 90 90">
  <g id="content" transform="translate(-0.002 7.656)">
    <rect id="Rectangle_53" data-name="Rectangle 53" width="90" height="90" transform="translate(0.002 -7.656)" fill="none"/>
    <path id="Path_85" data-name="Path 85" d="M90,39.8c-.214.73-.409,1.459-.641,2.18a14.172,14.172,0,0,1-3,5.215A3.953,3.953,0,0,1,83.1,48.8a.889.889,0,0,0-.881.472,7.246,7.246,0,0,0-.516,1.014c-.614,1.611-1.21,3.239-1.815,4.859a.746.746,0,0,0-.018.383c2.082-2.518,4.859-3.266,7.991-3.382a4.94,4.94,0,0,1-1.148,2.91,21.587,21.587,0,0,1-2.723,2.972,5.022,5.022,0,0,1-5.135,1.21,1.158,1.158,0,0,0-1.353.57c-1,1.335-1.931,2.714-2.963,4.182a9.6,9.6,0,0,1,9.1-.133,9.186,9.186,0,0,1-.908,1.192A11.089,11.089,0,0,1,75.9,68.129a4.215,4.215,0,0,1-3.034-.934,1.073,1.073,0,0,0-1.442-.089c-1.2.881-2.376,1.8-3.711,2.812,3.426-.578,6.14.578,8.65,2.768a6.42,6.42,0,0,1-1.1.845,10.608,10.608,0,0,1-8.107.614,4.148,4.148,0,0,1-2.065-1.566,1.339,1.339,0,0,0-1.8-.605c-.872.267-1.735.552-2.607.792-.73.2-.792.142-1.112-.8.285-.1.578-.2.872-.3,1-.329,1.993-.685,3.008-.97a1.064,1.064,0,0,0,.845-1.077c.036-.587,0-1.175.036-1.762a9.28,9.28,0,0,1,5.028-8.018,2.541,2.541,0,0,1,.481-.142,32.5,32.5,0,0,1-.685,4.6,8.132,8.132,0,0,1-1.735,4.174c.036.044.071.089.116.142.338-.222.676-.436,1.014-.659s.685-.454,1.006-.712c.507-.4.988-.828,1.486-1.246a1.668,1.668,0,0,0,.676-2.3,10.176,10.176,0,0,1-.543-3.72,11.433,11.433,0,0,1,2.634-7.119,6.282,6.282,0,0,1,.561-.507,25.718,25.718,0,0,1,.65,4.734,9.615,9.615,0,0,1-.32,4.681l.169.116c.107-.151.214-.294.311-.445.632-.952,1.255-1.9,1.9-2.856a1.663,1.663,0,0,0,.125-1.673,9.327,9.327,0,0,0-.489-.934c-2.047-3.6-1.86-7.279-.347-11a3.538,3.538,0,0,1,.338-.454,14.309,14.309,0,0,1,1,2.278c.294.73.587,1.468.828,2.225a17.3,17.3,0,0,1,.623,2.376c.125.774.116,1.566.276,2.4.356-1,.721-1.984,1.059-2.981.2-.578.285-1.21.516-1.771a1.771,1.771,0,0,0-.374-1.869,3.3,3.3,0,0,0-.418-.445,11.152,11.152,0,0,1-3.577-9.264,8.533,8.533,0,0,1,.294-1.833,29.6,29.6,0,0,1,2.954,3.684,13.236,13.236,0,0,1,2.136,4.263c.027-.231.062-.463.089-.694s.062-.463.08-.7c.071-1.112.169-2.225.178-3.337a1.923,1.923,0,0,0-1.166-1.824c-3.818-1.878-5.126-5.232-5.455-9.184a5.624,5.624,0,0,1,.071-.774c2.349,1.949,4.921,3.435,6.247,6.274-.125-.9-.222-1.8-.365-2.687-.1-.605-.231-1.21-.356-1.806-.267-1.264-.65-1.655-1.922-1.744a5.7,5.7,0,0,1-3.3-1.495,8.777,8.777,0,0,1-2.153-2.759,24.145,24.145,0,0,1-1.308-3.008,15.5,15.5,0,0,1,3.568,1.29,11.142,11.142,0,0,1,3.364,1.949,3.7,3.7,0,0,0-.125-.543c-.409-1.006-.819-2.011-1.246-3-.383-.881-.676-1.032-1.637-.97a1.228,1.228,0,0,0-.178.027c-3.15.445-5.428-.952-7.217-3.4-.24-.32-.436-.676-.659-1.032a13.176,13.176,0,0,1,7.413,1.068c-.712-1.023-1.379-2.073-2.153-3.043-.427-.543-1.095-.347-1.628-.116a5.76,5.76,0,0,1-3.017.392,6.9,6.9,0,0,1-4.992-3.043c1.014-.828,4.707-1.014,6.834-.383a4.663,4.663,0,0,0-2.963-2.314,6.718,6.718,0,0,1-4.8-3.1,20.617,20.617,0,0,1-1.45-2.99,2.071,2.071,0,0,1-.044-.57A1.72,1.72,0,0,1,62.176.1c1.335.534,2.67,1.041,3.987,1.62a5.352,5.352,0,0,1,2.429,2.225,3.29,3.29,0,0,1,.57,1.539A2.274,2.274,0,0,0,70.1,7.252c.632.57,1.21,1.192,1.8,1.8a8.117,8.117,0,0,0,.9.836,15.049,15.049,0,0,1-1.4-4.672,11.945,11.945,0,0,1,.2-4.877A5.708,5.708,0,0,1,72.222.8a12.225,12.225,0,0,1,3.8,8.267,3.671,3.671,0,0,1-.632,2.251,1.691,1.691,0,0,0-.027,1.9c.756,1.29,1.593,2.527,2.4,3.782.027.036.1.044.249.107A12.368,12.368,0,0,1,79.03,7.68a5.727,5.727,0,0,1,.516.676,15.365,15.365,0,0,1,1.789,6.113,21.83,21.83,0,0,1,.018,3.052,3.253,3.253,0,0,1-.961,2.127,1.769,1.769,0,0,0-.427,1.8,38.45,38.45,0,0,0,1.513,4.04,11.254,11.254,0,0,1,3.008-8.908,4.354,4.354,0,0,1,.356.7,12.616,12.616,0,0,1,.463,1.967,18.606,18.606,0,0,1-.08,6.122A5.682,5.682,0,0,1,83.559,28.5a2.987,2.987,0,0,0-.908,3.026c.2,1.175.231,2.385.4,3.6a15.366,15.366,0,0,1,1.709-4.565,11.759,11.759,0,0,1,3.551-3.693,8.226,8.226,0,0,1,.214,1.273,17.37,17.37,0,0,1-1.771,7.991A4.52,4.52,0,0,1,84.138,38.6a1.293,1.293,0,0,0-.694.694,6.332,6.332,0,0,0-.32,1.531c-.142,1.335-.24,2.679-.356,4.022a4.407,4.407,0,0,0,.027.5,14.005,14.005,0,0,1,2.83-3.951A10.421,10.421,0,0,1,89.1,39.226a5.365,5.365,0,0,1,.854-.16v.7Z" fill="#ef5488"/>
    <path id="Path_86" data-name="Path 86" d="M32.151,55.208c.249-1.468.5-2.945.756-4.414.427-2.483.845-4.966,1.3-7.439a1.232,1.232,0,0,0-.507-1.21q-3.938-3.831-7.866-7.68c-.187-.187-.383-.365-.561-.561a1.054,1.054,0,0,1,.57-1.869c1-.222,2.02-.329,3.034-.481,2.954-.427,5.909-.854,8.872-1.264a1.209,1.209,0,0,0,.961-.783q2.323-4.739,4.663-9.459a11.655,11.655,0,0,1,.685-1.326,1.046,1.046,0,0,1,1.824,0,10.326,10.326,0,0,1,.65,1.246c1.557,3.15,3.123,6.3,4.654,9.468a1.439,1.439,0,0,0,1.273.881c3.479.481,6.95,1,10.429,1.5.374.053.756.08,1.13.169a1.087,1.087,0,0,1,.578,1.967c-1.362,1.37-2.759,2.714-4.147,4.067-1.468,1.433-2.928,2.874-4.4,4.3a1.012,1.012,0,0,0-.3,1.023q.988,5.673,1.958,11.337a2.929,2.929,0,0,1,.08.783,1.031,1.031,0,0,1-1.37.943,4.54,4.54,0,0,1-.8-.347c-3.346-1.753-6.7-3.506-10.038-5.286a1.157,1.157,0,0,0-1.219,0q-5.046,2.683-10.109,5.33a4.626,4.626,0,0,1-.472.231,1.1,1.1,0,0,1-1.62-1.148Z" fill="#ef5488"/>
    <path id="Path_87" data-name="Path 87" d="M15.511,52.414a2.161,2.161,0,0,1,.507.329,11.408,11.408,0,0,1,2.687,6.291,10.485,10.485,0,0,1-.5,4.681c-.4,1.095-.249,1.513.7,2.269.979.792,1.984,1.548,2.99,2.314a1.945,1.945,0,0,0,.543.276c-1.815-2.536-1.806-5.571-2.367-8.445a1.249,1.249,0,0,1,.062-.365,2.721,2.721,0,0,1,1.495.721,9.287,9.287,0,0,1,3.978,7.475c.018.561,0,1.112.036,1.673A1.062,1.062,0,0,0,26.5,70.7c1.014.285,2,.641,3.008.97.276.089.543.178.81.267-.151.9-.311,1.032-1.068.828-.819-.222-1.628-.489-2.438-.747-1.023-.329-1.415-.214-2.02.632a5.169,5.169,0,0,1-3.969,1.967,11.406,11.406,0,0,1-5.677-.854,3.591,3.591,0,0,1-1.513-1.13c2.456-2.118,5.143-3.3,8.409-2.732,0-.089.018-.16,0-.178-1.148-.863-2.3-1.726-3.453-2.572a1.046,1.046,0,0,0-1.37-.062,4.854,4.854,0,0,1-4.654.828A10.511,10.511,0,0,1,6.7,64.436,3.116,3.116,0,0,1,6.443,64c1.228-1.29,5.757-1.913,8.979.027-.178-.285-.258-.445-.365-.587-.783-1.095-1.584-2.18-2.358-3.284-.667-.943-.961-1.068-2.038-.783a5.049,5.049,0,0,1-4.378-1.059,12.835,12.835,0,0,1-3.648-4.227,3.148,3.148,0,0,1-.516-1.922c3.177.107,6.007.89,8.125,3.479-.053-.151-.107-.311-.169-.463C9.468,53.588,8.872,52,8.267,50.42a9.041,9.041,0,0,0-.481-1.032.993.993,0,0,0-1.006-.57,3.629,3.629,0,0,1-2.945-1.326A14.381,14.381,0,0,1,.018,39.8a3.237,3.237,0,0,1,0-.587c1.593-.116,5.081,2.082,7.066,6.1a4.482,4.482,0,0,0,.044-.463c-.107-1.255-.222-2.509-.338-3.755A10.2,10.2,0,0,0,6.621,39.7,1.424,1.424,0,0,0,5.58,38.523a4.173,4.173,0,0,1-2.447-2.385,17.5,17.5,0,0,1-1.753-8,9.13,9.13,0,0,1,.2-1.237,11.276,11.276,0,0,1,3.533,3.64A11.638,11.638,0,0,1,6.736,35.2c.053-.018.116-.027.169-.044.08-.836.151-1.673.231-2.5.044-.5.107-.988.169-1.486a2.315,2.315,0,0,0-.578-2.207A7.573,7.573,0,0,1,4.4,23.19,18.7,18.7,0,0,1,4.939,17.7a12.086,12.086,0,0,1,.454-1.166A13.192,13.192,0,0,1,7.92,20.779,18.223,18.223,0,0,1,8.481,25.5c.089-.187.187-.374.267-.578.347-.961.694-1.931,1.041-2.892a2.223,2.223,0,0,0-.347-2.447,4.986,4.986,0,0,1-1.023-3.809,19.662,19.662,0,0,1,1.095-5.5c.311-.845.739-1.637,1.192-2.634a8.984,8.984,0,0,1,1.62,4.645,14.1,14.1,0,0,1-.454,4.983c.24-.258.365-.356.445-.472.685-1.059,1.344-2.127,2.038-3.186a1.964,1.964,0,0,0,.116-2.358,4.792,4.792,0,0,1-.409-3.666A12.544,12.544,0,0,1,17.922.641a2.216,2.216,0,0,1,.285-.178c.81,1.219.667,6.051-1.023,9.495.231-.231.463-.463.685-.694.783-.783,1.584-1.557,2.349-2.367a1.64,1.64,0,0,0,.481-.881,4.56,4.56,0,0,1,2.145-3.648A16.544,16.544,0,0,1,25.735.925C26.5.587,27.3.32,28.138,0c.044.24.107.365.08.454a8.368,8.368,0,0,1-5.046,6.016,4.62,4.62,0,0,1-1.1.249,3.04,3.04,0,0,0-1.913.97c-.427.436-.872.854-1.273,1.344,2.349-.819,4.592-.276,7.03.2a6.073,6.073,0,0,1-1.753,1.922,6.413,6.413,0,0,1-6.229.988A4.2,4.2,0,0,0,17,11.924a.982.982,0,0,0-.988.436c-.659.961-1.326,1.922-1.94,2.981,2.242-1.415,4.752-1.166,7.261-1.406a1.638,1.638,0,0,1-.062.507A9.406,9.406,0,0,1,18.3,17.628a6.377,6.377,0,0,1-4.182,1.05,5.653,5.653,0,0,0-1.4-.018,1.111,1.111,0,0,0-.765.481,35.462,35.462,0,0,0-1.611,4,10.716,10.716,0,0,1,3.3-1.94,28.974,28.974,0,0,1,3.755-1.486c-.329.81-.561,1.424-.836,2.02a11.058,11.058,0,0,1-2.7,3.862,5.836,5.836,0,0,1-3.382,1.531c-1.228.107-1.637.481-1.869,1.691-.294,1.513-.543,3.043-.721,4.6,1.255-2.856,3.853-4.334,6.167-6.3a4.018,4.018,0,0,1,.125.605,11.341,11.341,0,0,1-3.212,7.858A6.454,6.454,0,0,1,9.1,36.85,2.315,2.315,0,0,0,7.608,39.43c.142,1.379.169,2.776.338,4.191.792-3.221,3.088-5.455,5.01-8.2a6.7,6.7,0,0,1,.285.934,12.569,12.569,0,0,1-1.6,8.125,12.5,12.5,0,0,1-1.246,1.584c-.285.329-.632.614-.925.934a1.967,1.967,0,0,0-.507,2.153c.552,1.531,1,3.106,1.593,4.654-.1-3.364,1.424-6.211,2.6-9.335a4.024,4.024,0,0,1,.454.6,12.551,12.551,0,0,1,.481,9.095,10.914,10.914,0,0,1-1.05,2.118,2.179,2.179,0,0,0,.053,2.687c.694.934,1.3,1.931,2.056,2.865a11.409,11.409,0,0,1-.222-4.681,34.719,34.719,0,0,1,.605-4.752Z" fill="#ef5488"/>
  </g>
</svg>
