<svg xmlns="http://www.w3.org/2000/svg" width="90" height="90" viewBox="0 0 90 90">
  <g id="DAILY_QUIZ" transform="translate(4.865)">
    <rect id="Rectangle_48" data-name="Rectangle 48" width="90" height="90" transform="translate(-4.865)" fill="none"/>
    <path id="Path_104" data-name="Path 104" d="M80.269,45.43c-.075.4-.143.79-.232,1.185a8.069,8.069,0,0,1-3.91,5.456Q63.173,59.642,50.2,67.205c-4.25,2.479-8.5,4.938-12.75,7.411q-6.477,3.77-12.962,7.533l-8.814,5.122c-2.152,1.253-4.407,2.534-6.886,2.711A8.179,8.179,0,0,1,.96,85.412,15.6,15.6,0,0,1,0,78.8Q0,66.027.02,53.263a2.015,2.015,0,0,1,.327-1.355,1.469,1.469,0,0,1,2.023.1,6.622,6.622,0,0,1,1.178,1.914,7.9,7.9,0,0,0,7.193,4.087,7.879,7.879,0,0,0,6.75-4.781c.2-.49.443-1.09.974-1.172a1.25,1.25,0,0,1,.606.1c2.779.926,4.918,3.174,6.545,5.612s2.847,5.122,4.509,7.526S34,69.9,36.814,70.7a9.913,9.913,0,0,0,4.2.218,8.273,8.273,0,0,0,4.625-2.207,14.644,14.644,0,0,0,2-2.207,8.8,8.8,0,0,0,1-1.825,10.015,10.015,0,0,0,.259-6.627c-2.18-7.118-4.339-14.242-6.654-21.312A29.632,29.632,0,0,0,26.2,18.615a1.8,1.8,0,0,1-1.076-1.226,5.084,5.084,0,0,0-4.986-3.712c-2.432-.014-4.863,0-7.295,0a5.313,5.313,0,0,0-3.889,1.607,1.829,1.829,0,0,1-1.1.5c-2.329.048-4.659,0-6.988.034-.62.007-.845-.2-.838-.824.027-2.227,0-4.454.014-6.682A8.311,8.311,0,0,1,7.145.157C7.363.123,7.581.054,7.8,0H9.011a29.08,29.08,0,0,1,3.9,1.4c2.377,1.24,4.659,2.656,6.988,3.991Q42.209,18.21,64.529,31.018q5.6,3.208,11.211,6.389a8.394,8.394,0,0,1,4.3,5.769c.075.347.15.688.218,1.035v1.212Z" fill="#ef5488"/>
    <path id="Path_105" data-name="Path 105" d="M10.332,44.027a6.27,6.27,0,1,1-.007,0Z" fill="#ef5488"/>
    <path id="Path_106" data-name="Path 106" d="M21.789,33.041a2.492,2.492,0,0,1-2.52,2.5A2.555,2.555,0,0,1,16.8,32.966a2.489,2.489,0,0,1,2.506-2.432,2.431,2.431,0,0,1,2.479,2.506Z" fill="#ef5488"/>
    <path id="Path_107" data-name="Path 107" d="M30.568,30.534a2.433,2.433,0,0,1,2.459,2.534,2.5,2.5,0,0,1-2.472,2.472,2.571,2.571,0,0,1-2.527-2.527,2.493,2.493,0,0,1,2.541-2.479Z" fill="#ef5488"/>
    <path id="Path_108" data-name="Path 108" d="M24.929,36.153a2.437,2.437,0,0,1,2.479,2.513,2.489,2.489,0,0,1-2.452,2.486,2.581,2.581,0,0,1-2.547-2.581A2.481,2.481,0,0,1,24.929,36.153Z" fill="#ef5488"/>
    <path id="Path_109" data-name="Path 109" d="M24.9,24.908a2.441,2.441,0,0,1,2.506,2.486,2.479,2.479,0,0,1-2.418,2.513,2.571,2.571,0,0,1-2.575-2.547A2.5,2.5,0,0,1,24.9,24.908Z" fill="#ef5488"/>
    <path id="Path_110" data-name="Path 110" d="M5.388,29.608A1.448,1.448,0,0,1,6.913,31.12,1.465,1.465,0,0,1,5.4,32.653a1.572,1.572,0,0,1-1.526-1.567A1.511,1.511,0,0,1,5.388,29.608Z" fill="#ef5488"/>
  </g>
</svg>
