<svg xmlns="http://www.w3.org/2000/svg" width="32.001" height="32" viewBox="0 0 32.001 32">
  <g id="exam_icon" transform="translate(-4339.999 6917)">
    <rect id="exam_icon-2" data-name="exam_icon" width="32" height="32" transform="translate(4340 -6917)" fill="none" opacity="0"/>
    <g id="base" transform="translate(4340 -6914.134)">
      <path id="Vector" d="M16,21.069a3.226,3.226,0,0,1-1.736-.465L5.5,15.725V19.6c.079,0,.079.077.158.077l8.759,4.954a3.266,3.266,0,0,0,3.152,0l8.759-4.954a3.114,3.114,0,0,0,1.578-2.711V14.873L17.733,20.6A3.226,3.226,0,0,1,16,21.069ZM31.23,8.133,17.578.387a3.409,3.409,0,0,0-3.152,0L.769,8.133a1.511,1.511,0,0,0,0,2.634L15.21,18.9a1.351,1.351,0,0,0,.789.232,1.543,1.543,0,0,0,.789-.232l14.441-8.133a1.511,1.511,0,0,0,0-2.634Z" fill="#ef5388"/>
      <path id="Path_2063" data-name="Path 2063" d="M4.172,25.348V20.313l-1.578-.852v5.887a1.746,1.746,0,0,0-1.261,1.7,1.936,1.936,0,0,0,1.973,1.937,1.936,1.936,0,0,0,1.973-1.937,1.9,1.9,0,0,0-1.107-1.7Z" transform="translate(-1.331 -6.276)" fill="#ef5388"/>
    </g>
  </g>
</svg>
