<svg xmlns="http://www.w3.org/2000/svg" width="228.593" height="89.515" viewBox="0 0 228.593 89.515">
  <g id="elitequiz_login_bottam" data-name="elitequiz_login bottam" transform="translate(-30.947 -286.954)">
    <path id="Path_2347" data-name="Path 2347" d="M165.472,478.229c-.435,0-1-.021-1.294-.052a8.776,8.776,0,0,1-7.741-6.909,9.026,9.026,0,1,1,17.5-4.443c.023.09.045.181.065.271a9.063,9.063,0,0,1-6.75,10.874q-.129.031-.26.057a9.259,9.259,0,0,1-1.518.2Z" transform="translate(-73.873 -101.76)" fill="#ef5488"/>
    <path id="Path_2348" data-name="Path 2348" d="M439.513,287.006a5.4,5.4,0,0,1,4.66,4.632,5.433,5.433,0,0,1-1.084,4.063,5.163,5.163,0,0,1-3.192,1.977,5.36,5.36,0,0,1-6.019-3.213,4.706,4.706,0,0,1-.388-1.705,5.468,5.468,0,0,1,.287-2.2,5.3,5.3,0,0,1,4-3.478,4.831,4.831,0,0,1,.9-.124,3.889,3.889,0,0,1,.836.046Zm-.675,1.724a3.6,3.6,0,0,0-3.649,3.542v.1a3.658,3.658,0,0,0,3.64,3.675h.046a3.7,3.7,0,0,0,3.628-3.689,3.647,3.647,0,0,0-3.663-3.63h0Z" transform="translate(-237.484 0)" fill="#ef5488"/>
    <path id="Path_2349" data-name="Path 2349" d="M86.311,381.859c-.321-.227-4-3.916-4.26-4.278.048-.1.095-.217.155-.325a24.273,24.273,0,0,0,2.616-6.956,24.886,24.886,0,0,0,.457-3.293,22.521,22.521,0,0,0,.064-2.281,24.347,24.347,0,0,0-20.026-23.419,18.524,18.524,0,0,0-3.009-.323c-.362-.005-.725-.058-1.087-.055a24.3,24.3,0,0,0-24.253,22.295,22.949,22.949,0,0,0-.05,3.469,24.217,24.217,0,0,0,4.075,12.155,23.639,23.639,0,0,0,2.643,3.291.821.821,0,0,0,.382.3c.164-.041.269-.19.389-.309q1.193-1.19,2.382-2.385,2.7-2.707,5.393-5.416c.132-.133.256-.274.369-.394a.894.894,0,0,0-.312-.453,12.041,12.041,0,0,1-2.635-4.627,11.91,11.91,0,0,1-.517-4.178,12.087,12.087,0,0,1,6.007-9.841,11.381,11.381,0,0,1,4.22-1.479,12.028,12.028,0,0,1,13.8,12.589,11.875,11.875,0,0,1-1.845,5.822,10.176,10.176,0,0,1-1.441,1.821q-2.069,2.059-4.119,4.138a1.075,1.075,0,0,0-.356.453,1.749,1.749,0,0,0,.131.183c.107.116.221.227.332.339l11.42,11.472a1.629,1.629,0,0,1,.366.419c-.782.846-5.056,2.9-7.649,3.688a29.924,29.924,0,0,1-15.991.467,29.531,29.531,0,0,1-13.71-7.543,30.4,30.4,0,0,1-.94-42.843q.21-.22.424-.436a30.1,30.1,0,0,1,42.711-.021q.277.278.546.562a30.4,30.4,0,0,1,5.627,33.277A20.684,20.684,0,0,1,86.311,381.859Z" transform="translate(0 -28.274)" fill="#ef5488"/>
    <path id="Path_2350" data-name="Path 2350" d="M214.241,404.514a1.075,1.075,0,0,0-.509.237,27.7,27.7,0,0,1-4.524,2.274,19.18,19.18,0,0,1-4.484,1.145,23.082,23.082,0,0,1-4.206.149,14.248,14.248,0,0,1-4.212-.828,9.508,9.508,0,0,1-5.475-5.037,14.154,14.154,0,0,1-1.155-4,22.018,22.018,0,0,1-.2-3.319q.009-10.944.013-21.886c0-.222.007-.444,0-.666a1.809,1.809,0,0,1,1.591-1.678c.141-.014.284-.011.426-.011h10.516a2.683,2.683,0,0,1,.566.028,1.909,1.909,0,0,1,1.293.959,1.229,1.229,0,0,1,.164.589c.006.254.013.507.013.761q.009,9.42.019,18.841a12.209,12.209,0,0,0,.146,2.132,4.711,4.711,0,0,0,.387,1.269,2.1,2.1,0,0,0,2.238,1.249,10.045,10.045,0,0,0,2.486-.567c.192-.069.374-.165.563-.247.654-.278,1.309-.554,1.962-.834.174-.075.344-.16.516-.239a.374.374,0,0,0,.228-.38c0-.19,0-.381,0-.571l.009-20.553c0-.238-.005-.476,0-.714a1.818,1.818,0,0,1,1.658-1.717c.157-.01.316-.007.474-.007h10.327c.111,0,.221.006.332,0a1.773,1.773,0,0,1,1.738,1.719c0,.19,0,.38,0,.571q0,16.058.01,32.115c0,.206.005.412-.007.618a1.773,1.773,0,0,1-1.7,1.663h-.237c-2.7,0-5.4,0-8.1,0a2.284,2.284,0,0,1-1.217-.325,1.549,1.549,0,0,1-.624-.694c-.267-.574-.554-1.139-.836-1.706C214.385,404.749,214.317,404.644,214.241,404.514Z" transform="translate(-93.526 -49.363)" fill="#ef5488"/>
    <path id="Path_2351" data-name="Path 2351" d="M348.7,395.171a1.461,1.461,0,0,0,.253.074c.157.009.316.007.474.007h10.089c.189,0,.379.005.568,0a1.868,1.868,0,0,1,1.754,1.786c0,.127,0,.254,0,.381v8.137c0,.127,0,.254,0,.38a1.823,1.823,0,0,1-1.728,1.749c-.158,0-.316,0-.474,0H330.74c-.126,0-.253,0-.379,0a1.779,1.779,0,0,1-1.747-1.716c0-.127,0-.254,0-.381v-7.183c0-.1,0-.19,0-.286a.578.578,0,0,1,.167-.429c.212-.235.416-.477.624-.716l6.551-7.517q2.371-2.718,4.742-5.44c.11-.126.257-.234.276-.4-.053-.116-.139-.111-.214-.114-.157-.007-.316-.006-.474-.006l-8.621,0a3.252,3.252,0,0,1-.751-.066,1.735,1.735,0,0,1-1.344-1.382,3.377,3.377,0,0,1-.074-.8c.005-1.411.026-2.822.034-4.233.007-1.253,0-2.505.006-3.758,0-.206.009-.412.016-.618a1.7,1.7,0,0,1,1.577-1.557c.173,0,.347-.009.521-.009h27.378c.173,0,.347.009.521.01a1.715,1.715,0,0,1,1.5,1.253,3.5,3.5,0,0,1,.094.752c.008,2.585,0,5.169.011,7.754a.889.889,0,0,1-.243.64q-2.032,2.258-4.053,4.531-3.18,3.557-6.363,7.113c-.486.542-.973,1.083-1.458,1.626C348.935,394.865,348.843,394.991,348.7,395.171Z" transform="translate(-175.615 -49.473)" fill="#ef5488"/>
    <path id="Path_2352" data-name="Path 2352" d="M288.842,387.392V370.884c0-.222,0-.444.008-.666a1.9,1.9,0,0,1,.465-1.171,1.218,1.218,0,0,1,.943-.475c.11,0,.221-.006.331-.007,2.842,0,5.685.007,8.528,0a3.925,3.925,0,0,1,2.283.8,2.9,2.9,0,0,1,.35.319,1.042,1.042,0,0,1,.33.809c-.011.412,0,.824,0,1.236q.007,16.057.014,32.114c0,.254,0,.507-.013.76a1.886,1.886,0,0,1-.492,1.159,1.212,1.212,0,0,1-.954.45H290.543a1.611,1.611,0,0,1-1.694-1.524v-.026c-.024-.252-.021-.507-.021-.76V387.388Z" transform="translate(-152.144 -47.995)" fill="#ef5488"/>
    <path id="Path_2353" data-name="Path 2353" d="M302.037,338.013a6.672,6.672,0,0,1-6.61,6.735h-.1a6.73,6.73,0,0,1-6.729-6.73v-.044a6.728,6.728,0,0,1,6.719-6.736h.005a6.672,6.672,0,0,1,6.714,6.631C302.038,337.914,302.038,337.964,302.037,338.013Z" transform="translate(-152.01 -26.043)" fill="#ef5488"/>
    <path id="Path_2354" data-name="Path 2354" d="M487.672,401.025h-6.817a4.6,4.6,0,0,1-1.4-.192,3.888,3.888,0,0,1-2.717-3.678q-.015-1.712,0-3.423a3.86,3.86,0,0,1,3.265-3.8,5.835,5.835,0,0,1,.752-.066q6.936-.006,13.871,0a3.907,3.907,0,0,1,2.9,1.173,3.776,3.776,0,0,1,1.12,2.647c.025,1.172.034,2.348,0,3.518a3.851,3.851,0,0,1-3.221,3.748,6.726,6.726,0,0,1-.988.075C492.185,401.027,489.929,401.025,487.672,401.025Zm.03-1.784h6.63a5.5,5.5,0,0,0,.754-.047,2.027,2.027,0,0,0,1.508-1.035,2.35,2.35,0,0,0,.3-1.231v-2.949c0-.063,0-.127,0-.19a2.171,2.171,0,0,0-2.107-2.15c-.11-.007-.221,0-.331,0H480.911c-.126,0-.253,0-.378.009a2.152,2.152,0,0,0-2.009,1.832,2.8,2.8,0,0,0-.03.474q0,1.5,0,3v.143a2.147,2.147,0,0,0,1.962,2.132c.205.018.41.022.615.022H487.7Z" transform="translate(-263.003 -60.52)" fill="#ef5488"/>
    <path id="Path_2355" data-name="Path 2355" d="M429.237,401.027h-6.865a4.684,4.684,0,0,1-1.309-.171,3.893,3.893,0,0,1-2.788-3.718q.009-1.689,0-3.378a3.87,3.87,0,0,1,3.238-3.824,5.349,5.349,0,0,1,.753-.07q6.983-.006,13.966,0a3.848,3.848,0,0,1,2.073.568,3.8,3.8,0,0,1,1.879,3.224c.048,1.187.047,2.379,0,3.566a3.835,3.835,0,0,1-3.288,3.735,8.008,8.008,0,0,1-.943.066Q432.6,401.031,429.237,401.027Zm.009-9.394h-6.63c-.158,0-.316-.005-.474.006a2.208,2.208,0,0,0-1.345.518,2.137,2.137,0,0,0-.76,1.675c0,.872,0,1.744,0,2.616,0,.238-.007.476,0,.713a2.122,2.122,0,0,0,1.841,2.04,4.053,4.053,0,0,0,.566.041q6.8,0,13.591,0a3.211,3.211,0,0,0,.658-.059,2.049,2.049,0,0,0,1.664-1.621,3.31,3.31,0,0,0,.073-.754c.009-.906,0-1.807,0-2.711,0-.127,0-.254-.008-.38a2.17,2.17,0,0,0-2.132-2.077c-.157-.008-.316,0-.474,0Z" transform="translate(-228.516 -60.522)" fill="#ef5488"/>
    <path id="Path_2356" data-name="Path 2356" d="M546.115,401.023h-6.821a4.49,4.49,0,0,1-1.445-.212,3.9,3.9,0,0,1-2.653-3.634c-.013-1.157-.021-2.316,0-3.473a3.845,3.845,0,0,1,3.247-3.774,6.339,6.339,0,0,1,.8-.069q6.915-.006,13.831,0a3.947,3.947,0,0,1,2.909,1.166,3.841,3.841,0,0,1,.9,1.438,2.048,2.048,0,0,1,.138.7q0,2.259,0,4.518a2.086,2.086,0,0,1-.158.787,3.792,3.792,0,0,1-2.993,2.483,5.363,5.363,0,0,1-.943.074Q549.526,401.029,546.115,401.023Zm.044-9.393H539.34a2.794,2.794,0,0,0-.932.133,2.141,2.141,0,0,0-1.451,2.027c-.015.634,0,1.268,0,1.9,0,.476-.012.952.006,1.427a2.131,2.131,0,0,0,1.9,2.09,4.046,4.046,0,0,0,.52.03q6.771,0,13.543,0a4.264,4.264,0,0,0,.659-.051,2.074,2.074,0,0,0,1.694-1.59,3.39,3.39,0,0,0,.077-.706c.009-.887.005-1.776.005-2.664,0-.143,0-.285,0-.428a2.169,2.169,0,0,0-2.091-2.163c-.157-.011-.316-.006-.474-.006Z" transform="translate(-297.49 -60.519)" fill="#ef5488"/>
    <path id="Path_2357" data-name="Path 2357" d="M548.065,434.674a.929.929,0,0,0,.2.074,3.03,3.03,0,0,0,.378.015H556.7a.837.837,0,0,0,.593-.1,1.476,1.476,0,0,0,.051-.61q0-6.3,0-12.6a3.657,3.657,0,0,1,.014-.522.881.881,0,0,1,1.284-.679.8.8,0,0,1,.458.675c.011.142.011.285.011.428q0,6.991,0,13.983c0,.127-.006.254-.006.38a.863.863,0,0,1-.82.828c-.11.008-.221.006-.331.006H547.349a2.413,2.413,0,0,1-.378-.014.851.851,0,0,1-.728-.764c0-.143-.01-.285-.01-.428q0-6.991,0-13.982c0-.143,0-.288.011-.428a.855.855,0,0,1,.717-.776.878.878,0,0,1,.934.5,1.381,1.381,0,0,1,.1.412,4.257,4.257,0,0,1,.007.475q0,6.254,0,12.508a1.538,1.538,0,0,0,.058.626Z" transform="translate(-304.008 -78.331)" fill="#ef5488"/>
    <path id="Path_2358" data-name="Path 2358" d="M489.6,434.682a1.579,1.579,0,0,0,.255.071,3.408,3.408,0,0,0,.379.009h7.954a1.28,1.28,0,0,0,.628-.08,1.76,1.76,0,0,0,.053-.259c.01-.158.005-.317.005-.475q0-6.255,0-12.509a3.579,3.579,0,0,1,.014-.522.877.877,0,0,1,1.367-.618.79.79,0,0,1,.375.629c.01.174.012.348.012.523q0,6.9,0,13.793c0,.159,0,.318-.01.475a.857.857,0,0,1-.828.82c-.11.009-.221.005-.331.005h-10.56c-.126,0-.253,0-.378-.008a.858.858,0,0,1-.767-.778c-.007-.142-.012-.285-.012-.428q0-6.991,0-13.983a4.13,4.13,0,0,1,.013-.428.853.853,0,0,1,.723-.769.88.88,0,0,1,.909.465,1.494,1.494,0,0,1,.117.453,3.806,3.806,0,0,1,.007.475q0,6.254,0,12.508a1.372,1.372,0,0,0,.065.631Z" transform="translate(-269.509 -78.33)" fill="#ef5488"/>
    <path id="Path_2359" data-name="Path 2359" d="M431.119,434.671a.959.959,0,0,0,.2.072,3.031,3.031,0,0,0,.378.015h8.05a.841.841,0,0,0,.594-.1,1.424,1.424,0,0,0,.053-.609q0-6.3,0-12.6a4.037,4.037,0,0,1,.011-.523.878.878,0,0,1,1.4-.6.786.786,0,0,1,.341.6c.01.158.011.317.011.476q0,6.944,0,13.888c0,.142,0,.286-.007.428a.859.859,0,0,1-.82.828c-.11.01-.221.006-.331.006H430.4a3.109,3.109,0,0,1-.331-.008.849.849,0,0,1-.772-.771,3.527,3.527,0,0,1-.017-.427q0-6.991,0-13.983c0-.142.009-.285.014-.428a.848.848,0,0,1,.765-.782.87.87,0,0,1,.906.548,1.552,1.552,0,0,1,.082.416c.014.157,0,.317,0,.475q0,6.231,0,12.461a1.5,1.5,0,0,0,.059.628Z" transform="translate(-235.009 -78.328)" fill="#ef5488"/>
    <path id="Path_2360" data-name="Path 2360" d="M140.413,300.272a2.014,2.014,0,0,1-.06-.274c-.009-.142,0-.285,0-.428,0-1.743,0-3.488,0-5.231.012-2.265.036-4.533.057-6.8,0-.506.043-.55.536-.551q3.244,0,6.487,0h.095c.378.017.428.062.433.453.006.428.006.856,0,1.285-.006.24-.075.3-.32.311-.126.007-.253,0-.379,0h-3.741c-.574,0-.59.017-.592.581q0,1.166,0,2.331c0,.063,0,.127,0,.19.017.326.063.381.4.383,1.121.007,2.242,0,3.362,0,.142,0,.285,0,.426.006.192.012.267.072.27.257q.015.761,0,1.521c0,.159-.078.222-.242.235-.125.01-.252.008-.378.008H143.6c-.187,0-.375.011-.574.017a1.157,1.157,0,0,0-.084.288c0,1.03,0,2.059,0,3.089a.506.506,0,0,0,.034.129.468.468,0,0,0,.4.121c.347,0,.695,0,1.042,0h2.889c.188,0,.375.014.574.022a1.422,1.422,0,0,1,.091.282,6.762,6.762,0,0,1-.069,1.712.944.944,0,0,1-.5.06c-.9,0-1.8,0-2.7,0h-3.741C140.8,300.286,140.629,300.278,140.413,300.272Z" transform="translate(-64.544 -0.019)" fill="#ef5488"/>
    <path id="Path_2361" data-name="Path 2361" d="M57,294.577a.781.781,0,0,0-.123.514q0,1.285,0,2.568c0,.512.035.545.535.547,1.312,0,2.62,0,3.93,0a1.062,1.062,0,0,1,.542.065,6.8,6.8,0,0,1,0,1.957,1.041,1.041,0,0,1-.5.052q-1.8,0-3.6,0H54.905a1.118,1.118,0,0,1-.533-.064,2.141,2.141,0,0,1-.044-.265c-.008-.158,0-.317,0-.475q.009-5.921.019-11.842c0-.65,0-.652.662-.652h6.3c.643,0,.644,0,.644.669,0,.364,0,.729,0,1.094-.005.218-.069.275-.29.288-.125.008-.252,0-.379,0h-3.93c-.423.011-.481.053-.484.458-.006.872,0,1.743.011,2.616a1.724,1.724,0,0,0,.068.337,1.19,1.19,0,0,0,.6.077c1.089,0,2.178,0,3.267,0,.578,0,.579,0,.582.573,0,.38.006.761,0,1.141,0,.247-.064.3-.314.31-.11.005-.221,0-.331,0h-3.22C57.344,294.559,57.173,294.57,57,294.577Z" transform="translate(-13.792 -0.019)" fill="#ef5488"/>
    <path id="Path_2362" data-name="Path 2362" d="M455.774,342.53c.056-1.116.114-2.272.171-3.427.006-.127.011-.254.018-.38.041-.744.062-1.489.123-2.231.047-.567.143-1.131.218-1.7q.171-1.3.343-2.59c.107-.8.217-1.6.324-2.4l.246-1.884c.107-.8.217-1.6.323-2.4l.246-1.884c.074-.565.151-1.13.225-1.695l.246-1.884c.077-.581.158-1.16.231-1.742a1.3,1.3,0,0,0-.847-1.385,1.264,1.264,0,0,0-1.6.793,3.025,3.025,0,0,0-.1.417c-.138.843-.272,1.689-.41,2.532-.025.156-.052.312-.087.467a.856.856,0,0,1-.964.733c-.027,0-.053-.009-.08-.015a.845.845,0,0,1-.641-1.006v0c.114-.767.239-1.533.361-2.3.045-.282.1-.561.144-.843a2.832,2.832,0,0,1,2.147-2.456,2.92,2.92,0,0,1,3.659,1.933c.016.049.03.1.041.15a3.08,3.08,0,0,1,.082.894c-.021.489-.082.978-.142,1.465-.112.9-.236,1.789-.356,2.684-.114.847-.232,1.694-.344,2.542-.11.832-.21,1.665-.32,2.5-.141,1.067-.287,2.134-.431,3.2-.109.816-.211,1.633-.319,2.449-.114.865-.238,1.725-.341,2.59-.082.676-.158,1.353-.2,2.033-.059.981-.086,1.963-.123,2.945-.035.886-.065,1.774-.1,2.66a1.461,1.461,0,0,1-.077.417.852.852,0,0,1-.932.569.822.822,0,0,1-.732-.8C455.76,343.173,455.774,342.87,455.774,342.53Z" transform="translate(-249.44 -16.562)" fill="#ef5488"/>
    <path id="Path_2363" data-name="Path 2363" d="M550.13,357.741c.41,0,.82-.016,1.23,0a9,9,0,0,1,3.4.763,5.19,5.19,0,0,1,2.1,1.658,4.531,4.531,0,0,1,.831,2.244c.077.756.168,1.511.251,2.265.074.677.145,1.355.218,2.032.053.488.1.977.162,1.465a1.188,1.188,0,0,1-.041.608.884.884,0,0,1-.847.573.862.862,0,0,1-.81-.682,4.957,4.957,0,0,1-.085-.564c-.076-.724-.143-1.45-.221-2.175-.079-.741-.164-1.48-.246-2.22-.041-.378-.087-.756-.119-1.134a2.706,2.706,0,0,0-1.133-2,4.838,4.838,0,0,0-1.66-.789,8.221,8.221,0,0,0-2.244-.3c-.648.007-1.3-.012-1.942.009a7.362,7.362,0,0,0-2.713.593,3.654,3.654,0,0,0-1.3.931,2.468,2.468,0,0,0-.629,1.309c-.07.5-.123,1.005-.176,1.51-.092.865-.179,1.733-.267,2.6-.07.694-.142,1.387-.209,2.08a.865.865,0,0,1-1.252.745.886.886,0,0,1-.488-.685,1.289,1.289,0,0,1,0-.285c.072-.693.149-1.386.221-2.079.082-.772.16-1.544.242-2.316.067-.63.105-1.265.21-1.889a4.394,4.394,0,0,1,1.646-2.749,6.3,6.3,0,0,1,2.226-1.128,9.553,9.553,0,0,1,2.66-.393h.995Z" transform="translate(-301.467 -41.627)" fill="#ef5488"/>
    <path id="Path_2364" data-name="Path 2364" d="M500.112,368.363a.892.892,0,0,1-.356.8.883.883,0,0,1-.866.106.823.823,0,0,1-.512-.69c-.07-.535-.128-1.071-.187-1.606q-.135-1.227-.265-2.456c-.069-.645-.149-1.29-.205-1.936a2.721,2.721,0,0,0-1.124-2.007,4.8,4.8,0,0,0-1.658-.793,8.211,8.211,0,0,0-2.244-.3c-.647.006-1.295-.012-1.942.008a7.4,7.4,0,0,0-2.714.589,3.65,3.65,0,0,0-1.271.893,2.5,2.5,0,0,0-.678,1.435c-.063.566-.123,1.133-.184,1.7l-.246,2.315c-.074.709-.146,1.418-.222,2.127a.843.843,0,0,1-.484.712.877.877,0,0,1-1.253-.729,1.21,1.21,0,0,1,0-.237c.077-.709.16-1.416.234-2.125.082-.772.15-1.545.23-2.317.065-.63.1-1.266.216-1.888a4.427,4.427,0,0,1,1.671-2.734,6.578,6.578,0,0,1,2.554-1.2,9.484,9.484,0,0,1,2.247-.295c.742,0,1.485-.019,2.226.006a9.077,9.077,0,0,1,3.4.739,5.549,5.549,0,0,1,1.508.971,4.437,4.437,0,0,1,1.467,2.948c.073.757.168,1.511.251,2.265.073.661.143,1.323.215,1.984q.085.78.171,1.559C500.1,368.268,500.109,368.331,500.112,368.363Z" transform="translate(-267.112 -41.62)" fill="#ef5488"/>
    <path id="Path_2365" data-name="Path 2365" d="M117.879,300.286a14.074,14.074,0,0,1-2.454-.015,1.7,1.7,0,0,1-.052-.257c-.009-.158,0-.317,0-.475q.008-4.85.015-9.7c0-.174,0-.348-.018-.522a.221.221,0,0,0-.215-.214c-.141-.013-.283-.017-.425-.017h-2.178c-.111,0-.221,0-.331,0-.295-.014-.349-.064-.358-.376-.009-.333,0-.666,0-1a4.23,4.23,0,0,1,.017-.427.216.216,0,0,1,.216-.211,3.024,3.024,0,0,1,.331-.012h8.521c.522,0,.529.009.533.53,0,.333,0,.666,0,1,0,.481-.017.494-.516.494-.773,0-1.547,0-2.319,0-.126,0-.253,0-.379,0-.257.015-.325.082-.351.348a2.644,2.644,0,0,0-.008.285q.012,2.354.026,4.707.016,2.685.034,5.372A.814.814,0,0,1,117.879,300.286Z" transform="translate(-47.733 -0.063)" fill="#ef5488"/>
    <path id="Path_2366" data-name="Path 2366" d="M81.7,298.188a1.2,1.2,0,0,0,.624.09c1.057,0,2.114,0,3.171,0a.8.8,0,0,1,.5.07,7.01,7.01,0,0,1,0,1.905.924.924,0,0,1-.5.06q-1.917,0-3.834,0H79.622c-.154,0-.309-.015-.479-.024a2.977,2.977,0,0,1-.056-.3c-.009-.11,0-.222,0-.333q.006-6.013.014-12.027c0-.585,0-.586.57-.588q.686,0,1.372,0a3.159,3.159,0,0,1,.331.012.227.227,0,0,1,.223.206,2.606,2.606,0,0,1,.021.329c.019,1.853.041,3.707.053,5.56.009,1.49,0,2.979.009,4.469C81.678,297.815,81.694,298,81.7,298.188Z" transform="translate(-28.399 -0.054)" fill="#ef5488"/>
    <path id="Path_2367" data-name="Path 2367" d="M497.866,293.017c.169.181.292.323.424.456q1.371,1.381,2.745,2.76a2.958,2.958,0,0,1,.321.349.832.832,0,0,1,.175.669.872.872,0,0,1-1.4.535,3.162,3.162,0,0,1-.31-.293l-2.781-2.79a1.277,1.277,0,0,0-.446-.362,1.145,1.145,0,0,0-.434.348q-1.394,1.393-2.781,2.79a3.455,3.455,0,0,1-.309.294.871.871,0,0,1-1.413-.5.839.839,0,0,1,.187-.711,3.372,3.372,0,0,1,.324-.346l2.744-2.76a1.226,1.226,0,0,0,.356-.445,1.157,1.157,0,0,0-.351-.439q-1.386-1.4-2.777-2.794a2.9,2.9,0,0,1-.32-.349.869.869,0,0,1,.462-1.371.728.728,0,0,1,.507.024,1.6,1.6,0,0,1,.527.4l2.814,2.824c.133.133.274.257.392.368.239-.008.336-.169.456-.288.595-.591,1.185-1.187,1.776-1.781.38-.381.758-.764,1.14-1.142a2.168,2.168,0,0,1,.322-.278.852.852,0,0,1,1.044.076.862.862,0,0,1,.189,1.034,1.773,1.773,0,0,1-.321.407q-1.1,1.116-2.208,2.222c-.246.247-.492.491-.736.741C498.082,292.756,498,292.866,497.866,293.017Z" transform="translate(-271.797 -0.628)" fill="#ef5488"/>
    <path id="Path_2368" data-name="Path 2368" d="M554.851,294.318a1.235,1.235,0,0,0-.5.379q-1.394,1.393-2.78,2.789a2.689,2.689,0,0,1-.349.32.859.859,0,0,1-1.142-.111.868.868,0,0,1-.02-1.152,3.06,3.06,0,0,1,.292-.311l2.777-2.791a1.148,1.148,0,0,0,.349-.44,1.249,1.249,0,0,0-.358-.444q-1.42-1.432-2.845-2.859a1.409,1.409,0,0,1-.4-.581.8.8,0,0,1,.246-.861.757.757,0,0,1,.914-.154,2.148,2.148,0,0,1,.482.375c.943.937,1.877,1.881,2.815,2.821.133.133.274.256.392.366.239-.011.336-.172.456-.291q1.41-1.408,2.813-2.823a3.315,3.315,0,0,1,.384-.352.783.783,0,0,1,.712-.155.888.888,0,0,1,.615,1.09.9.9,0,0,1-.138.288,2.9,2.9,0,0,1-.321.348l-2.777,2.792a1.158,1.158,0,0,0-.352.443,1.218,1.218,0,0,0,.354.441q1.37,1.381,2.744,2.76c.089.09.178.18.265.271a.924.924,0,0,1,.2.931.684.684,0,0,1-.516.508.919.919,0,0,1-.924-.213c-.09-.089-.18-.178-.269-.267q-1.353-1.363-2.71-2.725C555.135,294.577,554.992,294.453,554.851,294.318Z" transform="translate(-306.139 -0.623)" fill="#ef5488"/>
    <path id="Path_2369" data-name="Path 2369" d="M439.979,341.042a4.574,4.574,0,0,1-4.6-4.545v-.065a4.584,4.584,0,1,1,4.6,4.61Zm-2.86-4.572a2.811,2.811,0,0,0,2.779,2.842h.05a2.8,2.8,0,0,0,2.865-2.74q0-.057,0-.114a2.836,2.836,0,0,0-2.8-2.871h-.053a2.877,2.877,0,0,0-2.842,2.883Z" transform="translate(-238.606 -26.394)" fill="#ef5488"/>
    <path id="Path_2370" data-name="Path 2370" d="M497.107,332.515a4.51,4.51,0,0,1,4.6,4.419v.185a4.562,4.562,0,0,1-4.532,4.591h-.055a4.576,4.576,0,0,1-4.58-4.572v-.077a4.512,4.512,0,0,1,4.477-4.546C497.048,332.515,497.077,332.515,497.107,332.515Zm.035,7.444a2.839,2.839,0,0,0,2.835-2.842v-.06a2.817,2.817,0,0,0-2.814-2.821h-.056a2.819,2.819,0,0,0-2.835,2.8v.052a2.839,2.839,0,0,0,2.808,2.869h.062Z" transform="translate(-272.332 -26.795)" fill="#ef5488"/>
    <path id="Path_2371" data-name="Path 2371" d="M555.324,341.682a4.549,4.549,0,0,1-4.563-4.534v-.079a4.575,4.575,0,0,1,4.555-4.6h.073a4.6,4.6,0,0,1,.064,9.209Zm.014-1.746a2.876,2.876,0,0,0,2.868-2.866,2.845,2.845,0,0,0-2.833-2.858h-.041a2.814,2.814,0,0,0-2.837,2.79v.052a2.857,2.857,0,0,0,2.832,2.881h.012Z" transform="translate(-306.68 -26.771)" fill="#ef5488"/>
    <path id="Path_2372" data-name="Path 2372" d="M103.009,300.283a13.219,13.219,0,0,1-2.419-.019,1.93,1.93,0,0,1-.051-.257c-.01-.126-.005-.253,0-.38q.009-5.986.019-11.971c0-.6,0-.6.6-.6.52,0,1.041,0,1.561,0,.273,0,.321.064.338.344,0,.079,0,.158,0,.238q.014,6.009.025,12.019A1.3,1.3,0,0,1,103.009,300.283Z" transform="translate(-41.054 -0.059)" fill="#ef5488"/>
    <path id="Path_2373" data-name="Path 2373" d="M433.694,357.74c.158,0,.316-.008.473,0a.869.869,0,0,1,.1,1.725,2.74,2.74,0,0,1-.472.02,7.845,7.845,0,0,0-2.592.48,4.518,4.518,0,0,0-1.083.577,2.828,2.828,0,0,0-1.2,2.119c-.116,1.165-.241,2.33-.359,3.494-.075.741-.141,1.483-.218,2.221a1.615,1.615,0,0,1-.1.458.847.847,0,0,1-.928.5.836.836,0,0,1-.715-.822,3.2,3.2,0,0,1,.015-.475c.079-.756.167-1.51.246-2.265s.145-1.513.224-2.268c.051-.488.1-.977.175-1.461a4.413,4.413,0,0,1,1.879-2.963,6.848,6.848,0,0,1,2.732-1.139A8.776,8.776,0,0,1,433.694,357.74Z" transform="translate(-233.423 -41.629)" fill="#ef5488"/>
    <path id="Path_2374" data-name="Path 2374" d="M551.783,375.155c.063-.755.126-1.48.182-2.206.048-.615.082-1.231.132-1.847a2.606,2.606,0,0,1,.1-.605.852.852,0,0,1,1.646.227,9.414,9.414,0,0,1-.033,1c-.045.632-.106,1.262-.153,1.895-.044.584-.073,1.169-.117,1.753a3.262,3.262,0,0,1-.08.516.839.839,0,0,1-.874.649.822.822,0,0,1-.8-.787C551.776,375.537,551.783,375.332,551.783,375.155Z" transform="translate(-307.281 -48.808)" fill="#ef5488"/>
    <path id="Path_2375" data-name="Path 2375" d="M438.44,371c-.035.535-.067,1.075-.106,1.612q-.082,1.09-.169,2.179c-.025.315-.051.632-.09.947a.857.857,0,0,1-.854.794.893.893,0,0,1-.88-.832,1.781,1.781,0,0,1,.006-.285q.039-.545.082-1.09c.05-.6.106-1.2.154-1.8.041-.521.078-1.043.116-1.565.006-.079,0-.159.015-.237a.869.869,0,0,1,1.734.085c0,.063,0,.127,0,.19Z" transform="translate(-239.172 -48.808)" fill="#ef5488"/>
    <path id="Path_2376" data-name="Path 2376" d="M493.561,375.2c.061-.735.123-1.444.177-2.154.048-.631.085-1.263.135-1.895a3.207,3.207,0,0,1,.09-.608.85.85,0,0,1,1.657.188,10.1,10.1,0,0,1-.033,1.044c-.041.6-.105,1.2-.151,1.8s-.075,1.2-.12,1.8a3.165,3.165,0,0,1-.082.515.841.841,0,0,1-.876.646.822.822,0,0,1-.8-.79C493.556,375.552,493.561,375.362,493.561,375.2Z" transform="translate(-272.931 -48.81)" fill="#ef5488"/>
    <path id="Path_2377" data-name="Path 2377" d="M569.016,375.175c0,.229.011.388,0,.545a.83.83,0,0,1-.728.751.845.845,0,0,1-.931-.562,2.062,2.062,0,0,1-.089-.464c-.076-.913-.141-1.827-.217-2.74-.044-.535-.1-1.071-.154-1.6a1.207,1.207,0,0,1,.07-.651.849.849,0,0,1,.928-.494.839.839,0,0,1,.719.713c.038.25.066.5.087.753.075.913.143,1.827.218,2.74C568.946,374.525,568.987,374.884,569.016,375.175Z" transform="translate(-316.189 -48.808)" fill="#ef5488"/>
    <path id="Path_2378" data-name="Path 2378" d="M510.8,375.264c0,.124.01.283,0,.44a.831.831,0,0,1-.719.763.841.841,0,0,1-.95-.6,2.248,2.248,0,0,1-.078-.42c-.041-.489-.075-.979-.116-1.468-.049-.584-.1-1.167-.154-1.751-.041-.458-.093-.915-.113-1.373a.869.869,0,0,1,1.644-.436.808.808,0,0,1,.082.269c.041.346.069.694.1,1.04.052.568.1,1.136.153,1.7C510.7,374.029,510.752,374.628,510.8,375.264Z" transform="translate(-281.848 -48.805)" fill="#ef5488"/>
  </g>
</svg>
