<svg xmlns="http://www.w3.org/2000/svg" width="90" height="90" viewBox="0 0 90 90">
  <g id="fun_n_learn" transform="translate(0.911)">
    <rect id="Rectangle_50" data-name="Rectangle 50" width="90" height="90" transform="translate(-0.911)" fill="none"/>
    <path id="Path_67" data-name="Path 67" d="M86.262,0c.2.129.4.247.594.376a2.559,2.559,0,0,1,.91,3.591,3.046,3.046,0,0,0-.336,2.266,25.6,25.6,0,0,1,.455,3.562,3.351,3.351,0,0,1-3.858,3.631c-1.078-.059-2.147-.3-3.215-.445a8.377,8.377,0,0,0-.871-.119c-.9-.04-1.128.178-1.009,1.069.158,1.1.406,2.186.564,3.295.425,2.928-1.148,4.719-4.116,4.591-1.108-.049-2.2-.336-3.295-.495-1.474-.218-1.692,0-1.474,1.454a32.884,32.884,0,0,1,.514,3.641,3.428,3.428,0,0,1-3.809,3.819,37.892,37.892,0,0,1-3.908-.554c-1.108-.158-1.336.03-1.227,1.148.069.722.257,1.444.366,2.167a14.153,14.153,0,0,1,.178,1.83,3.557,3.557,0,0,1-4.333,3.8c-1.019-.129-2.018-.326-3.027-.524a2.55,2.55,0,0,0-2.008.326,2.58,2.58,0,0,1-3.532-.623,2.663,2.663,0,0,1,.4-3.581A6.267,6.267,0,0,1,55.3,32.777c.544.049,1.088.129,1.771.208-.247-2.543-.594-5.046,1.395-7.015s4.452-1.741,7.024-1.346c-.3-2.592-.6-5.075,1.375-7.054s4.422-1.662,6.975-1.365c-.04-.564-.059-1.049-.119-1.524-.594-4.749,2.4-7.7,7.133-7.024.148.02.287.04.435.069.762.158.96-.148.91-.9a15.281,15.281,0,0,1,0-3.225A4.377,4.377,0,0,1,84.857,0Z" fill="#ef5488"/>
    <path id="Path_68" data-name="Path 68" d="M27.108,26.109c.237.218.475.425.693.643,2.78,2.77,5.54,5.56,8.34,8.32a2.127,2.127,0,0,1,.693,1.781,46.951,46.951,0,0,0,9.132,30.71c1.049,1.444,2.266,2.76,3.4,4.135.178.218.366.425.633.732-.485.2-.851.346-1.227.495-2.82,1.059-5.659,2.107-8.469,3.2a1.252,1.252,0,0,1-1.425-.247A42.2,42.2,0,0,1,26.495,27.148c.109-.267.237-.534.366-.8a1.163,1.163,0,0,1,.247-.228Z" fill="#ef5488"/>
    <path id="Path_69" data-name="Path 69" d="M33.836,78.515c-2.81,1.059-5.432,2.038-8.063,3.027-2.78,1.049-2.82,1.088-4.927-.989A40.976,40.976,0,0,1,9.864,61.637,2.108,2.108,0,0,1,9.9,60.45q3.948-10.626,7.945-21.232a1.277,1.277,0,0,1,.287-.435C17.185,54.414,22.359,67.632,33.836,78.515Z" fill="#ef5488"/>
    <path id="Path_70" data-name="Path 70" d="M42,41.009c.376.336.574.5.752.693L63.823,62.775c.89.89,1.494,1.919.91,3.136a3.311,3.311,0,0,1-1.543,1.553c-2.315.989-4.709,1.8-7.054,2.711a1.023,1.023,0,0,1-1.227-.346A42.476,42.476,0,0,1,44.145,52.841a44.88,44.88,0,0,1-2.157-11c-.02-.2,0-.4,0-.821Z" fill="#ef5488"/>
    <path id="Path_71" data-name="Path 71" d="M6.836,68.918a48.642,48.642,0,0,0,10.6,15.632,7.645,7.645,0,0,1-.762.406c-4.3,1.613-8.6,3.245-12.911,4.828a2.618,2.618,0,0,1-3.69-1.84,2.7,2.7,0,0,1,.1-1.454q3.176-8.563,6.4-17.106a3.7,3.7,0,0,1,.287-.465Z" fill="#ef5488"/>
    <path id="Path_72" data-name="Path 72" d="M53.366,8.34a27.315,27.315,0,0,1-6.4,17.65c-.722.881-1.5,1.721-2.3,2.543a2.628,2.628,0,0,1-3.9.247,2.712,2.712,0,0,1,.119-3.918,25.086,25.086,0,0,0,6.273-10.131,17.819,17.819,0,0,0,.376-9.448A2.665,2.665,0,0,1,49.27,1.989a2.568,2.568,0,0,1,3.344,1.89c.416,1.761.6,3.572.742,4.462Z" fill="#ef5488"/>
    <path id="Path_73" data-name="Path 73" d="M80.88,36.517c1.781.3,3.581.495,5.343.91a2.527,2.527,0,0,1,1.85,3.126A2.594,2.594,0,0,1,84.9,42.493c-5.679-1.326-10.8.049-15.523,3.206A47.824,47.824,0,0,0,65.1,49.2a2.757,2.757,0,0,1-2.839.673,2.245,2.245,0,0,1-1.7-2.127,3.324,3.324,0,0,1,.673-2.157c5.392-5.441,11.754-8.835,19.639-9.082Z" fill="#ef5488"/>
    <path id="Path_74" data-name="Path 74" d="M84.431,28.761a2.652,2.652,0,1,1-2.612-2.671A2.714,2.714,0,0,1,84.431,28.761Z" fill="#ef5488"/>
    <path id="Path_75" data-name="Path 75" d="M80.662,54.83A2.6,2.6,0,0,1,78.011,57.5a2.642,2.642,0,0,1,.03-5.283A2.587,2.587,0,0,1,80.662,54.83Z" fill="#ef5488"/>
    <path id="Path_76" data-name="Path 76" d="M65.733,10.131A2.505,2.505,0,0,1,63.121,12.7a2.561,2.561,0,0,1-2.632-2.592,2.681,2.681,0,0,1,2.7-2.651,2.568,2.568,0,0,1,2.553,2.671Z" fill="#ef5488"/>
    <path id="Path_77" data-name="Path 77" d="M37.061,11.219a2.584,2.584,0,0,1,2.592,2.632,2.637,2.637,0,1,1-5.273-.079,2.586,2.586,0,0,1,2.681-2.543Z" fill="#ef5488"/>
  </g>
</svg>
