<svg xmlns="http://www.w3.org/2000/svg" width="90" height="90" viewBox="0 0 90 90">
  <g id="Group_play" data-name="Group play" transform="translate(0.104 0.008)">
    <rect id="Rectangle_51" data-name="Rectangle 51" width="90" height="90" transform="translate(-0.104 -0.008)" fill="none"/>
    <path id="Path_96" data-name="Path 96" d="M25.442,0H64.364c.475.34,1.061.23,1.583.317a28.066,28.066,0,0,1,7.773,2.454,22.933,22.933,0,0,1,4.457,2.723c.958.752,1.931,1.5,2.818,2.327a29.436,29.436,0,0,1,3.618,4.243,26.84,26.84,0,0,1,2.406,4.045,22.229,22.229,0,0,1,1.726,4.567c.245,1.069.42,2.161.728,3.222.15.53-.016,1.108.325,1.583v6.151a4.187,4.187,0,0,0-.325,1.67,25.641,25.641,0,0,1-1.148,4.56,29.687,29.687,0,0,1-2.114,4.694,32.413,32.413,0,0,1-4.354,5.881c-.522.578-1.172,1.053-1.741,1.591a25.736,25.736,0,0,1-5.953,4.085,27.933,27.933,0,0,1-12.246,3.008c-10.956-.024-21.911-.008-32.875-.016a27.463,27.463,0,0,1-5.217-.325,30.245,30.245,0,0,1-4.132-1.005A28.167,28.167,0,0,1,14.2,53.329a31.156,31.156,0,0,1-5.676-4.322c-.871-.855-1.631-1.821-2.422-2.755a23.5,23.5,0,0,1-3.269-5.145,25.655,25.655,0,0,1-1.71-4.393A27.224,27.224,0,0,1,0,29.059a26.686,26.686,0,0,1,.214-4.71A52.158,52.158,0,0,1,1.5,19.2a23.2,23.2,0,0,1,2.288-5A30.255,30.255,0,0,1,8.114,8.51c.831-.847,1.781-1.583,2.683-2.367a24.8,24.8,0,0,1,5.05-3.261A27.148,27.148,0,0,1,20.977.934c.95-.261,1.939-.348,2.881-.617.522-.15,1.108.016,1.583-.325ZM58.728,28.545C51.485,24.246,44.3,19.98,37.086,15.7c-.142,1.607-.087,25,.055,25.655q10.77-6.388,21.595-12.816Z" fill="#ef5488"/>
    <path id="Path_97" data-name="Path 97" d="M6.823,89.806a.444.444,0,0,1-.095-.158,1.4,1.4,0,0,1-.055-.412c-.024-1.457-.04-2.905-.063-4.362a16.491,16.491,0,0,1,.823-5.367,1.047,1.047,0,0,1,.285-.5c.435-.34.831.4,1.077.649a11.13,11.13,0,0,0,2.976,2.2,12.669,12.669,0,0,0,6.04,1.425A12.874,12.874,0,0,0,26.922,79.4c.2-.2.522-.681.776-.293a6.382,6.382,0,0,1,.38.633,10.531,10.531,0,0,1,.681,4.029c.095,1.892.032,3.784-.032,5.676,0,.19.024.412-.19.491a.766.766,0,0,1-.3.032c-2.406,0-4.8-.016-7.211-.016H17.185c-1.8,0-3.586-.024-5.383-.032H9.143c-.443,0-.887,0-1.33.016-.309,0-.76.119-1-.127Z" fill="#ef5488"/>
    <path id="Path_98" data-name="Path 98" d="M33.927,89.909a21.264,21.264,0,0,1-.119-6.721c.135-1.013.546-5.351,2.034-3.72a9.286,9.286,0,0,0,.9.95,11.381,11.381,0,0,0,2.224,1.441,12.669,12.669,0,0,0,6.04,1.425,12.985,12.985,0,0,0,5.866-1.425A11.9,11.9,0,0,0,53.7,79.832c.206-.2.412-.4.6-.617.111-.119.222-.317.4-.261.3.079.38.53.483.776a14.907,14.907,0,0,1,.918,6.151c-.016,1.013-.047,2.042-.135,3.056-.095,1.187-.317,1.045-1.425,1.045-.61,0-1.219-.008-1.821-.016-1.187-.008-2.375-.016-3.562-.016H37.537a27.181,27.181,0,0,1-3.594-.04Z" fill="#ef5488"/>
    <path id="Path_99" data-name="Path 99" d="M61.111,89.885c-.142-.19-.071-.665-.071-.855l-.024-1.211q-.012-1.187,0-2.375.012-1.045.047-2.09a10.464,10.464,0,0,1,.681-3.649c.095-.23.34-.9.689-.752.277.127.459.475.665.7a10.188,10.188,0,0,0,.792.752,11.426,11.426,0,0,0,2.248,1.464,12.669,12.669,0,0,0,6.04,1.425,12.84,12.84,0,0,0,7.2-2.232,12.019,12.019,0,0,0,1.306-1.069c.364-.34.617-.863,1.069-1.1a.155.155,0,0,1,.174,0c.364.206.53.807.673,1.179a11.312,11.312,0,0,1,.515,3.372c.095,1.924.047,3.847,0,5.771,0,.119,0,.23-.008.348,0,.214-.016.372-.261.4a12.552,12.552,0,0,1-1.544,0H64.72c-1.077,0-2.161-.024-3.238.024a.777.777,0,0,1-.269-.024.31.31,0,0,1-.079-.063Z" fill="#ef5488"/>
    <path id="Path_100" data-name="Path 100" d="M25.624,70.285c.3,4.021-3.649,8-8.019,7.932A8.189,8.189,0,0,1,9.784,70.04a8,8,0,0,1,7.979-7.821A7.828,7.828,0,0,1,25.624,70.285Z" fill="#ef5488"/>
    <path id="Path_101" data-name="Path 101" d="M52.8,70.277c.309,4.037-3.649,8-8.011,7.94a8.2,8.2,0,0,1-7.829-8.161,8.013,8.013,0,0,1,7.971-7.837,7.834,7.834,0,0,1,7.876,8.058Z" fill="#ef5488"/>
    <path id="Path_102" data-name="Path 102" d="M79.982,70.3c.293,4.005-3.649,7.987-8.035,7.916a8.2,8.2,0,0,1-7.805-8.193,8.007,8.007,0,0,1,8-7.805A7.823,7.823,0,0,1,79.982,70.3Z" fill="#ef5488"/>
    <path id="Path_103" data-name="Path 103" d="M42.295,32.257V24.919a48.012,48.012,0,0,1,6.2,3.594A54.7,54.7,0,0,1,42.295,32.257Z" fill="#ef5488"/>
  </g>
</svg>
