<svg id="Guess_the_word" data-name="Guess the word" xmlns="http://www.w3.org/2000/svg" width="90.001" height="90" viewBox="0 0 90.001 90">
  <rect id="Rectangle_205" data-name="Rectangle 205" width="90.001" height="90" fill="none"/>
  <path id="Path_753" data-name="Path 753" d="M61.9,27.5A30.8,30.8,0,0,0,39.985,1.859c-2.03-.579-4.15-.869-6.22-1.3h-5.25c-.73.129-1.48.26-2.21.37a31.073,31.073,0,0,0,6.75,61.709,29.946,29.946,0,0,0,19.3-8.3c7.64-7.311,10.8-16.34,9.54-26.84M46.755,48.349a21.993,21.993,0,0,1-14.21,6.11A22.881,22.881,0,0,1,27.565,9.02c.55-.081,1.09-.18,1.63-.27h3.87c1.53.31,3.09.53,4.58.96a22.693,22.693,0,0,1,16.14,18.88,22.347,22.347,0,0,1-7.03,19.759" fill="#ef5488"/>
  <path id="Path_754" data-name="Path 754" d="M90,82.108a21.231,21.231,0,0,1-1.808,3.965,8.322,8.322,0,0,1-11.64,1.745c-.14-.1-.275-.21-.408-.321-.358-.3-.708-.614-1.04-.946l-25.58-25.58c-.213-.213-.409-.452-.512-.554,2.183-1.859,4.468-3.521,6.4-5.534s3.513-4.349,5.312-6.617c.179.162.486.418.759.691Q73.714,61.184,85.958,73.394c1.876,1.859,3.564,3.76,4.042,6.463v2.251Z" fill="#ef5488"/>
  <path id="Path_755" data-name="Path 755" d="M42.736,39.253q1.407-5.767,2.822-11.545c.46-1.884.912-3.76,1.373-5.645a1.838,1.838,0,0,1,.239-.7,1.991,1.991,0,0,1,.819-.674c.145-.043.486.315.639.554a18.069,18.069,0,0,1,2.694,7.52,6.884,6.884,0,0,1-.2,2.4c-.9,3.479-1.91,6.924-2.814,10.4a8.2,8.2,0,0,1-1.748,3.359,20.035,20.035,0,0,1-6.122,4.86c-.324.171-.674.3-1.194.529-1.774-6.386-3.522-12.679-5.261-18.963l-.213-.017c-.128.426-.264.844-.384,1.27q-2.444,8.748-4.877,17.5c-.452,1.62-.639,1.774-2.217,1.313a37.421,37.421,0,0,1-4.135-1.484,1.8,1.8,0,0,1-.921-1.049q-3.536-13.16-7-26.345c-.333-1.245.239-2,1.543-2.063.938-.051,1.876-.026,2.814-.017,1.62.009,2,.324,2.37,1.918q1.893,8.173,3.777,16.337c.068.3.153.6.315,1.2.188-.554.3-.844.375-1.143l4.707-16.678c.375-1.313.759-1.612,2.123-1.629q1.688-.026,3.377,0c1.313.017,1.722.324,2.072,1.569q2.353,8.39,4.681,16.78a3.472,3.472,0,0,0,.162.418h.179Z" fill="#ef5488"/>
</svg>
