<svg xmlns="http://www.w3.org/2000/svg" xmlns:xlink="http://www.w3.org/1999/xlink" width="161.561" height="63.266" viewBox="0 0 161.561 63.266">
  <defs>
    <linearGradient id="linear-gradient" x1="-2.155" y1="1.531" x2="9.958" y2="-3.173" gradientUnits="objectBoundingBox">
      <stop offset="0" stop-color="#d43670"/>
      <stop offset="1" stop-color="#571849"/>
    </linearGradient>
    <linearGradient id="linear-gradient-2" x1="-15.187" y1="6.585" x2="5.147" y2="-1.302" xlink:href="#linear-gradient"/>
    <linearGradient id="linear-gradient-3" x1="-0.029" y1="0.705" x2="3.597" y2="-0.705" xlink:href="#linear-gradient"/>
    <linearGradient id="linear-gradient-4" x1="-1.558" y1="1.298" x2="4.246" y2="-0.981" xlink:href="#linear-gradient"/>
    <linearGradient id="linear-gradient-5" x1="-3.265" y1="1.839" x2="3.317" y2="-0.494" xlink:href="#linear-gradient"/>
    <linearGradient id="linear-gradient-6" x1="-7.226" y1="1.563" x2="9.26" y2="-0.705" xlink:href="#linear-gradient"/>
    <linearGradient id="linear-gradient-7" x1="-7.814" y1="3.729" x2="8.463" y2="-2.592" xlink:href="#linear-gradient"/>
    <linearGradient id="linear-gradient-8" x1="-7.462" y1="6.609" x2="2.506" y2="-1.04" xlink:href="#linear-gradient"/>
    <linearGradient id="linear-gradient-9" x1="-6.513" y1="5.881" x2="3.455" y2="-1.768" xlink:href="#linear-gradient"/>
    <linearGradient id="linear-gradient-10" x1="-8.448" y1="7.337" x2="1.564" y2="-0.311" xlink:href="#linear-gradient"/>
    <linearGradient id="linear-gradient-11" x1="-14.287" y1="5.034" x2="2.695" y2="-0.173" xlink:href="#linear-gradient"/>
    <linearGradient id="linear-gradient-12" x1="-12.662" y1="4.538" x2="4.31" y2="-0.669" xlink:href="#linear-gradient"/>
    <linearGradient id="linear-gradient-13" x1="-11.046" y1="4.042" x2="5.926" y2="-1.165" xlink:href="#linear-gradient"/>
    <linearGradient id="linear-gradient-14" x1="-7.671" y1="2.337" x2="20.894" y2="-4.082" xlink:href="#linear-gradient"/>
    <linearGradient id="linear-gradient-15" x1="-3.679" y1="1.437" x2="24.957" y2="-4.981" xlink:href="#linear-gradient"/>
    <linearGradient id="linear-gradient-16" x1="-25.371" y1="2.735" x2="8.485" y2="-0.194" xlink:href="#linear-gradient"/>
    <linearGradient id="linear-gradient-17" x1="-11.66" y1="7.289" x2="1.666" y2="-0.064" xlink:href="#linear-gradient"/>
    <linearGradient id="linear-gradient-18" x1="-10.392" y1="6.592" x2="2.929" y2="-0.761" xlink:href="#linear-gradient"/>
    <linearGradient id="linear-gradient-19" x1="-5.06" y1="2.023" x2="17.672" y2="-4.414" xlink:href="#linear-gradient"/>
    <linearGradient id="linear-gradient-20" x1="-5.302" y1="1.689" x2="26.07" y2="-4.741" xlink:href="#linear-gradient"/>
    <linearGradient id="linear-gradient-21" x1="-18.565" y1="7.917" x2="3.488" y2="-0.662" xlink:href="#linear-gradient"/>
    <linearGradient id="linear-gradient-22" x1="-20.693" y1="8.731" x2="1.4" y2="0.151" xlink:href="#linear-gradient"/>
    <linearGradient id="linear-gradient-23" x1="-17.257" y1="7.415" x2="6.602" y2="-1.876" xlink:href="#linear-gradient"/>
    <linearGradient id="linear-gradient-24" x1="-19.469" y1="8.273" x2="4.391" y2="-1.016" xlink:href="#linear-gradient"/>
    <linearGradient id="linear-gradient-25" x1="-21.733" y1="9.143" x2="2.129" y2="-0.133" xlink:href="#linear-gradient"/>
    <linearGradient id="linear-gradient-26" x1="-17.517" y1="1.859" x2="67.835" y2="-4.576" xlink:href="#linear-gradient"/>
    <linearGradient id="linear-gradient-27" x1="-18.011" y1="5.696" x2="8.033" y2="-1.66" xlink:href="#linear-gradient"/>
    <linearGradient id="linear-gradient-28" x1="-94.653" y1="12.123" x2="11.355" y2="-0.827" xlink:href="#linear-gradient"/>
    <linearGradient id="linear-gradient-29" x1="-73.06" y1="9.7" x2="30.591" y2="-3.263" xlink:href="#linear-gradient"/>
    <linearGradient id="linear-gradient-30" x1="-84.593" y1="10.898" x2="21.403" y2="-2.055" xlink:href="#linear-gradient"/>
    <linearGradient id="linear-gradient-31" x1="-93.691" y1="12.547" x2="8.428" y2="-0.513" xlink:href="#linear-gradient"/>
    <linearGradient id="linear-gradient-32" x1="-84.208" y1="11.304" x2="18.149" y2="-1.75" xlink:href="#linear-gradient"/>
  </defs>
  <g id="elitequiz_login" transform="translate(-30.947 -286.954)">
    <path id="Path_2347" data-name="Path 2347" d="M162.741,472.877c-.308,0-.706-.015-.915-.036a6.2,6.2,0,0,1-5.471-4.883,6.379,6.379,0,1,1,12.366-3.14c.016.064.032.128.046.191a6.405,6.405,0,0,1-4.77,7.685q-.091.022-.183.04a6.543,6.543,0,0,1-1.073.143Z" transform="translate(-88.928 -122.658)" fill="url(#linear-gradient)"/>
    <path id="Path_2348" data-name="Path 2348" d="M437.742,286.99a3.818,3.818,0,0,1,3.293,3.274,3.84,3.84,0,0,1-.766,2.871,3.649,3.649,0,0,1-2.256,1.4,3.788,3.788,0,0,1-4.254-2.271,3.327,3.327,0,0,1-.274-1.205,3.865,3.865,0,0,1,.2-1.554,3.749,3.749,0,0,1,2.83-2.458,3.416,3.416,0,0,1,.633-.087,2.748,2.748,0,0,1,.591.033Zm-.477,1.218a2.542,2.542,0,0,0-2.579,2.5v.071a2.585,2.585,0,0,0,2.573,2.6h.032a2.614,2.614,0,0,0,2.564-2.607,2.577,2.577,0,0,0-2.589-2.566h0Z" transform="translate(-285.881 0)" fill="url(#linear-gradient-2)"/>
    <path id="Path_2349" data-name="Path 2349" d="M70.076,368.127c-.227-.16-2.827-2.768-3.011-3.023.034-.071.067-.153.11-.229a17.155,17.155,0,0,0,1.849-4.916,17.589,17.589,0,0,0,.323-2.327,15.917,15.917,0,0,0,.046-1.612,17.208,17.208,0,0,0-14.153-16.552,13.092,13.092,0,0,0-2.126-.228c-.256,0-.512-.041-.768-.039A17.172,17.172,0,0,0,35.2,354.957a16.22,16.22,0,0,0-.035,2.452,17.115,17.115,0,0,0,2.88,8.59,16.71,16.71,0,0,0,1.868,2.326.58.58,0,0,0,.27.211c.116-.029.19-.134.275-.219q.843-.841,1.683-1.685l3.811-3.828c.093-.094.181-.193.261-.278a.632.632,0,0,0-.221-.32,8.51,8.51,0,0,1-1.862-3.27,8.418,8.418,0,0,1-.365-2.953,8.543,8.543,0,0,1,4.245-6.955A8.043,8.043,0,0,1,51,347.982a8.5,8.5,0,0,1,9.757,8.9,8.393,8.393,0,0,1-1.3,4.115,7.191,7.191,0,0,1-1.018,1.287q-1.462,1.456-2.911,2.925a.76.76,0,0,0-.252.32,1.236,1.236,0,0,0,.092.129c.076.082.156.16.235.24L63.665,374a1.152,1.152,0,0,1,.259.3,19.865,19.865,0,0,1-5.406,2.607,21.149,21.149,0,0,1-11.3.33,20.871,20.871,0,0,1-9.69-5.331,21.485,21.485,0,0,1-.664-30.28q.148-.155.3-.308a21.277,21.277,0,0,1,30.187-.015q.2.2.386.4a21.483,21.483,0,0,1,3.977,23.519A14.619,14.619,0,0,1,70.076,368.127Z" transform="translate(0 -34.081)" fill="url(#linear-gradient-3)"/>
    <path id="Path_2350" data-name="Path 2350" d="M206.978,394.654a.76.76,0,0,0-.36.168,19.578,19.578,0,0,1-3.2,1.608,13.556,13.556,0,0,1-3.169.81,16.316,16.316,0,0,1-2.973.105,10.07,10.07,0,0,1-2.977-.585,6.72,6.72,0,0,1-3.869-3.56,10,10,0,0,1-.817-2.829,15.563,15.563,0,0,1-.143-2.346q.006-7.735.009-15.468c0-.157,0-.314,0-.471a1.278,1.278,0,0,1,1.124-1.186c.1-.01.2-.008.3-.008h7.432a1.9,1.9,0,0,1,.4.02,1.349,1.349,0,0,1,.914.678.869.869,0,0,1,.116.417c0,.179.009.359.009.538q.006,6.658.013,13.316a8.631,8.631,0,0,0,.1,1.507,3.329,3.329,0,0,0,.273.9,1.487,1.487,0,0,0,1.582.883,7.1,7.1,0,0,0,1.757-.4c.136-.049.265-.116.4-.175.462-.2.925-.392,1.387-.589.123-.053.243-.113.365-.169a.264.264,0,0,0,.161-.268c0-.135,0-.269,0-.4l.006-14.526c0-.168,0-.336,0-.5A1.285,1.285,0,0,1,207,370.9c.111-.007.223-.005.335-.005h7.3c.078,0,.156,0,.234,0a1.253,1.253,0,0,1,1.229,1.215c0,.134,0,.269,0,.4q0,11.349.007,22.7c0,.146,0,.291,0,.437a1.253,1.253,0,0,1-1.2,1.175h-.167c-1.908,0-3.817,0-5.725,0a1.614,1.614,0,0,1-.86-.23,1.1,1.1,0,0,1-.441-.49c-.189-.406-.391-.805-.591-1.206C207.08,394.82,207.031,394.745,206.978,394.654Z" transform="translate(-112.586 -59.501)" fill="url(#linear-gradient-4)"/>
    <path id="Path_2351" data-name="Path 2351" d="M342.807,388.105a1.029,1.029,0,0,0,.179.052c.111.006.223.005.335.005h7.13c.134,0,.268,0,.4,0a1.32,1.32,0,0,1,1.24,1.262c0,.09,0,.179,0,.269v5.751c0,.09,0,.179,0,.269a1.288,1.288,0,0,1-1.221,1.236c-.112,0-.223,0-.335,0h-20.42c-.089,0-.179,0-.268,0a1.258,1.258,0,0,1-1.235-1.212c0-.09,0-.179,0-.269V390.4c0-.067,0-.134,0-.2a.408.408,0,0,1,.118-.3c.15-.166.294-.337.441-.506l4.63-5.313,3.351-3.845c.078-.089.182-.165.2-.284-.038-.082-.1-.078-.151-.081-.111,0-.223,0-.335,0l-6.093,0a2.3,2.3,0,0,1-.531-.047,1.227,1.227,0,0,1-.95-.977,2.388,2.388,0,0,1-.052-.567c0-1,.018-1.995.024-2.992,0-.886,0-1.771,0-2.656,0-.146.006-.291.011-.437a1.2,1.2,0,0,1,1.115-1.1c.123,0,.245-.006.368-.006H350.1c.123,0,.245.006.368.007a1.212,1.212,0,0,1,1.063.885,2.471,2.471,0,0,1,.067.532c.005,1.827,0,3.654.008,5.481a.628.628,0,0,1-.172.452q-1.436,1.6-2.864,3.2l-4.5,5.027c-.343.383-.688.765-1.03,1.15C342.975,387.889,342.91,387.977,342.807,388.105Z" transform="translate(-211.404 -59.633)" fill="url(#linear-gradient-5)"/>
    <path id="Path_2352" data-name="Path 2352" d="M288.838,381.87V370.2c0-.157,0-.314.006-.471a1.345,1.345,0,0,1,.328-.827.861.861,0,0,1,.666-.336c.078,0,.156,0,.234,0,2.009,0,4.018,0,6.028,0a2.774,2.774,0,0,1,1.614.566,2.046,2.046,0,0,1,.247.226.736.736,0,0,1,.233.572c-.008.291,0,.582,0,.873q.005,11.349.01,22.7c0,.179,0,.359-.01.537a1.333,1.333,0,0,1-.348.819.857.857,0,0,1-.674.318H290.04a1.139,1.139,0,0,1-1.2-1.077v-.018c-.017-.178-.015-.358-.015-.537V381.868Z" transform="translate(-183.15 -57.852)" fill="url(#linear-gradient-6)"/>
    <path id="Path_2353" data-name="Path 2353" d="M298.1,336.026a4.716,4.716,0,0,1-4.671,4.76h-.07a4.757,4.757,0,0,1-4.756-4.757V336a4.755,4.755,0,0,1,4.749-4.761h0a4.715,4.715,0,0,1,4.745,4.687C298.1,335.956,298.1,335.991,298.1,336.026Z" transform="translate(-182.989 -31.392)" fill="url(#linear-gradient-7)"/>
    <path id="Path_2354" data-name="Path 2354" d="M484.463,397.75h-4.818a3.252,3.252,0,0,1-.99-.136,2.748,2.748,0,0,1-1.92-2.6q-.01-1.21,0-2.42a2.728,2.728,0,0,1,2.308-2.687,4.122,4.122,0,0,1,.532-.047q4.9,0,9.8,0a2.761,2.761,0,0,1,2.052.829,2.669,2.669,0,0,1,.792,1.871c.017.828.024,1.659,0,2.487a2.722,2.722,0,0,1-2.277,2.649,4.748,4.748,0,0,1-.7.053C487.653,397.752,486.058,397.75,484.463,397.75Zm.021-1.261h4.686a3.885,3.885,0,0,0,.533-.033,1.432,1.432,0,0,0,1.066-.732,1.66,1.66,0,0,0,.213-.87V392.77c0-.045,0-.09,0-.135a1.534,1.534,0,0,0-1.489-1.52c-.078,0-.156,0-.234,0h-9.572c-.089,0-.179,0-.267.007a1.521,1.521,0,0,0-1.42,1.3,1.985,1.985,0,0,0-.021.335q0,1.058,0,2.117v.1a1.517,1.517,0,0,0,1.387,1.507c.145.013.29.016.435.016h4.687Z" transform="translate(-316.601 -72.949)" fill="url(#linear-gradient-8)"/>
    <path id="Path_2355" data-name="Path 2355" d="M426.022,397.753h-4.852a3.311,3.311,0,0,1-.925-.121A2.752,2.752,0,0,1,418.275,395q.007-1.194,0-2.387a2.735,2.735,0,0,1,2.289-2.7,3.784,3.784,0,0,1,.532-.05q4.935,0,9.871,0a2.72,2.72,0,0,1,1.465.4,2.684,2.684,0,0,1,1.328,2.279c.034.839.033,1.681,0,2.52a2.711,2.711,0,0,1-2.324,2.64,5.66,5.66,0,0,1-.667.046Q428.4,397.756,426.022,397.753Zm.006-6.639h-4.686c-.112,0-.223,0-.335,0a1.561,1.561,0,0,0-.951.366,1.51,1.51,0,0,0-.537,1.184c0,.616,0,1.233,0,1.849,0,.168,0,.337,0,.5a1.5,1.5,0,0,0,1.3,1.442,2.865,2.865,0,0,0,.4.029q4.8,0,9.606,0a2.268,2.268,0,0,0,.465-.042,1.448,1.448,0,0,0,1.176-1.146,2.339,2.339,0,0,0,.052-.533c.006-.64,0-1.277,0-1.916,0-.09,0-.179-.006-.269a1.534,1.534,0,0,0-1.507-1.468c-.111-.006-.223,0-.335,0Z" transform="translate(-275.086 -72.951)" fill="url(#linear-gradient-9)"/>
    <path id="Path_2356" data-name="Path 2356" d="M542.91,397.749h-4.821a3.174,3.174,0,0,1-1.021-.15,2.753,2.753,0,0,1-1.875-2.568c-.009-.818-.015-1.637,0-2.455a2.717,2.717,0,0,1,2.3-2.667,4.476,4.476,0,0,1,.565-.049q4.888,0,9.775,0a2.79,2.79,0,0,1,2.056.824,2.715,2.715,0,0,1,.637,1.016,1.447,1.447,0,0,1,.1.491q0,1.6,0,3.193a1.475,1.475,0,0,1-.112.556,2.681,2.681,0,0,1-2.115,1.755,3.788,3.788,0,0,1-.667.052Q545.32,397.753,542.91,397.749Zm.031-6.639h-4.82a1.974,1.974,0,0,0-.659.094,1.513,1.513,0,0,0-1.025,1.433c-.01.448,0,.9,0,1.345,0,.336-.008.673,0,1.008a1.506,1.506,0,0,0,1.342,1.477,2.858,2.858,0,0,0,.367.021q4.786,0,9.572,0a3.009,3.009,0,0,0,.466-.036,1.466,1.466,0,0,0,1.2-1.124,2.4,2.4,0,0,0,.055-.5c.007-.627,0-1.255,0-1.883,0-.1,0-.2,0-.3a1.533,1.533,0,0,0-1.478-1.529c-.111-.008-.224,0-.335,0Z" transform="translate(-358.116 -72.947)" fill="url(#linear-gradient-10)"/>
    <path id="Path_2357" data-name="Path 2357" d="M547.528,430.413a.657.657,0,0,0,.145.052,2.151,2.151,0,0,0,.267.011h5.688a.591.591,0,0,0,.419-.073,1.043,1.043,0,0,0,.036-.431q0-4.454,0-8.908a2.579,2.579,0,0,1,.01-.369.622.622,0,0,1,.907-.48.565.565,0,0,1,.324.477c.008.1.008.2.008.3q0,4.941,0,9.883c0,.09,0,.179,0,.269a.61.61,0,0,1-.58.585c-.078.006-.156,0-.234,0h-7.5a1.706,1.706,0,0,1-.267-.01.6.6,0,0,1-.515-.54c0-.1-.007-.2-.007-.3q0-4.941,0-9.882c0-.1,0-.2.008-.3a.6.6,0,0,1,.507-.548.62.62,0,0,1,.66.352.975.975,0,0,1,.07.291,3.008,3.008,0,0,1,.005.336q0,4.42,0,8.84a1.087,1.087,0,0,0,.041.443Z" transform="translate(-365.963 -94.418)" fill="url(#linear-gradient-11)"/>
    <path id="Path_2358" data-name="Path 2358" d="M489.058,430.418a1.116,1.116,0,0,0,.181.05,2.409,2.409,0,0,0,.268.006h5.622a.9.9,0,0,0,.444-.056,1.245,1.245,0,0,0,.038-.183c.007-.112,0-.224,0-.336q0-4.421,0-8.841a2.527,2.527,0,0,1,.01-.369.62.62,0,0,1,.966-.437.558.558,0,0,1,.265.445c.007.123.009.246.009.37q0,4.874,0,9.748c0,.112,0,.224-.007.336a.606.606,0,0,1-.585.579c-.078.007-.156,0-.234,0h-7.463c-.089,0-.179,0-.267-.005a.606.606,0,0,1-.542-.55c-.005-.1-.009-.2-.009-.3q0-4.941,0-9.882a2.917,2.917,0,0,1,.009-.3.6.6,0,0,1,.511-.543.622.622,0,0,1,.643.328,1.057,1.057,0,0,1,.083.32,2.7,2.7,0,0,1,0,.336q0,4.42,0,8.84a.97.97,0,0,0,.046.446Z" transform="translate(-324.433 -94.416)" fill="url(#linear-gradient-12)"/>
    <path id="Path_2359" data-name="Path 2359" d="M430.58,430.409a.678.678,0,0,0,.145.051,2.152,2.152,0,0,0,.267.01h5.689a.594.594,0,0,0,.42-.072,1.006,1.006,0,0,0,.037-.43q0-4.454,0-8.908a2.859,2.859,0,0,1,.008-.369.621.621,0,0,1,.99-.426.556.556,0,0,1,.241.423c.007.112.008.224.008.336q0,4.908,0,9.815c0,.1,0,.2-.005.3a.607.607,0,0,1-.58.585c-.077.007-.156,0-.234,0h-7.5a2.2,2.2,0,0,1-.234-.005.6.6,0,0,1-.546-.545,2.493,2.493,0,0,1-.012-.3q0-4.941,0-9.883c0-.1.006-.2.01-.3a.6.6,0,0,1,.54-.553.615.615,0,0,1,.64.388,1.1,1.1,0,0,1,.058.294c.01.111,0,.224,0,.336q0,4.4,0,8.807a1.062,1.062,0,0,0,.042.444Z" transform="translate(-282.902 -94.413)" fill="url(#linear-gradient-13)"/>
    <path id="Path_2360" data-name="Path 2360" d="M140.394,296.376a1.422,1.422,0,0,1-.042-.194c-.006-.1,0-.2,0-.3,0-1.232,0-2.465,0-3.7.009-1.6.025-3.2.04-4.806,0-.357.031-.389.379-.389q2.292,0,4.585,0h.067c.267.012.3.044.306.32,0,.3,0,.605,0,.908,0,.17-.053.211-.226.22-.089,0-.179,0-.268,0h-2.644c-.406,0-.417.012-.418.41q0,.824,0,1.647c0,.045,0,.09,0,.134.012.23.044.27.284.271.792.005,1.584,0,2.376,0,.1,0,.2,0,.3,0,.136.008.188.051.191.182q.01.538,0,1.075c0,.112-.055.157-.171.166-.089.007-.178.006-.267.006h-2.242c-.132,0-.265.008-.406.012a.817.817,0,0,0-.06.2c0,.728,0,1.456,0,2.183a.357.357,0,0,0,.024.091.331.331,0,0,0,.282.086c.245,0,.491,0,.736,0h2.042c.133,0,.265.01.406.016a1,1,0,0,1,.065.2,4.779,4.779,0,0,1-.049,1.21.667.667,0,0,1-.351.042c-.636,0-1.272,0-1.908,0h-2.644C140.667,296.386,140.546,296.381,140.394,296.376Z" transform="translate(-77.697 -0.023)" fill="url(#linear-gradient-14)"/>
    <path id="Path_2361" data-name="Path 2361" d="M56.216,292.351a.552.552,0,0,0-.087.364q0,.908,0,1.815c0,.362.025.385.378.387.927,0,1.852,0,2.778,0a.75.75,0,0,1,.383.046,4.808,4.808,0,0,1,0,1.383.736.736,0,0,1-.352.037q-1.272,0-2.543,0H54.735a.79.79,0,0,1-.377-.045,1.514,1.514,0,0,1-.031-.187c-.006-.112,0-.224,0-.336q.006-4.185.013-8.369c0-.46,0-.461.468-.461h4.451c.455,0,.455,0,.455.473,0,.257,0,.516,0,.773,0,.154-.049.194-.205.2-.089.006-.178,0-.268,0H56.457c-.3.008-.34.038-.342.323,0,.616,0,1.232.008,1.849a1.218,1.218,0,0,0,.048.238.841.841,0,0,0,.422.054c.77,0,1.539,0,2.309,0,.409,0,.409,0,.411.4,0,.269,0,.538,0,.807,0,.175-.045.211-.222.219-.078,0-.156,0-.234,0H56.581C56.458,292.339,56.337,292.346,56.216,292.351Z" transform="translate(-16.602 -0.023)" fill="url(#linear-gradient-15)"/>
    <path id="Path_2362" data-name="Path 2362" d="M455.178,334.491c.039-.789.08-1.606.121-2.422,0-.09.008-.179.012-.269.029-.526.044-1.052.087-1.577.033-.4.1-.8.154-1.2q.121-.915.242-1.831c.076-.566.154-1.131.229-1.7l.174-1.332c.075-.566.153-1.131.229-1.7l.174-1.332c.052-.4.107-.8.159-1.2l.174-1.332c.054-.41.112-.82.163-1.231a.918.918,0,0,0-.6-.979.893.893,0,0,0-1.133.561,2.142,2.142,0,0,0-.068.295c-.1.6-.192,1.194-.29,1.79-.018.11-.037.221-.062.33a.6.6,0,0,1-.681.518l-.056-.01a.6.6,0,0,1-.453-.711v0c.08-.542.169-1.084.255-1.625.032-.2.068-.4.1-.6a2,2,0,0,1,1.518-1.736,2.064,2.064,0,0,1,2.586,1.366c.011.035.021.07.029.106a2.178,2.178,0,0,1,.058.632c-.015.346-.058.691-.1,1.035-.079.633-.167,1.264-.252,1.9-.081.6-.164,1.2-.243,1.8s-.148,1.177-.226,1.765c-.1.754-.2,1.508-.3,2.262-.077.577-.149,1.154-.225,1.731-.08.611-.168,1.219-.241,1.831-.058.478-.112.957-.141,1.437-.042.693-.061,1.388-.087,2.081-.025.626-.046,1.254-.073,1.88a1.034,1.034,0,0,1-.054.295.6.6,0,0,1-.659.4.581.581,0,0,1-.518-.568C455.168,334.945,455.178,334.731,455.178,334.491Z" transform="translate(-300.274 -19.964)" fill="url(#linear-gradient-16)"/>
    <path id="Path_2363" data-name="Path 2363" d="M547.724,357.739c.29,0,.58-.012.869,0a6.362,6.362,0,0,1,2.4.539,3.668,3.668,0,0,1,1.483,1.172,3.2,3.2,0,0,1,.587,1.586c.054.534.119,1.068.178,1.6.052.479.1.957.154,1.436.037.345.073.69.114,1.035a.839.839,0,0,1-.029.43.625.625,0,0,1-.6.405.609.609,0,0,1-.573-.482,3.489,3.489,0,0,1-.06-.4c-.054-.512-.1-1.025-.156-1.537s-.116-1.046-.174-1.569c-.029-.267-.061-.534-.084-.8a1.912,1.912,0,0,0-.8-1.416,3.419,3.419,0,0,0-1.173-.558,5.811,5.811,0,0,0-1.586-.214c-.458,0-.915-.008-1.373.006a5.2,5.2,0,0,0-1.918.419,2.582,2.582,0,0,0-.919.658,1.744,1.744,0,0,0-.445.925c-.049.354-.087.711-.124,1.067-.065.611-.127,1.225-.189,1.837-.05.49-.1.98-.148,1.47a.611.611,0,0,1-.885.526.626.626,0,0,1-.345-.484.908.908,0,0,1,0-.2c.051-.49.1-.98.156-1.469.058-.545.113-1.091.171-1.637.047-.445.074-.894.148-1.335a3.105,3.105,0,0,1,1.164-1.943,4.45,4.45,0,0,1,1.573-.8,6.753,6.753,0,0,1,1.88-.278h.7Z" transform="translate(-362.904 -50.176)" fill="url(#linear-gradient-17)"/>
    <path id="Path_2364" data-name="Path 2364" d="M495.3,365.242a.63.63,0,0,1-.252.566.624.624,0,0,1-.612.075.582.582,0,0,1-.362-.488c-.049-.378-.091-.757-.132-1.135q-.1-.867-.187-1.736c-.049-.456-.106-.912-.145-1.368a1.923,1.923,0,0,0-.795-1.419,3.39,3.39,0,0,0-1.172-.56,5.8,5.8,0,0,0-1.586-.215c-.458,0-.915-.008-1.372.005a5.231,5.231,0,0,0-1.918.416,2.58,2.58,0,0,0-.9.631,1.767,1.767,0,0,0-.479,1.014c-.045.4-.087.8-.13,1.2l-.174,1.636c-.052.5-.1,1-.157,1.5a.6.6,0,0,1-.342.5.62.62,0,0,1-.886-.515.852.852,0,0,1,0-.168c.055-.5.113-1,.165-1.5.058-.546.106-1.092.162-1.637.046-.445.073-.895.153-1.334a3.129,3.129,0,0,1,1.181-1.933,4.649,4.649,0,0,1,1.805-.847,6.7,6.7,0,0,1,1.588-.208c.525,0,1.05-.014,1.573,0a6.414,6.414,0,0,1,2.405.522,3.922,3.922,0,0,1,1.066.686,3.136,3.136,0,0,1,1.037,2.083c.052.535.118,1.068.177,1.6.051.467.1.935.152,1.4q.06.551.121,1.1C495.291,365.175,495.3,365.22,495.3,365.242Z" transform="translate(-321.548 -50.167)" fill="url(#linear-gradient-18)"/>
    <path id="Path_2365" data-name="Path 2365" d="M116.112,296.408a9.949,9.949,0,0,1-1.735-.011,1.2,1.2,0,0,1-.037-.182c-.007-.112,0-.224,0-.336q.006-3.428.011-6.855c0-.123,0-.246-.013-.369a.156.156,0,0,0-.152-.151c-.1-.009-.2-.012-.3-.012h-1.539c-.078,0-.156,0-.234,0-.208-.01-.247-.045-.253-.266s0-.471,0-.706a2.989,2.989,0,0,1,.012-.3.152.152,0,0,1,.153-.149,2.144,2.144,0,0,1,.234-.008h6.022c.369,0,.374.006.377.375,0,.235,0,.47,0,.706,0,.34-.012.349-.365.349-.547,0-1.093,0-1.639,0-.089,0-.179,0-.268,0-.182.011-.23.058-.248.246a1.867,1.867,0,0,0-.006.2q.009,1.663.018,3.327.011,1.9.024,3.8A.575.575,0,0,1,116.112,296.408Z" transform="translate(-57.461 -0.076)" fill="url(#linear-gradient-19)"/>
    <path id="Path_2366" data-name="Path 2366" d="M80.933,294.921a.849.849,0,0,0,.441.064c.747,0,1.494,0,2.241,0a.566.566,0,0,1,.352.05,4.955,4.955,0,0,1,0,1.347.653.653,0,0,1-.35.042q-1.355,0-2.71,0h-1.44c-.109,0-.218-.011-.338-.017a2.105,2.105,0,0,1-.04-.212c-.006-.078,0-.157,0-.235q0-4.25.01-8.5c0-.413,0-.414.4-.416q.485,0,.97,0a2.24,2.24,0,0,1,.234.008.161.161,0,0,1,.158.146,1.842,1.842,0,0,1,.015.233c.013,1.31.029,2.62.038,3.93.007,1.053,0,2.105.006,3.158C80.917,294.657,80.928,294.787,80.933,294.921Z" transform="translate(-34.186 -0.065)" fill="url(#linear-gradient-20)"/>
    <path id="Path_2367" data-name="Path 2367" d="M496.038,291.552c.119.128.207.228.3.322q.969.976,1.94,1.95a2.09,2.09,0,0,1,.227.247.588.588,0,0,1,.123.473.617.617,0,0,1-.991.378,2.239,2.239,0,0,1-.219-.207l-1.965-1.972a.9.9,0,0,0-.315-.256.81.81,0,0,0-.307.246q-.985.985-1.965,1.972a2.437,2.437,0,0,1-.218.208.615.615,0,0,1-1-.355.593.593,0,0,1,.132-.5,2.376,2.376,0,0,1,.229-.245l1.94-1.95a.867.867,0,0,0,.252-.314.818.818,0,0,0-.248-.311q-.98-.99-1.963-1.975a2.05,2.05,0,0,1-.226-.247.614.614,0,0,1,.326-.969.514.514,0,0,1,.359.017,1.128,1.128,0,0,1,.372.279l1.989,2c.094.094.194.182.277.26.169-.006.238-.12.322-.2.42-.417.837-.839,1.255-1.258.268-.269.536-.54.806-.807a1.53,1.53,0,0,1,.227-.2.6.6,0,0,1,.738.053.609.609,0,0,1,.133.731,1.253,1.253,0,0,1-.227.288q-.777.789-1.561,1.57c-.174.175-.348.347-.52.524C496.191,291.368,496.13,291.446,496.038,291.552Z" transform="translate(-327.187 -0.757)" fill="url(#linear-gradient-21)"/>
    <path id="Path_2368" data-name="Path 2368" d="M553.383,292.469a.873.873,0,0,0-.352.268q-.985.984-1.965,1.971a1.9,1.9,0,0,1-.246.226.607.607,0,0,1-.807-.078.614.614,0,0,1-.014-.814,2.154,2.154,0,0,1,.206-.22l1.963-1.973a.812.812,0,0,0,.247-.311.883.883,0,0,0-.253-.314q-1-1.012-2.011-2.02a1,1,0,0,1-.279-.41.567.567,0,0,1,.174-.609.535.535,0,0,1,.646-.109,1.518,1.518,0,0,1,.341.265c.667.662,1.326,1.329,1.99,1.994.094.094.194.181.277.259.169-.008.238-.121.322-.206q1-.995,1.988-2a2.344,2.344,0,0,1,.271-.249.553.553,0,0,1,.5-.109.627.627,0,0,1,.435.771.636.636,0,0,1-.1.2,2.042,2.042,0,0,1-.227.246l-1.962,1.973a.819.819,0,0,0-.249.313.862.862,0,0,0,.25.312q.968.976,1.939,1.95c.063.063.126.127.188.192a.653.653,0,0,1,.139.658.484.484,0,0,1-.365.359.649.649,0,0,1-.653-.151l-.19-.189q-.956-.963-1.915-1.926C553.583,292.652,553.482,292.565,553.383,292.469Z" transform="translate(-368.527 -0.751)" fill="url(#linear-gradient-22)"/>
    <path id="Path_2369" data-name="Path 2369" d="M438.629,338.341a3.232,3.232,0,0,1-3.252-3.212v-.046a3.24,3.24,0,1,1,3.252,3.258Zm-2.021-3.231a1.987,1.987,0,0,0,1.964,2.009h.035a1.981,1.981,0,0,0,2.025-1.937q0-.04,0-.08a2,2,0,0,0-1.979-2.029h-.037a2.033,2.033,0,0,0-2.009,2.038Z" transform="translate(-287.232 -31.814)" fill="url(#linear-gradient-23)"/>
    <path id="Path_2370" data-name="Path 2370" d="M495.769,332.515a3.188,3.188,0,0,1,3.253,3.123v.131a3.224,3.224,0,0,1-3.2,3.245h-.039a3.234,3.234,0,0,1-3.237-3.231v-.054a3.189,3.189,0,0,1,3.164-3.213Zm.025,5.261a2.006,2.006,0,0,0,2-2.009v-.042a1.991,1.991,0,0,0-1.989-1.994h-.04a1.992,1.992,0,0,0-2,1.979v.037a2.007,2.007,0,0,0,1.985,2.028h.044Z" transform="translate(-327.832 -32.298)" fill="url(#linear-gradient-24)"/>
    <path id="Path_2371" data-name="Path 2371" d="M553.986,338.981a3.215,3.215,0,0,1-3.225-3.2v-.056a3.234,3.234,0,0,1,3.219-3.248h.052a3.254,3.254,0,0,1,.046,6.508Zm.01-1.234a2.033,2.033,0,0,0,2.027-2.025,2.011,2.011,0,0,0-2-2.02h-.029a1.988,1.988,0,0,0-2.005,1.972v.037a2.019,2.019,0,0,0,2,2.036H554Z" transform="translate(-369.179 -32.268)" fill="url(#linear-gradient-25)"/>
    <path id="Path_2372" data-name="Path 2372" d="M102.283,296.4a9.345,9.345,0,0,1-1.71-.014,1.362,1.362,0,0,1-.036-.181c-.007-.089,0-.179,0-.268q.006-4.231.014-8.461c0-.423,0-.424.427-.424.368,0,.735,0,1.1,0,.193,0,.227.045.239.243,0,.056,0,.112,0,.168q.01,4.247.018,8.495A.916.916,0,0,1,102.283,296.4Z" transform="translate(-49.421 -0.071)" fill="url(#linear-gradient-26)"/>
    <path id="Path_2373" data-name="Path 2373" d="M431.612,357.739c.112,0,.223-.006.334,0a.614.614,0,0,1,.068,1.219,1.94,1.94,0,0,1-.334.014,5.544,5.544,0,0,0-1.832.339,3.193,3.193,0,0,0-.765.408,2,2,0,0,0-.846,1.5c-.082.823-.17,1.647-.254,2.47-.053.524-.1,1.048-.154,1.57a1.14,1.14,0,0,1-.073.324.6.6,0,0,1-.656.354.591.591,0,0,1-.505-.581,2.271,2.271,0,0,1,.01-.335c.056-.534.118-1.067.174-1.6s.1-1.069.158-1.6c.036-.345.07-.69.123-1.032a3.119,3.119,0,0,1,1.328-2.094,4.839,4.839,0,0,1,1.931-.805A6.2,6.2,0,0,1,431.612,357.739Z" transform="translate(-280.993 -50.178)" fill="url(#linear-gradient-27)"/>
    <path id="Path_2374" data-name="Path 2374" d="M551.782,373.627c.044-.534.089-1.046.129-1.559.034-.435.058-.87.094-1.305a1.843,1.843,0,0,1,.07-.428.6.6,0,0,1,1.163.16,6.656,6.656,0,0,1-.023.7c-.032.446-.075.892-.108,1.339-.031.413-.052.826-.083,1.239a2.311,2.311,0,0,1-.056.365.593.593,0,0,1-.618.458.581.581,0,0,1-.567-.556C551.778,373.9,551.782,373.752,551.782,373.627Z" transform="translate(-369.903 -58.832)" fill="url(#linear-gradient-28)"/>
    <path id="Path_2375" data-name="Path 2375" d="M437.823,370.693c-.025.378-.047.76-.075,1.139q-.058.77-.12,1.54c-.018.223-.036.447-.063.67a.606.606,0,0,1-.6.561.631.631,0,0,1-.622-.588,1.266,1.266,0,0,1,0-.2q.028-.385.058-.77c.036-.424.075-.847.109-1.271.029-.368.055-.737.082-1.106,0-.056,0-.112.01-.168a.614.614,0,0,1,1.225.06c0,.045,0,.09,0,.134Z" transform="translate(-287.914 -58.832)" fill="url(#linear-gradient-29)"/>
    <path id="Path_2376" data-name="Path 2376" d="M493.56,373.657c.043-.519.087-1.021.125-1.522.034-.446.06-.893.1-1.339a2.263,2.263,0,0,1,.064-.43.6.6,0,0,1,1.171.133,7.134,7.134,0,0,1-.023.738c-.029.424-.074.846-.106,1.27s-.053.848-.085,1.272a2.237,2.237,0,0,1-.058.364.594.594,0,0,1-.619.456.581.581,0,0,1-.565-.558C493.557,373.908,493.56,373.774,493.56,373.657Z" transform="translate(-328.553 -58.834)" fill="url(#linear-gradient-30)"/>
    <path id="Path_2377" data-name="Path 2377" d="M568.389,373.641c0,.162.008.275,0,.385a.586.586,0,0,1-.514.531.6.6,0,0,1-.658-.4,1.457,1.457,0,0,1-.063-.328c-.054-.645-.1-1.291-.153-1.936-.031-.378-.072-.757-.109-1.133a.853.853,0,0,1,.05-.46.6.6,0,0,1,.656-.349.593.593,0,0,1,.508.5c.027.176.047.355.061.532.053.645.1,1.291.154,1.936C568.34,373.181,568.368,373.435,568.389,373.641Z" transform="translate(-380.625 -58.831)" fill="url(#linear-gradient-31)"/>
    <path id="Path_2378" data-name="Path 2378" d="M510.179,373.7c0,.087.007.2,0,.311a.588.588,0,0,1-.508.539.6.6,0,0,1-.672-.426,1.59,1.59,0,0,1-.055-.3c-.029-.346-.053-.692-.082-1.038-.034-.413-.073-.825-.109-1.238-.029-.323-.066-.647-.08-.97a.614.614,0,0,1,1.162-.308.571.571,0,0,1,.058.19c.029.245.049.49.071.735.036.4.074.8.108,1.2C510.109,372.829,510.142,373.253,510.179,373.7Z" transform="translate(-339.287 -58.827)" fill="url(#linear-gradient-32)"/>
  </g>
</svg>
