<svg xmlns="http://www.w3.org/2000/svg" width="90" height="90" viewBox="0 0 90 90">
  <g id="math_maria" data-name="math maria" transform="translate(935 -2805)">
    <rect id="Rectangle_312" data-name="Rectangle 312" width="90" height="90" transform="translate(-935 2805)" fill="none"/>
    <path id="Icon_awesome-calculator" data-name="Icon awesome-calculator" d="M70.892,0H8.507A8.687,8.687,0,0,0,0,8.437V81.563A8.687,8.687,0,0,0,8.507,90H70.892A8.687,8.687,0,0,0,79.4,81.563V8.437A8.687,8.687,0,0,0,70.892,0ZM22.685,76.5a2.43,2.43,0,0,1-2.269,2.25H13.611a2.43,2.43,0,0,1-2.269-2.25V69.75a2.43,2.43,0,0,1,2.269-2.25h6.806a2.43,2.43,0,0,1,2.269,2.25Zm0-22.5a2.43,2.43,0,0,1-2.269,2.25H13.611A2.43,2.43,0,0,1,11.343,54V47.25A2.43,2.43,0,0,1,13.611,45h6.806a2.43,2.43,0,0,1,2.269,2.25ZM45.371,76.5A2.43,2.43,0,0,1,43.1,78.75H36.3a2.43,2.43,0,0,1-2.269-2.25V69.75A2.43,2.43,0,0,1,36.3,67.5H43.1a2.43,2.43,0,0,1,2.269,2.25Zm0-22.5A2.43,2.43,0,0,1,43.1,56.25H36.3A2.43,2.43,0,0,1,34.028,54V47.25A2.43,2.43,0,0,1,36.3,45H43.1a2.43,2.43,0,0,1,2.269,2.25ZM68.056,76.5a2.43,2.43,0,0,1-2.269,2.25H58.982a2.43,2.43,0,0,1-2.269-2.25V47.25A2.43,2.43,0,0,1,58.982,45h6.806a2.43,2.43,0,0,1,2.269,2.25Zm0-45a2.43,2.43,0,0,1-2.269,2.25H13.611a2.43,2.43,0,0,1-2.269-2.25v-18a2.43,2.43,0,0,1,2.269-2.25H65.788a2.43,2.43,0,0,1,2.269,2.25Z" transform="translate(-929.7 2805)" fill="#ef5388"/>
  </g>
</svg>
