<svg xmlns="http://www.w3.org/2000/svg" width="90" height="90" viewBox="0 0 90 90">
  <g id="bettale_gruop" transform="translate(0.06)">
    <rect id="Rectangle_52" data-name="Rectangle 52" width="90" height="90" transform="translate(-0.06)" fill="none"/>
    <path id="Path_88" data-name="Path 88" d="M89.865,17.755c-1.849,1.658-3.721,3.3-5.554,4.973Q65.974,39.426,47.662,56.14q-6.586,6-13.157,12.017c-.151.135-.271.295-.446.478.773,1,1.474,1.928,2.972,1.761,1.243-.135,2.51,0,3.769-.032.645-.016.877.231.861.877-.04,1.227-.024,2.462,0,3.69.008.558-.191.8-.757.8-2.255-.016-4.5.016-6.758-.032a1.667,1.667,0,0,1-1.06-.478Q23.978,66.133,14.918,57a1.932,1.932,0,0,1-.51-1.219c-.048-2.168,0-4.335-.032-6.5-.008-.725.239-.988.964-.964q1.709.072,3.419,0c.709-.032.924.255.9.924-.032,1.14.1,2.3-.032,3.427-.183,1.546.59,2.462,1.793,3.307.741-.8,1.5-1.61,2.239-2.43q12.252-13.483,24.5-26.974Q59.846,13.706,71.528.837c.231-.255.414-.558.622-.837H86.008c-.287.327-.558.677-.869.98Q55.913,30.29,26.672,59.591c-.279.279-.542.59-.717.781L29.764,64.2a9.014,9.014,0,0,1,.765-1Q59.706,33.971,88.9,4.749c.311-.311.645-.59.972-.885v13.89Z" fill="#ef5488"/>
    <path id="Path_89" data-name="Path 89" d="M17.763,0c1.466,1.665,2.917,3.355,4.407,5Q31.457,15.24,40.784,25.444c.478.518.51.853.016,1.379-1.618,1.729-3.188,3.5-4.845,5.331-.279-.247-.518-.446-.733-.661Q19.862,16.121,4.518.733C4.3.51,4.1.247,3.9,0Z" fill="#ef5488"/>
    <path id="Path_90" data-name="Path 90" d="M10.216,90c-.223-.263-.422-.55-.669-.8Q5.184,84.816.813,80.453a6.569,6.569,0,0,0-.8-.59c.287-.359.414-.55.574-.709C2.128,77.6,3.69,76.063,5.22,74.493c.422-.438.709-.55,1.2-.056q4.554,4.626,9.164,9.188c.438.438.422.709-.008,1.14-1.745,1.729-3.458,3.482-5.18,5.236h-.175Z" fill="#ef5488"/>
    <path id="Path_91" data-name="Path 91" d="M32.154,36.33c-1.562,1.721-3.243,3.578-4.941,5.435-.406.446-.685.04-.948-.191-1.482-1.331-2.948-2.67-4.415-4.016Q11.248,27.9.661,18.217a1.738,1.738,0,0,1-.59-1.084C.032,12.917.048,8.7.048,4.486a1.229,1.229,0,0,1,.048-.3L32.146,36.33Z" fill="#ef5488"/>
    <path id="Path_92" data-name="Path 92" d="M53.837,57.647q3.3,3.335,6.367,6.423c1.267-1.283,2.462-2.494,3.769-3.8-1.992-1.952-4.088-4.008-6.264-6.144,1.626-1.482,3.124-2.869,4.662-4.2.12-.1.645.08.829.279,1.538,1.642,3.044,3.315,4.558,4.988.231.255.47.51.741.8,1.044-.821,1.968-1.554,1.8-3.084-.135-1.243-.016-2.518-.032-3.777,0-.526.135-.821.741-.8,1.259.032,2.51.024,3.769,0,.582-.008.765.255.757.8-.008,2.255.016,4.51-.024,6.766a1.665,1.665,0,0,1-.454,1.068q-9.084,9.156-18.225,18.265a1.857,1.857,0,0,1-1.148.478c-2.191.048-4.383,0-6.574.032-.645,0-.877-.239-.861-.877.04-1.2.048-2.4,0-3.6-.032-.725.295-.9.94-.885,1.227.032,2.462-.1,3.682.032,1.49.159,2.207-.749,3.02-1.793-2.327-2.136-4.622-4.239-7.013-6.423,1.673-1.53,3.267-2.98,4.957-4.526Z" fill="#ef5488"/>
    <path id="Path_93" data-name="Path 93" d="M84.119,73.951c1.817,1.817,3.594,3.586,5.363,5.363.43.438,0,.677-.255.924q-3.18,3.2-6.375,6.4c-.932.932-1.873,1.849-2.781,2.8-.4.414-.677.406-1.076,0q-2.331-2.379-4.7-4.718c-.351-.343-.462-.606-.056-1.012,3.172-3.148,6.327-6.319,9.491-9.483a4.171,4.171,0,0,1,.39-.279Z" fill="#ef5488"/>
    <path id="Path_94" data-name="Path 94" d="M14.926,64.795c3.427,3.443,6.805,6.829,10.264,10.3-.518.518-1.124,1.132-1.729,1.745-1.012,1.012-2.04,2.016-3.028,3.044-.4.414-.685.5-1.132.04-3.06-3.1-6.144-6.168-9.2-9.268-.175-.175-.279-.709-.159-.829,1.658-1.721,3.355-3.4,4.988-5.036Z" fill="#ef5488"/>
    <path id="Path_95" data-name="Path 95" d="M64.635,75.162,74.851,64.946q2.51,2.546,5.275,5.347a4.639,4.639,0,0,1-.43.5c-3,3-6,6-8.981,9.021-.5.51-.813.55-1.331.016-1.578-1.61-3.2-3.156-4.749-4.67Z" fill="#ef5488"/>
  </g>
</svg>
