<svg id="quizzone" xmlns="http://www.w3.org/2000/svg" width="90" height="90" viewBox="0 0 90 90">
  <rect id="Rectangle_47" data-name="Rectangle 47" width="90" height="90" transform="translate(0 0)" fill="none"/>
  <path id="Path_59" data-name="Path 59" d="M78.227,22.409V67.423c-.212.141-.424.291-.644.416Q73.8,70.032,70,72.224,59.746,78.14,49.493,84.065,44.366,87.023,39.255,90h-.283c-.157-.094-.314-.2-.479-.291Q30.3,84.988,22.11,80.254,11.468,74.1.809,67.965A1.458,1.458,0,0,1,0,66.559Q.024,44.932,0,23.312a1.421,1.421,0,0,1,.8-1.4c4.463-2.554,8.9-5.139,13.349-7.708Q26.231,7.24,38.3.259a1.441,1.441,0,0,1,1.658.016C46.091,3.85,52.243,7.386,58.4,10.937Q68.319,16.665,78.227,22.409ZM20.185,28.153H17.168A3.2,3.2,0,0,0,14.112,30a1.846,1.846,0,0,1-.9.833,15.009,15.009,0,0,0-5.256,4.117A14.7,14.7,0,0,0,4.62,45.776a14.336,14.336,0,0,0,5.3,10.23c4.6,3.756,9.759,4.463,15.345,2.491a54.657,54.657,0,0,1,5.586-1.6,40.551,40.551,0,0,1,9.405-.731A36.53,36.53,0,0,1,53,58.5a15.642,15.642,0,0,0,7.433.927,15.006,15.006,0,0,0,13.074-17A14.8,14.8,0,0,0,65,30.832,1.9,1.9,0,0,1,64.107,30a3.214,3.214,0,0,0-3.064-1.846c-2.035,0-4.062-.008-6.1,0a3.162,3.162,0,0,0-3.119,2.169,1.1,1.1,0,0,1-.817.77c-1.587.385-3.166.841-4.769,1.139a43.017,43.017,0,0,1-10.537.464,38.2,38.2,0,0,1-8.454-1.571,1.2,1.2,0,0,1-.888-.786,3.158,3.158,0,0,0-3.182-2.169c-1.006-.008-2.011,0-3.017,0Z" transform="translate(5.887 -0.005)" fill="#ef5488"/>
  <path id="Path_60" data-name="Path 60" d="M19.439,51.033a1.7,1.7,0,0,1-1.8-1.666c-.024-.416,0-.841-.031-1.257a1.822,1.822,0,0,0-1.815-1.925c-.44-.055-.888-.031-1.328-.055a1.781,1.781,0,0,1-.016-3.559c.236-.016.464,0,.7-.008,1.854-.016,2.459-.636,2.475-2.506,0-.236,0-.471.008-.7a1.778,1.778,0,0,1,3.551.016c.024.44,0,.888.039,1.328a1.831,1.831,0,0,0,1.839,1.839c.44.039.888.008,1.328.031a1.774,1.774,0,0,1,.016,3.544c-.3.016-.605,0-.911.008-1.6.031-2.263.691-2.294,2.271,0,.33.008.652-.016.982a1.684,1.684,0,0,1-1.744,1.642Z" transform="translate(5.887 -0.005)" fill="#ef5488"/>
  <path id="Path_61" data-name="Path 61" d="M64.752,46.271a2.011,2.011,0,0,1-2.011-2.059,2.04,2.04,0,0,1,2.106-2.051,2.051,2.051,0,1,1-.094,4.1Z" transform="translate(5.887 -0.005)" fill="#ef5488"/>
  <path id="Path_62" data-name="Path 62" d="M60.171,41.643a1.928,1.928,0,0,1-2.019-2.027,2.051,2.051,0,1,1,2.027,2.027Z" transform="translate(5.887 -0.005)" fill="#ef5488"/>
  <path id="Path_63" data-name="Path 63" d="M55.551,46.271a1.972,1.972,0,0,1-2.019-2.043,2,2,0,0,1,2.019-2.059,2.051,2.051,0,1,1,0,4.1Z" transform="translate(5.887 -0.005)" fill="#ef5488"/>
  <path id="Path_64" data-name="Path 64" d="M58.151,48.825a1.963,1.963,0,0,1,2.027-2.035,2.051,2.051,0,1,1-.024,4.1,1.967,1.967,0,0,1-2-2.059Z" transform="translate(5.887 -0.005)" fill="#ef5488"/>
  <path id="Path_65" data-name="Path 65" d="M32.851,45.14a.937.937,0,0,1-.88-1.485,18.93,18.93,0,0,1,2.31-2.318.843.843,0,0,1,1.155.118.82.82,0,0,1,.181,1.139c-.746.849-1.579,1.634-2.389,2.428-.1.1-.306.094-.377.11Z" transform="translate(5.887 -0.005)" fill="#ef5488"/>
  <path id="Path_66" data-name="Path 66" d="M43.325,45.2a3.349,3.349,0,0,1-.7-.55.782.782,0,0,1,.063-1.037c.707-.746,1.422-1.477,2.176-2.176a.961.961,0,0,1,1.446,1.234c-.746.825-1.556,1.6-2.365,2.365-.1.094-.306.086-.613.165Z" transform="translate(5.887 -0.005)" fill="#ef5488"/>
</svg>
