<svg xmlns="http://www.w3.org/2000/svg" width="90" height="90" viewBox="0 0 90 90">
  <g id="challenge" transform="translate(0.016)">
    <rect id="Rectangle_54" data-name="Rectangle 54" width="90" height="90" transform="translate(-0.016)" fill="none"/>
    <path id="Path_81" data-name="Path 81" d="M46.22,0a3.788,3.788,0,0,0,.734.176A42.6,42.6,0,0,1,62.262,3.558c.3.124.59.248.889.372a1.187,1.187,0,0,1,.2.155,6.334,6.334,0,0,1-.424.5c-1.655,1.655-3.32,3.31-4.964,4.975A14.1,14.1,0,0,0,56.832,10.9c-.424.558-.393.548-1.065.372-1.551-.393-3.113-.807-4.675-1.138a22.659,22.659,0,0,0-4.871-.517H44.2A32.267,32.267,0,0,0,34.3,11.232a34.766,34.766,0,0,0-11.863,6.474A35.676,35.676,0,0,0,10.239,38.184a35.151,35.151,0,0,0,3.413,23.229,36.3,36.3,0,0,0,4.613,6.712A35.407,35.407,0,0,0,38.753,79.8a34.415,34.415,0,0,0,8.3.5,34.872,34.872,0,0,0,11.956-2.844,36.584,36.584,0,0,0,8.439-5.161A35.342,35.342,0,0,0,80.3,42.332a33.37,33.37,0,0,0-1.541-7.974c-.259-.827-.248-.807.465-1.334a9.174,9.174,0,0,0,1.138-.962c1.624-1.6,3.237-3.227,4.851-4.84.207-.207.414-.4.7-.672.3.662.59,1.262.827,1.882a42.583,42.583,0,0,1,2.7,10.4c.145,1.272.238,2.555.362,3.837a4.854,4.854,0,0,0,.176.745v3.165a2.236,2.236,0,0,0-.165.569,38.39,38.39,0,0,1-.9,7.2A43.816,43.816,0,0,1,82.16,70.215,45.167,45.167,0,0,1,60.472,87.187a42.437,42.437,0,0,1-12.814,2.648,2.071,2.071,0,0,0-.569.165h-4.22a3.014,3.014,0,0,0-.652-.165,38.869,38.869,0,0,1-7.953-1.179A44.71,44.71,0,0,1,14.614,78.117,45.04,45.04,0,0,1,1.955,57.928,41.4,41.4,0,0,1,.165,47.513a3.04,3.04,0,0,0-.176-.734V43.438a3.911,3.911,0,0,0,.165-.827,31.38,31.38,0,0,1,.61-5.564A44.363,44.363,0,0,1,5.047,24.5,45.18,45.18,0,0,1,27.79,3.558,41.93,41.93,0,0,1,43.025.176,3.16,3.16,0,0,0,43.759,0Z" fill="#ef5488"/>
    <path id="Path_82" data-name="Path 82" d="M55.622,17.044c.072.92.155,1.851.238,2.772.062.755.145,1.51.165,2.265a1.248,1.248,0,0,1-.269.786c-1.241,1.282-2.513,2.534-3.775,3.806a19.5,19.5,0,0,0-14.893.414A19.071,19.071,0,0,0,27.821,35.6a19.582,19.582,0,1,0,35.506,2.42c.465-.476.962-.972,1.448-1.469.724-.724,1.458-1.438,2.172-2.182a1.219,1.219,0,0,1,1.086-.424c1.158.114,2.327.207,3.485.3.465.041.931.062,1.4.093,4.189,9.825,2.441,24.594-8.967,33.892a29.959,29.959,0,1,1-8.315-51.185Z" fill="#ef5488"/>
    <path id="Path_83" data-name="Path 83" d="M74.155,29.011c-1.831-.176-3.661-.352-5.492-.517-.931-.083-1.862-.145-2.792-.228a1.022,1.022,0,0,0-.931.362c-.155.176-.331.331-.5.5L47.058,46.51a3.436,3.436,0,0,1-1.355.92,2.591,2.591,0,0,1-2.9-1.117,2.511,2.511,0,0,1,.31-3.072l.558-.558c5.8-5.792,11.584-11.594,17.406-17.365a1.906,1.906,0,0,0,.61-1.707c-.145-1.334-.238-2.668-.352-4.013-.114-1.3-.217-2.617-.341-3.92a2.9,2.9,0,0,1,.983-2.5q5.306-5.244,10.56-10.549a2.843,2.843,0,0,1,2.41-1.014,2.348,2.348,0,0,1,2.1,1.613,3.848,3.848,0,0,1,.217,1.024c.145,1.717.259,3.434.393,5.151.052.7.114,1.4.176,2.089.052.5.145.6.652.641.9.072,1.81.124,2.71.2,1.572.124,3.144.248,4.716.383.2.021.393.093.6.134A2.54,2.54,0,0,1,87.869,16.9a7.117,7.117,0,0,1-.548.569c-3.475,3.475-6.96,6.94-10.425,10.446a3.143,3.143,0,0,1-2.741,1.1Z" fill="#ef5488"/>
    <path id="Path_84" data-name="Path 84" d="M47.42,31.172c-.217.238-.393.445-.59.652q-3.537,3.537-7.074,7.085a9.833,9.833,0,0,0-2.12,2.989,7.98,7.98,0,0,0,5.875,10.911,7.73,7.73,0,0,0,6.361-1.531,15.451,15.451,0,0,0,1.438-1.293c2.286-2.265,4.561-4.551,6.836-6.826.217-.217.445-.424.714-.672a14.125,14.125,0,1,1-25.567-5.461c3.61-5.357,10.208-6.991,14.148-5.854Z" fill="#ef5488"/>
  </g>
</svg>
