<svg xmlns="http://www.w3.org/2000/svg" width="90" height="90" viewBox="0 0 90 90">
  <g id="true_false_icon" transform="translate(0.019)">
    <rect id="Rectangle_49" data-name="Rectangle 49" width="90" height="90" transform="translate(-0.019)" fill="none"/>
    <path id="Path_11513" d="M89.949,31.285c-.164,1.033-.313,2.075-.5,3.108a29.1,29.1,0,0,1-57.028.869A29.308,29.308,0,0,1,49.676,2.247a28.787,28.787,0,0,1,8.393-2.1,3.152,3.152,0,0,0,.6-.149h4.22c.462.07.916.149,1.378.2a29.394,29.394,0,0,1,25.21,23.84c.18,1,.321,2.012.485,3.022v4.22ZM69.7,34.339c-1.542-1.542-3.069-3.077-4.619-4.588-.431-.415-.493-.72-.016-1.143.462-.4.877-.861,1.307-1.3,1.12-1.1,2.239-2.216,3.28-3.249l-3.75-3.868c-1.535,1.566-3.061,3.1-4.557,4.658-.415.431-.72.5-1.143.023-.4-.462-.861-.877-1.3-1.307-1.1-1.12-2.208-2.239-3.241-3.28L51.829,24c1.55,1.542,3.077,3.085,4.627,4.588.431.415.493.72.016,1.143-.5.446-.955.947-1.433,1.425-1.08,1.065-2.153,2.13-3.155,3.116l3.758,3.875c1.527-1.566,3.053-3.1,4.549-4.666.415-.431.72-.485,1.143-.016.509.564,1.073,1.08,1.6,1.621,1,1.018,2,2.036,2.944,3l3.821-3.75Z" fill="#ef5488"/>
    <path id="Path_11514" d="M36.006,52.792c-.29.305-.525.556-.767.806-2.693,2.693-5.394,5.371-8.064,8.088-.509.517-.822.54-1.331,0-1.472-1.542-3-3.03-4.463-4.494l-3.523,3.547L26.7,69.57c.055-.055.321-.258.556-.5q6.06-6.048,12.112-12.12c.47-.47.8-.6,1.394-.157A33.507,33.507,0,0,0,57.082,63.2c.822.094.932.423.838,1.127A29.051,29.051,0,0,1,34.229,89.487c-8.988,1.644-17.036-.7-23.981-6.576A27.813,27.813,0,0,1,.274,64.692C-1,54.577,2.294,46.051,9.81,39.208a28.584,28.584,0,0,1,15.658-7.156c.806-.11,1.182-.023,1.3.932A33.761,33.761,0,0,0,35.63,52.291c.117.125.211.274.384.5Z" fill="#ef5488"/>
  </g>
</svg>
