<svg id="login_logo" xmlns="http://www.w3.org/2000/svg" width="168" height="64" viewBox="0 0 168 64">
  <g id="audiance" transform="translate(116.869)">
    <path id="Path_2348" data-name="Path 2348" d="M437.9,286.992a3.95,3.95,0,0,1,2.62,6.342,3.786,3.786,0,0,1-2.339,1.442,3.931,3.931,0,0,1-4.41-2.343,3.423,3.423,0,0,1-.284-1.244,3.974,3.974,0,0,1,.21-1.6,3.881,3.881,0,0,1,2.934-2.537,3.547,3.547,0,0,1,.656-.09A2.865,2.865,0,0,1,437.9,286.992Zm-.495,1.257a2.629,2.629,0,0,0-2.674,2.584v.074a2.674,2.674,0,0,0,2.667,2.681h.033a2.7,2.7,0,0,0,2.658-2.691,2.666,2.666,0,0,0-2.684-2.648h0Z" transform="translate(-428.909 -286.954)" fill="#ef5388"/>
    <path id="Path_2354" data-name="Path 2354" d="M484.747,398h-5a3.388,3.388,0,0,1-1.026-.14,2.837,2.837,0,0,1-1.991-2.683q-.011-1.249,0-2.5a2.82,2.82,0,0,1,2.393-2.774,4.285,4.285,0,0,1,.551-.048q5.082,0,10.164,0a2.87,2.87,0,0,1,2.127.856,2.748,2.748,0,0,1,.821,1.931c.018.855.025,1.712,0,2.566a2.813,2.813,0,0,1-2.36,2.734,4.949,4.949,0,0,1-.724.055C488.055,398.005,486.4,398,484.747,398Zm.022-1.3h4.858a4.072,4.072,0,0,0,.553-.035,1.485,1.485,0,0,0,1.105-.755,1.708,1.708,0,0,0,.221-.9v-2.151c0-.046,0-.093,0-.139a1.587,1.587,0,0,0-1.544-1.569c-.081-.005-.162,0-.243,0h-9.924c-.093,0-.185,0-.277.007a1.574,1.574,0,0,0-1.472,1.337,2.033,2.033,0,0,0-.022.346q0,1.092,0,2.185v.1a1.569,1.569,0,0,0,1.438,1.555c.15.013.3.016.451.016h4.859Z" transform="translate(-459.168 -358.942)" fill="#ef5388"/>
    <path id="Path_2355" data-name="Path 2355" d="M426.307,398.006h-5.03a3.444,3.444,0,0,1-.959-.125,2.842,2.842,0,0,1-2.043-2.712q.007-1.232,0-2.464a2.827,2.827,0,0,1,2.373-2.789,3.943,3.943,0,0,1,.552-.051q5.117,0,10.234,0a2.829,2.829,0,0,1,1.519.414,2.768,2.768,0,0,1,1.377,2.352c.035.866.034,1.735,0,2.6a2.8,2.8,0,0,1-2.409,2.724,5.931,5.931,0,0,1-.691.048Q428.77,398.009,426.307,398.006Zm.007-6.852h-4.858c-.116,0-.232,0-.347,0a1.622,1.622,0,0,0-.986.378,1.555,1.555,0,0,0-.557,1.222c0,.636,0,1.272,0,1.908,0,.174-.005.347,0,.52a1.551,1.551,0,0,0,1.349,1.488,2.991,2.991,0,0,0,.415.03q4.98,0,9.959,0a2.362,2.362,0,0,0,.483-.043,1.5,1.5,0,0,0,1.219-1.182,2.4,2.4,0,0,0,.054-.55c.006-.661,0-1.318,0-1.978,0-.093,0-.185-.006-.277a1.587,1.587,0,0,0-1.562-1.515c-.115-.006-.231,0-.347,0Z" transform="translate(-418.275 -358.944)" fill="#ef5388"/>
    <path id="Path_2356" data-name="Path 2356" d="M543.194,398h-5a3.305,3.305,0,0,1-1.059-.155,2.843,2.843,0,0,1-1.944-2.65c-.009-.844-.016-1.689,0-2.533a2.808,2.808,0,0,1,2.38-2.753,4.66,4.66,0,0,1,.586-.051q5.067,0,10.135,0a2.9,2.9,0,0,1,2.132.851,2.8,2.8,0,0,1,.661,1.048,1.488,1.488,0,0,1,.1.507q0,1.648,0,3.3a1.52,1.52,0,0,1-.116.574,2.776,2.776,0,0,1-2.193,1.811,3.959,3.959,0,0,1-.691.054Q545.693,398.006,543.194,398Zm.032-6.852h-5a2.058,2.058,0,0,0-.683.1,1.562,1.562,0,0,0-1.063,1.479c-.011.462,0,.925,0,1.388,0,.347-.008.694,0,1.041a1.558,1.558,0,0,0,1.392,1.524,2.974,2.974,0,0,0,.381.022q4.962,0,9.924,0a3.132,3.132,0,0,0,.483-.037,1.517,1.517,0,0,0,1.241-1.16,2.479,2.479,0,0,0,.057-.515c.007-.648,0-1.3,0-1.943,0-.1,0-.208,0-.312a1.585,1.585,0,0,0-1.532-1.578c-.115-.008-.232,0-.347,0Z" transform="translate(-500.06 -358.941)" fill="#ef5388"/>
    <path id="Path_2357" data-name="Path 2357" d="M547.575,430.742a.687.687,0,0,0,.15.054,2.245,2.245,0,0,0,.277.011h5.9a.616.616,0,0,0,.435-.075,1.075,1.075,0,0,0,.038-.445q0-4.6,0-9.193a2.63,2.63,0,0,1,.01-.381.645.645,0,0,1,.941-.5.583.583,0,0,1,.336.492c.008.1.008.208.008.312q0,5.1,0,10.2c0,.093,0,.185,0,.277a.631.631,0,0,1-.6.6c-.081.006-.162,0-.243,0h-7.772a1.783,1.783,0,0,1-.277-.01.622.622,0,0,1-.534-.557c0-.1-.008-.208-.008-.312q0-5.1,0-10.2c0-.1,0-.21.008-.312a.625.625,0,0,1,.525-.566.644.644,0,0,1,.685.363,1.006,1.006,0,0,1,.073.3,3.1,3.1,0,0,1,.005.347q0,4.562,0,9.124A1.117,1.117,0,0,0,547.575,430.742Z" transform="translate(-507.79 -380.129)" fill="#ef5388"/>
    <path id="Path_2358" data-name="Path 2358" d="M489.105,430.747a1.149,1.149,0,0,0,.187.052,2.517,2.517,0,0,0,.277.007H495.4a.943.943,0,0,0,.46-.058,1.28,1.28,0,0,0,.039-.189c.007-.115,0-.231,0-.347q0-4.563,0-9.125a2.6,2.6,0,0,1,.01-.381.643.643,0,0,1,1-.451.575.575,0,0,1,.275.459c.008.127.009.254.009.382q0,5.03,0,10.061c0,.116,0,.232-.008.347a.627.627,0,0,1-.607.6c-.08.007-.162,0-.243,0h-7.738c-.093,0-.185,0-.277-.006a.627.627,0,0,1-.562-.567c-.005-.1-.009-.208-.009-.312q0-5.1,0-10.2a3.025,3.025,0,0,1,.009-.312.624.624,0,0,1,.53-.561.646.646,0,0,1,.666.339,1.089,1.089,0,0,1,.086.331,2.78,2.78,0,0,1,.005.346q0,4.562,0,9.124A1,1,0,0,0,489.105,430.747Z" transform="translate(-466.882 -380.127)" fill="#ef5388"/>
    <path id="Path_2359" data-name="Path 2359" d="M430.627,430.739a.7.7,0,0,0,.15.053,2.27,2.27,0,0,0,.277.011h5.9a.619.619,0,0,0,.435-.075,1.032,1.032,0,0,0,.039-.444q0-4.6,0-9.193a2.932,2.932,0,0,1,.008-.381.644.644,0,0,1,1.026-.44.573.573,0,0,1,.25.436c.007.115.008.231.008.347q0,5.065,0,10.13c0,.1,0,.208-.005.312a.628.628,0,0,1-.6.6c-.08.007-.162,0-.243,0H430.1a2.253,2.253,0,0,1-.243-.005.621.621,0,0,1-.566-.562,2.565,2.565,0,0,1-.013-.312q0-5.1,0-10.2c0-.1.006-.208.01-.312a.62.62,0,0,1,.56-.571.638.638,0,0,1,.664.4,1.125,1.125,0,0,1,.06.3c.01.115,0,.231,0,.347q0,4.545,0,9.089a1.092,1.092,0,0,0,.043.458Z" transform="translate(-425.974 -380.124)" fill="#ef5388"/>
    <path id="Path_2362" data-name="Path 2362" d="M455.231,335.113c.041-.814.083-1.658.125-2.5,0-.092.008-.185.013-.277.03-.543.045-1.086.09-1.627.035-.414.1-.825.16-1.237q.125-.945.251-1.89c.078-.584.159-1.168.237-1.752l.18-1.374c.078-.584.159-1.168.237-1.751l.18-1.374c.054-.412.111-.824.165-1.236l.18-1.374c.056-.424.116-.846.169-1.271a.947.947,0,0,0-.621-1.01.927.927,0,0,0-1.174.579,2.184,2.184,0,0,0-.07.3c-.1.615-.2,1.232-.3,1.847-.019.114-.039.228-.064.34a.626.626,0,0,1-.706.534l-.058-.011a.616.616,0,0,1-.47-.734v0c.083-.559.175-1.118.265-1.677.033-.206.071-.41.105-.615a2.069,2.069,0,0,1,1.573-1.792,2.142,2.142,0,0,1,2.681,1.41c.011.036.022.072.03.109a2.236,2.236,0,0,1,.06.652c-.016.357-.06.714-.1,1.069-.082.653-.173,1.305-.261,1.958-.083.618-.17,1.236-.252,1.854s-.154,1.215-.234,1.822c-.1.778-.21,1.556-.316,2.335-.08.6-.155,1.191-.233,1.787-.083.631-.174,1.258-.25,1.889-.06.493-.116.987-.146,1.483-.044.715-.063,1.432-.09,2.148-.026.647-.047,1.294-.076,1.941a1.062,1.062,0,0,1-.056.3.624.624,0,0,1-.683.415.6.6,0,0,1-.536-.587C455.221,335.581,455.231,335.36,455.231,335.113Z" transform="translate(-443.086 -306.655)" fill="#ef5388"/>
    <path id="Path_2363" data-name="Path 2363" d="M547.937,357.739c.3,0,.6-.012.9,0a6.62,6.62,0,0,1,2.489.557,3.8,3.8,0,0,1,1.537,1.209,3.3,3.3,0,0,1,.609,1.637c.056.552.123,1.1.184,1.652.054.494.106.988.16,1.482.039.356.076.712.118,1.068a.861.861,0,0,1-.03.443.648.648,0,0,1-.621.418.631.631,0,0,1-.594-.5,3.55,3.55,0,0,1-.063-.412c-.056-.528-.105-1.058-.162-1.586s-.12-1.079-.18-1.619c-.03-.276-.063-.551-.087-.827a1.971,1.971,0,0,0-.83-1.461,3.549,3.549,0,0,0-1.216-.576,6.053,6.053,0,0,0-1.645-.221c-.475,0-.949-.008-1.423.006a5.417,5.417,0,0,0-1.988.432,2.677,2.677,0,0,0-.953.679,1.8,1.8,0,0,0-.461.955c-.051.366-.09.733-.129,1.1-.067.631-.131,1.264-.2,1.9-.052.506-.1,1.012-.153,1.518a.636.636,0,0,1-.3.518.646.646,0,0,1-.972-.474.922.922,0,0,1,0-.208c.052-.506.109-1.011.162-1.516.06-.563.117-1.126.177-1.689.049-.46.077-.923.154-1.378a3.2,3.2,0,0,1,1.206-2.005,4.622,4.622,0,0,1,1.631-.823,7.032,7.032,0,0,1,1.949-.287h.729Z" transform="translate(-504.776 -336.47)" fill="#ef5388"/>
    <path id="Path_2364" data-name="Path 2364" d="M495.724,365.484a.65.65,0,0,1-.9.661.6.6,0,0,1-.375-.5c-.051-.391-.094-.781-.137-1.172q-.1-.9-.194-1.792c-.051-.471-.109-.941-.15-1.412a1.983,1.983,0,0,0-.824-1.464,3.524,3.524,0,0,0-1.215-.578,6.045,6.045,0,0,0-1.644-.222c-.474,0-.949-.008-1.423.006a5.442,5.442,0,0,0-1.989.429,2.672,2.672,0,0,0-.931.651,1.82,1.82,0,0,0-.5,1.046c-.046.413-.09.827-.135,1.24l-.18,1.689c-.054.517-.107,1.034-.163,1.551a.615.615,0,0,1-.355.519.643.643,0,0,1-.918-.532.877.877,0,0,1,0-.173c.057-.517.117-1.033.171-1.55.06-.563.11-1.127.168-1.69.048-.46.075-.924.159-1.377a3.228,3.228,0,0,1,1.224-1.995,4.828,4.828,0,0,1,1.871-.874,6.976,6.976,0,0,1,1.646-.215c.544,0,1.088-.014,1.631,0a6.676,6.676,0,0,1,2.494.539,4.068,4.068,0,0,1,1.105.708,3.231,3.231,0,0,1,1.075,2.15c.053.552.123,1.1.184,1.652.053.482.1.965.157,1.447q.062.569.126,1.137C495.718,365.414,495.722,365.46,495.724,365.484Z" transform="translate(-464.041 -336.461)" fill="#ef5388"/>
    <path id="Path_2367" data-name="Path 2367" d="M496.2,291.665c.123.132.214.236.311.332q1,1.007,2.011,2.013a2.166,2.166,0,0,1,.235.254.605.605,0,0,1,.128.488.64.64,0,0,1-1.027.391,2.324,2.324,0,0,1-.227-.214l-2.038-2.035a.934.934,0,0,0-.327-.264.839.839,0,0,0-.318.254q-1.021,1.016-2.038,2.035a2.5,2.5,0,0,1-.226.214.639.639,0,0,1-1.035-.366.611.611,0,0,1,.137-.518,2.451,2.451,0,0,1,.237-.253l2.011-2.013a.894.894,0,0,0,.261-.324.846.846,0,0,0-.257-.321q-1.016-1.021-2.035-2.038a2.12,2.12,0,0,1-.234-.255.633.633,0,0,1,.338-1,.535.535,0,0,1,.372.017,1.168,1.168,0,0,1,.386.288l2.062,2.06c.1.1.2.188.287.268.175-.006.246-.124.334-.21.436-.431.868-.865,1.3-1.3.278-.278.555-.557.835-.833a1.574,1.574,0,0,1,.236-.2.626.626,0,0,1,.9.809,1.293,1.293,0,0,1-.235.3q-.806.814-1.618,1.621c-.18.18-.361.358-.539.541C496.359,291.475,496.3,291.555,496.2,291.665Z" transform="translate(-469.594 -287.701)" fill="#ef5388"/>
    <path id="Path_2368" data-name="Path 2368" d="M553.513,292.612a.9.9,0,0,0-.365.277q-1.021,1.016-2.037,2.034a1.959,1.959,0,0,1-.255.234.631.631,0,0,1-.851-.921,2.182,2.182,0,0,1,.214-.227l2.035-2.036a.84.84,0,0,0,.256-.321.914.914,0,0,0-.262-.324q-1.04-1.045-2.084-2.085a1.028,1.028,0,0,1-.29-.424.584.584,0,0,1,.18-.628.556.556,0,0,1,.67-.112,1.574,1.574,0,0,1,.353.273c.691.683,1.375,1.372,2.063,2.058.1.1.2.187.287.267.175-.008.247-.125.334-.212q1.033-1.027,2.061-2.059a2.431,2.431,0,0,1,.281-.257.575.575,0,0,1,.521-.113.647.647,0,0,1,.451.8.658.658,0,0,1-.1.21,2.115,2.115,0,0,1-.235.254l-2.035,2.037a.845.845,0,0,0-.258.323.888.888,0,0,0,.259.322q1,1.007,2.01,2.013c.066.065.131.131.194.2a.672.672,0,0,1,.144.679.5.5,0,0,1-.378.371.676.676,0,0,1-.677-.155c-.066-.065-.132-.129-.2-.2q-.991-.994-1.986-1.988C553.721,292.8,553.616,292.711,553.513,292.612Z" transform="translate(-510.316 -287.695)" fill="#ef5388"/>
    <path id="Path_2369" data-name="Path 2369" d="M438.749,338.55a3.344,3.344,0,0,1-3.372-3.315v-.047a3.359,3.359,0,1,1,3.372,3.362Zm-2.1-3.335a2.055,2.055,0,0,0,2.037,2.073h.036a2.05,2.05,0,0,0,2.1-2v-.083a2.073,2.073,0,0,0-2.052-2.094h-.038a2.1,2.1,0,0,0-2.083,2.1Z" transform="translate(-430.239 -318.349)" fill="#ef5388"/>
    <path id="Path_2370" data-name="Path 2370" d="M495.887,332.515a3.3,3.3,0,0,1,3.373,3.223v.135a3.335,3.335,0,0,1-3.321,3.349h-.04a3.346,3.346,0,0,1-3.356-3.335v-.056a3.3,3.3,0,0,1,3.28-3.316Zm.026,5.43a2.075,2.075,0,0,0,2.077-2.073v-.044a2.06,2.06,0,0,0-2.062-2.058h-.041a2.061,2.061,0,0,0-2.077,2.043v.038a2.075,2.075,0,0,0,2.058,2.093h.046Z" transform="translate(-470.23 -318.826)" fill="#ef5388"/>
    <path id="Path_2371" data-name="Path 2371" d="M554.1,339.19a3.326,3.326,0,0,1-3.344-3.307c0-.019,0-.038,0-.057a3.344,3.344,0,0,1,3.337-3.352h.054a3.359,3.359,0,1,1,.047,6.717Zm.01-1.274a2.1,2.1,0,0,0,2.1-2.09,2.08,2.08,0,0,0-2.076-2.084h-.03a2.057,2.057,0,0,0-2.079,2.035v.038a2.088,2.088,0,0,0,2.075,2.1h.009Z" transform="translate(-510.958 -318.798)" fill="#ef5388"/>
    <path id="Path_2373" data-name="Path 2373" d="M431.8,357.739c.116,0,.232-.006.347,0a.634.634,0,0,1,.07,1.258,2.015,2.015,0,0,1-.346.014,5.769,5.769,0,0,0-1.9.35,3.316,3.316,0,0,0-.793.421,2.061,2.061,0,0,0-.877,1.546c-.085.85-.176,1.7-.263,2.549-.055.541-.1,1.082-.16,1.62a1.172,1.172,0,0,1-.076.334.621.621,0,0,1-.68.365.61.61,0,0,1-.524-.6,2.324,2.324,0,0,1,.011-.346c.058-.551.123-1.1.18-1.652s.106-1.1.164-1.654c.037-.356.072-.712.128-1.065a3.218,3.218,0,0,1,1.377-2.161,5.03,5.03,0,0,1,2-.831A6.462,6.462,0,0,1,431.8,357.739Z" transform="translate(-424.094 -336.471)" fill="#ef5388"/>
    <path id="Path_2374" data-name="Path 2374" d="M551.782,373.745c.046-.551.092-1.08.133-1.609.035-.449.06-.9.1-1.347a1.9,1.9,0,0,1,.073-.441.625.625,0,0,1,1.206.165,6.839,6.839,0,0,1-.024.727c-.033.461-.078.92-.112,1.382-.032.426-.054.853-.086,1.279a2.367,2.367,0,0,1-.058.376.615.615,0,0,1-.641.473.6.6,0,0,1-.587-.574C551.777,374.024,551.782,373.874,551.782,373.745Z" transform="translate(-511.671 -345.012)" fill="#ef5388"/>
    <path id="Path_2375" data-name="Path 2375" d="M437.878,370.717c-.026.391-.049.784-.078,1.176q-.06.795-.124,1.59c-.019.23-.038.461-.066.691a.627.627,0,0,1-.626.579.653.653,0,0,1-.644-.607,1.3,1.3,0,0,1,0-.208c.019-.265.039-.53.06-.795.037-.437.078-.875.113-1.312.03-.38.057-.76.085-1.142,0-.057,0-.116.011-.173a.637.637,0,0,1,1.271.062c0,.046,0,.093,0,.139Z" transform="translate(-430.911 -345.012)" fill="#ef5388"/>
    <path id="Path_2376" data-name="Path 2376" d="M493.56,373.776c.044-.536.09-1.053.13-1.571.035-.46.063-.921.1-1.382a2.33,2.33,0,0,1,.066-.443.623.623,0,0,1,1.214.137,7.3,7.3,0,0,1-.024.761c-.03.437-.077.874-.11,1.311s-.055.875-.088,1.313a2.307,2.307,0,0,1-.06.376.616.616,0,0,1-.642.471.6.6,0,0,1-.586-.576C493.557,374.035,493.56,373.9,493.56,373.776Z" transform="translate(-470.94 -345.014)" fill="#ef5388"/>
    <path id="Path_2377" data-name="Path 2377" d="M568.444,373.759c0,.167.008.283,0,.4a.606.606,0,0,1-.533.548.62.62,0,0,1-.682-.41,1.5,1.5,0,0,1-.066-.339c-.056-.666-.1-1.332-.159-2-.032-.391-.075-.781-.113-1.17a.879.879,0,0,1,.051-.475.623.623,0,0,1,.68-.36.613.613,0,0,1,.527.52c.028.182.049.366.064.549.055.666.1,1.332.16,2C568.394,373.285,568.423,373.547,568.444,373.759Z" transform="translate(-522.232 -345.011)" fill="#ef5388"/>
    <path id="Path_2378" data-name="Path 2378" d="M510.234,373.823c0,.09.008.206,0,.321a.608.608,0,0,1-.527.557.617.617,0,0,1-.7-.44,1.636,1.636,0,0,1-.057-.307c-.03-.357-.055-.714-.085-1.071-.036-.426-.076-.851-.113-1.277-.03-.334-.068-.667-.083-1a.637.637,0,0,1,1.2-.318.587.587,0,0,1,.06.2c.03.252.051.506.074.759.038.414.076.828.112,1.243C510.161,372.922,510.2,373.359,510.234,373.823Z" transform="translate(-481.513 -345.007)" fill="#ef5388"/>
  </g>
  <g id="elite" transform="translate(7.023 0.009)">
    <path id="Path_2360" data-name="Path 2360" d="M140.4,296.677a1.463,1.463,0,0,1-.044-.2c-.006-.1,0-.208,0-.312,0-1.272,0-2.544,0-3.816.009-1.652.026-3.307.042-4.96,0-.369.032-.4.393-.4q2.377,0,4.754,0h.069c.277.012.313.045.318.33,0,.313,0,.625,0,.937,0,.175-.055.218-.234.227-.092,0-.185,0-.278,0H142.67c-.421,0-.433.013-.434.424q0,.851,0,1.7c0,.046,0,.092,0,.139.013.238.046.278.295.28.821.005,1.642,0,2.464,0,.1,0,.209,0,.312,0,.141.009.2.052.2.188q.011.555,0,1.11c0,.116-.057.162-.177.171-.092.007-.185.006-.277.006h-2.325c-.137,0-.275.008-.421.013a.842.842,0,0,0-.062.21c0,.751,0,1.5,0,2.253a.363.363,0,0,0,.025.094.344.344,0,0,0,.293.088c.254,0,.509,0,.763,0h2.117c.138,0,.275.01.421.016a1.032,1.032,0,0,1,.067.206,4.909,4.909,0,0,1-.051,1.249.7.7,0,0,1-.364.044c-.659,0-1.319,0-1.978,0h-2.741C140.679,296.688,140.553,296.682,140.4,296.677Z" transform="translate(-114.502 -286.987)" fill="#ef5388"/>
    <path id="Path_2361" data-name="Path 2361" d="M56.286,292.523a.567.567,0,0,0-.09.375q0,.937,0,1.873c0,.374.026.4.392.4.961,0,1.92,0,2.88,0a.781.781,0,0,1,.4.048,4.939,4.939,0,0,1,0,1.427.766.766,0,0,1-.365.038q-1.319,0-2.637,0H54.75a.823.823,0,0,1-.391-.047,1.559,1.559,0,0,1-.032-.193c-.006-.115,0-.231,0-.346q.007-4.319.014-8.638c0-.474,0-.475.485-.476h4.614c.471,0,.472,0,.472.488,0,.266,0,.532,0,.8,0,.159-.05.2-.213.21-.092.006-.185,0-.278,0h-2.88c-.31.008-.353.039-.355.334,0,.636,0,1.272.008,1.908a1.251,1.251,0,0,0,.05.246.876.876,0,0,0,.437.056c.8,0,1.6,0,2.394,0,.424,0,.424,0,.426.418,0,.277,0,.555,0,.833,0,.18-.047.218-.23.226-.081,0-.162,0-.243,0H56.663C56.537,292.51,56.411,292.518,56.286,292.523Z" transform="translate(-54.323 -286.986)" fill="#ef5388"/>
    <path id="Path_2365" data-name="Path 2365" d="M116.269,296.707a10.367,10.367,0,0,1-1.8-.011,1.24,1.24,0,0,1-.038-.188c-.007-.115,0-.231,0-.346q.006-3.538.011-7.075c0-.127,0-.254-.013-.381a.162.162,0,0,0-.158-.156c-.1-.01-.208-.013-.312-.013h-1.6c-.081,0-.162,0-.243,0-.216-.01-.256-.047-.262-.274-.007-.243,0-.486,0-.728a3.077,3.077,0,0,1,.013-.311.158.158,0,0,1,.158-.154,2.248,2.248,0,0,1,.242-.009h6.244c.383,0,.387.007.391.387,0,.243,0,.485,0,.728,0,.351-.013.361-.378.361-.567,0-1.133,0-1.7,0-.093,0-.185,0-.278,0-.188.011-.238.06-.257.254a1.922,1.922,0,0,0-.006.208q.009,1.717.019,3.434.012,1.959.025,3.918A.591.591,0,0,1,116.269,296.707Z" transform="translate(-94.569 -287.038)" fill="#ef5388"/>
    <path id="Path_2366" data-name="Path 2366" d="M81,295.173a.885.885,0,0,0,.458.066c.775,0,1.549,0,2.323,0a.589.589,0,0,1,.364.051,5.091,5.091,0,0,1,0,1.39.681.681,0,0,1-.363.044q-1.4,0-2.809,0H79.478c-.113,0-.226-.011-.351-.017a2.163,2.163,0,0,1-.041-.218c-.007-.081,0-.162,0-.243q0-4.386.01-8.773c0-.427,0-.427.417-.429q.5,0,1.006,0a2.329,2.329,0,0,1,.242.008.166.166,0,0,1,.164.15,1.886,1.886,0,0,1,.016.24c.014,1.352.03,2.7.039,4.056.007,1.087,0,2.173.006,3.259C80.984,294.9,81,295.036,81,295.173Z" transform="translate(-71.643 -287.027)" fill="#ef5388"/>
    <path id="Path_2372" data-name="Path 2372" d="M102.347,296.7a9.732,9.732,0,0,1-1.773-.014,1.4,1.4,0,0,1-.038-.187c-.007-.092,0-.185,0-.277q.007-4.366.014-8.732c0-.436,0-.437.443-.438.381,0,.762,0,1.144,0,.2,0,.236.047.248.251,0,.057,0,.115,0,.173q.01,4.383.019,8.767A.941.941,0,0,1,102.347,296.7Z" transform="translate(-86.649 -287.033)" fill="#ef5388"/>
  </g>
  <g id="quiz" transform="translate(0 12.01)">
    <path id="Path_2347" data-name="Path 2347" d="M162.983,473.291c-.319,0-.732-.016-.948-.038a6.421,6.421,0,0,1-5.672-5.04,6.612,6.612,0,1,1,12.821-3.241c.017.066.033.132.048.2a6.61,6.61,0,0,1-4.946,7.932q-.095.022-.19.041A6.806,6.806,0,0,1,162.983,473.291Z" transform="translate(-118.541 -421.301)" fill="#ef5388"/>
    <path id="Path_2349" data-name="Path 2349" d="M71.514,369.188c-.235-.165-2.93-2.857-3.121-3.12.035-.074.069-.158.114-.237a17.655,17.655,0,0,0,1.917-5.074,18.075,18.075,0,0,0,.335-2.4,16.358,16.358,0,0,0,.047-1.664,17.784,17.784,0,0,0-14.674-17.083,13.649,13.649,0,0,0-2.2-.236c-.266,0-.531-.042-.8-.04A17.787,17.787,0,0,0,35.36,355.6a16.665,16.665,0,0,0-.036,2.531,17.611,17.611,0,0,0,2.986,8.866,17.253,17.253,0,0,0,1.937,2.4.6.6,0,0,0,.28.218c.12-.03.2-.138.285-.226q.874-.868,1.745-1.74l3.951-3.95c.1-.1.188-.2.27-.287a.652.652,0,0,0-.229-.33,8.773,8.773,0,0,1-1.931-3.375,8.65,8.65,0,0,1-.379-3.048,8.812,8.812,0,0,1,4.4-7.178,8.364,8.364,0,0,1,3.092-1.079,8.782,8.782,0,0,1,10.115,9.183,8.635,8.635,0,0,1-1.352,4.247,7.43,7.43,0,0,1-1.056,1.328q-1.516,1.5-3.018,3.018a.784.784,0,0,0-.261.331,1.261,1.261,0,0,0,.1.133c.078.085.162.166.243.247l8.368,8.368a1.19,1.19,0,0,1,.268.305,20.633,20.633,0,0,1-5.6,2.69,22.023,22.023,0,0,1-11.717.34,21.667,21.667,0,0,1-10.046-5.5,22.1,22.1,0,0,1-.689-31.251q.154-.16.31-.318a22.129,22.129,0,0,1,31.3-.016q.2.2.4.41a22.1,22.1,0,0,1,4.123,24.273A15.071,15.071,0,0,1,71.514,369.188Z" transform="translate(-30.947 -333.89)" fill="#ef5388"/>
    <path id="Path_2350" data-name="Path 2350" d="M207.621,395.416a.79.79,0,0,0-.373.173,20.337,20.337,0,0,1-3.315,1.659,14.114,14.114,0,0,1-3.285.836,17,17,0,0,1-3.082.108,10.483,10.483,0,0,1-3.086-.6,6.955,6.955,0,0,1-4.012-3.674,10.289,10.289,0,0,1-.847-2.92,16,16,0,0,1-.148-2.421q.006-7.983.01-15.964c0-.162.005-.324,0-.486a1.322,1.322,0,0,1,1.166-1.224c.1-.01.208-.008.312-.008h7.706a1.983,1.983,0,0,1,.415.02,1.4,1.4,0,0,1,.947.7.894.894,0,0,1,.12.43c0,.185.01.37.01.555q.007,6.871.014,13.743a8.866,8.866,0,0,0,.107,1.555,3.424,3.424,0,0,0,.283.926,1.543,1.543,0,0,0,1.64.911,7.392,7.392,0,0,0,1.822-.414c.141-.051.274-.12.412-.18.479-.2.959-.4,1.438-.608.128-.054.252-.117.378-.174a.273.273,0,0,0,.167-.277c0-.139,0-.278,0-.416l.006-14.992c0-.174,0-.347,0-.521a1.329,1.329,0,0,1,1.215-1.252c.115-.008.231-.005.347-.005h7.567c.081,0,.162,0,.243,0a1.3,1.3,0,0,1,1.274,1.254c0,.139,0,.278,0,.416q0,11.713.008,23.426c0,.15,0,.3-.005.451a1.3,1.3,0,0,1-1.245,1.213h-.174c-1.978,0-3.957,0-5.935,0a1.678,1.678,0,0,1-.891-.237,1.132,1.132,0,0,1-.457-.506c-.2-.419-.406-.831-.612-1.245C207.727,395.587,207.676,395.51,207.621,395.416Z" transform="translate(-141.844 -358.975)" fill="#ef5388"/>
    <path id="Path_2351" data-name="Path 2351" d="M343.329,388.651a1.084,1.084,0,0,0,.185.054c.115.006.231.005.347.005h7.393c.139,0,.278,0,.416,0a1.366,1.366,0,0,1,1.285,1.3c0,.092,0,.185,0,.278v5.935c0,.093,0,.185,0,.278a1.332,1.332,0,0,1-1.266,1.276c-.116,0-.231,0-.347,0H330.171c-.093,0-.185,0-.278,0a1.3,1.3,0,0,1-1.28-1.251c0-.093,0-.185,0-.278v-5.24c0-.069,0-.139,0-.208a.421.421,0,0,1,.122-.313c.156-.171.3-.348.457-.522l4.8-5.483q1.737-1.983,3.475-3.969c.081-.092.188-.171.2-.293-.039-.085-.1-.081-.156-.083-.115-.005-.231,0-.347,0l-6.317,0a2.4,2.4,0,0,1-.55-.048,1.269,1.269,0,0,1-.985-1.008,2.452,2.452,0,0,1-.054-.585c0-1.029.019-2.059.025-3.088.005-.914,0-1.828,0-2.742,0-.15.007-.3.011-.451a1.245,1.245,0,0,1,1.156-1.136c.127,0,.254-.006.382-.006h20.061c.127,0,.254.006.382.008a1.256,1.256,0,0,1,1.1.914,2.542,2.542,0,0,1,.069.549c.006,1.886,0,3.771.008,5.656a.647.647,0,0,1-.178.467q-1.489,1.647-2.969,3.3l-4.662,5.188c-.356.4-.713.79-1.068,1.186C343.5,388.428,343.435,388.519,343.329,388.651Z" transform="translate(-239.18 -359.106)" fill="#ef5388"/>
    <path id="Path_2352" data-name="Path 2352" d="M288.838,382.3V370.256c0-.162,0-.324.006-.486a1.385,1.385,0,0,1,.34-.854.894.894,0,0,1,.691-.346c.081,0,.162,0,.243,0,2.083,0,4.165,0,6.249,0a2.884,2.884,0,0,1,1.673.585,2.1,2.1,0,0,1,.256.233.758.758,0,0,1,.242.59c-.008.3,0,.6,0,.9q.005,11.713.01,23.425c0,.185,0,.37-.01.555a1.373,1.373,0,0,1-.361.845.89.89,0,0,1-.7.328h-7.395a1.179,1.179,0,0,1-1.241-1.112v-.019c-.018-.184-.015-.37-.015-.555V382.294Z" transform="translate(-211.35 -357.348)" fill="#ef5388"/>
    <path id="Path_2353" data-name="Path 2353" d="M298.446,336.179a4.878,4.878,0,0,1-4.843,4.912h-.072a4.921,4.921,0,0,1-4.93-4.909v-.032a4.919,4.919,0,0,1,4.923-4.914h0a4.878,4.878,0,0,1,4.919,4.837C298.447,336.108,298.447,336.144,298.446,336.179Z" transform="translate(-211.191 -331.236)" fill="#ef5388"/>
  </g>
</svg>
