<svg width="92" height="92" viewBox="0 0 92 92" fill="none" xmlns="http://www.w3.org/2000/svg">
<g clip-path="url(#clip0_1896_2351)">
<path d="M11.9217 14H26.3503C27.6679 14 28.7398 15.0803 28.7398 16.4151V32.2158C28.7398 33.5475 27.671 34.6309 26.3503 34.6309H11.9217C10.6041 34.6309 9.53223 33.5506 9.53223 32.2158V16.4151C9.53223 15.0834 10.601 14 11.9217 14Z" fill="url(#paint0_linear_1896_2351)"/>
<path d="M26.3714 14.2825C27.0225 14.2825 27.6091 14.5494 28.036 14.9809C28.4629 15.4124 10.8278 34.3111 10.3948 33.8238C10.0232 33.4016 9.7959 32.8459 9.7959 32.2375V16.6634C9.7959 15.3503 10.8493 14.2856 12.1515 14.2856H26.3714V14.2825Z" fill="url(#paint1_linear_1896_2351)"/>
<path d="M13.1903 15.8159H25.0791C26.1663 15.8159 27.0478 16.7068 27.0478 17.8057V30.825C27.0478 31.9239 26.1663 32.8148 25.0791 32.8148H13.1903C12.1031 32.8148 11.2217 31.9239 11.2217 30.825V17.8057C11.2217 16.7068 12.1031 15.8159 13.1903 15.8159Z" fill="url(#paint2_linear_1896_2351)" stroke="white" stroke-miterlimit="10"/>
<path d="M13.1935 22.8998V18.2869H14.8735C15.1468 18.2869 15.3526 18.2993 15.4969 18.3272C15.6382 18.3552 15.7672 18.3986 15.8778 18.4607C16.0651 18.5631 16.2064 18.7153 16.3047 18.9139C16.403 19.1157 16.4521 19.3485 16.4521 19.6186C16.4521 19.8887 16.403 20.1029 16.3047 20.2984C16.2064 20.494 16.062 20.6523 15.8716 20.7672C15.7611 20.8355 15.6321 20.882 15.4846 20.91C15.3372 20.9379 15.0946 20.9534 14.7537 20.9534H13.8108V22.8998H13.1904H13.1935ZM13.8139 20.3978H14.855C15.2175 20.3978 15.4693 20.3388 15.6136 20.2208C15.758 20.1029 15.8286 19.9042 15.8286 19.6186C15.8286 19.333 15.758 19.1498 15.6136 19.0288C15.4724 18.9108 15.2328 18.8487 14.9011 18.8487H13.8139V20.3947V20.3978Z" fill="#434041"/>
<path d="M32.7509 14H47.1765C48.4941 14 49.566 15.0803 49.566 16.4151V32.2158C49.566 33.5475 48.4972 34.6309 47.1765 34.6309H32.7478C31.4303 34.6309 30.3584 33.5506 30.3584 32.2158V16.4151C30.3584 15.0834 31.4303 14 32.7478 14H32.7509Z" fill="url(#paint3_linear_1896_2351)"/>
<path d="M47.2015 14.2825C47.8526 14.2825 48.4423 14.5494 48.8661 14.9809C49.293 15.4124 31.6579 34.3111 31.2249 33.8238C30.8532 33.4016 30.626 32.8459 30.626 32.2375V16.6634C30.626 15.3503 31.6794 14.2856 32.9816 14.2856H47.2015V14.2825Z" fill="url(#paint4_linear_1896_2351)"/>
<path d="M34.0194 15.8159H45.9082C46.9954 15.8159 47.8769 16.7068 47.8769 17.8057V30.825C47.8769 31.9239 46.9954 32.8148 45.9082 32.8148H34.0194C32.9322 32.8148 32.0508 31.9239 32.0508 30.825V17.8057C32.0508 16.7068 32.9322 15.8159 34.0194 15.8159Z" fill="url(#paint5_linear_1896_2351)" stroke="white" stroke-miterlimit="10"/>
<path d="M33.5156 22.8998L35.2109 18.2869H35.8958L37.5973 22.8998H36.9247L36.4425 21.5215H34.6458L34.1606 22.8998H33.5187H33.5156ZM34.8363 20.9814H36.2582L35.5519 18.945L34.8363 20.9814Z" fill="#434041"/>
<path d="M53.5769 14H68.0056C69.3232 14 70.395 15.0803 70.395 16.4151V32.2158C70.395 33.5475 69.3263 34.6309 68.0056 34.6309H53.5769C52.2594 34.6309 51.1875 33.5506 51.1875 32.2158V16.4151C51.1875 15.0834 52.2594 14 53.5769 14Z" fill="url(#paint6_linear_1896_2351)"/>
<path d="M68.0306 14.2825C68.6817 14.2825 69.2683 14.5494 69.6952 14.9809C70.1221 15.4124 52.487 34.3111 52.054 33.8238C51.6793 33.4016 51.4551 32.8459 51.4551 32.2375V16.6634C51.4551 15.3503 52.5085 14.2856 53.8107 14.2856H68.0336L68.0306 14.2825Z" fill="url(#paint7_linear_1896_2351)"/>
<path d="M54.8486 15.8159H66.7373C67.8245 15.8159 68.706 16.7068 68.706 17.8057V30.825C68.706 31.9239 67.8245 32.8148 66.7373 32.8148H54.8486C53.7613 32.8148 52.8799 31.9239 52.8799 30.825V17.8057C52.8799 16.7068 53.7613 15.8159 54.8486 15.8159Z" fill="url(#paint8_linear_1896_2351)" stroke="white" stroke-miterlimit="10"/>
<path d="M54.6426 21.3789H55.2415C55.2476 21.7141 55.3582 21.978 55.5701 22.1766C55.7851 22.3753 56.0707 22.4747 56.427 22.4747C56.7832 22.4747 57.0596 22.4002 57.2623 22.248C57.465 22.0959 57.5664 21.8942 57.5664 21.6334C57.5664 21.2795 57.1856 21.0125 56.4208 20.8294C56.3748 20.8201 56.341 20.8108 56.3164 20.8046C55.696 20.6556 55.2875 20.491 55.0879 20.3079C54.8883 20.1247 54.79 19.8671 54.79 19.5287C54.79 19.1158 54.9374 18.7868 55.2353 18.5385C55.5332 18.2901 55.9294 18.1628 56.4239 18.1628C56.9184 18.1628 57.3238 18.2932 57.6125 18.5571C57.9012 18.8209 58.0486 19.1779 58.0517 19.6374H57.4589C57.4374 19.33 57.333 19.0941 57.1487 18.9296C56.9614 18.7651 56.7065 18.6813 56.3809 18.6813C56.0768 18.6813 55.8342 18.7495 55.653 18.883C55.4718 19.0165 55.3797 19.1966 55.3797 19.4201C55.3797 19.7771 55.7544 20.044 56.5068 20.2179C56.6174 20.2458 56.7034 20.2644 56.7648 20.2799L56.8293 20.2955C57.3207 20.4134 57.6463 20.5438 57.809 20.6804C57.9319 20.7859 58.024 20.9132 58.0885 21.0622C58.153 21.2112 58.1837 21.3789 58.1837 21.562C58.1837 22.0059 58.0271 22.3598 57.7107 22.6237C57.3944 22.8875 56.9706 23.0179 56.4331 23.0179C55.8956 23.0179 55.4472 22.8751 55.1401 22.5926C54.8299 22.3101 54.6641 21.9035 54.6426 21.3757V21.3789Z" fill="#434041"/>
<path d="M74.409 14H88.8377C90.1552 14 91.2271 15.0803 91.2271 16.4151V32.2158C91.2271 33.5475 90.1583 34.6309 88.8377 34.6309H74.409C73.0914 34.6309 72.0195 33.5506 72.0195 32.2158V16.4151C72.0195 15.0834 73.0883 14 74.409 14Z" fill="url(#paint9_linear_1896_2351)"/>
<path d="M88.8587 14.2825C89.5098 14.2825 90.0964 14.5494 90.5233 14.9809C90.9502 15.4124 73.3151 34.3111 72.8821 33.8238C72.5105 33.4016 72.2832 32.8459 72.2832 32.2375V16.6634C72.2832 15.3503 73.3366 14.2856 74.6388 14.2856H88.8587V14.2825Z" fill="url(#paint10_linear_1896_2351)"/>
<path d="M75.6776 15.8159H87.5664C88.6536 15.8159 89.5351 16.7068 89.5351 17.8057V30.825C89.5351 31.9239 88.6536 32.8148 87.5664 32.8148H75.6776C74.5904 32.8148 73.709 31.9239 73.709 30.825V17.8057C73.709 16.7068 74.5904 15.8159 75.6776 15.8159Z" fill="url(#paint11_linear_1896_2351)" stroke="white" stroke-miterlimit="10"/>
<path d="M75.4717 21.3789H76.0706C76.0767 21.7141 76.1873 21.978 76.3992 22.1766C76.6142 22.3753 76.8998 22.4747 77.2561 22.4747C77.6123 22.4747 77.8887 22.4002 78.0914 22.248C78.2942 22.099 78.3955 21.8942 78.3955 21.6334C78.3955 21.2795 78.0147 21.0125 77.2499 20.8294C77.2039 20.8201 77.1701 20.8108 77.1455 20.8046C76.5251 20.6556 76.1166 20.491 75.917 20.3079C75.7174 20.1247 75.6191 19.8671 75.6191 19.5287C75.6191 19.1158 75.7665 18.7868 76.0644 18.5385C76.3623 18.2901 76.7585 18.1628 77.253 18.1628C77.7475 18.1628 78.1529 18.2932 78.4416 18.5571C78.7303 18.8209 78.8777 19.1779 78.8808 19.6374H78.288C78.2665 19.33 78.1621 19.0941 77.9778 18.9296C77.7905 18.7651 77.5356 18.6813 77.21 18.6813C76.906 18.6813 76.6633 18.7495 76.4821 18.883C76.3009 19.0165 76.2088 19.1966 76.2088 19.4201C76.2088 19.7771 76.5835 20.044 77.3359 20.2179C77.4465 20.2458 77.5325 20.2644 77.5939 20.2799L77.6584 20.2955C78.1498 20.4134 78.4754 20.5438 78.6381 20.6804C78.761 20.7859 78.8531 20.9132 78.9176 21.0622C78.9821 21.2112 79.0128 21.3789 79.0128 21.562C79.0128 22.0059 78.8562 22.3598 78.5399 22.6237C78.2235 22.8875 77.7997 23.0179 77.2622 23.0179C76.7247 23.0179 76.2763 22.8751 75.9692 22.5926C75.659 22.3101 75.4932 21.9035 75.4717 21.3757V21.3789Z" fill="#434041"/>
<path d="M3.38943 35.9192H17.8181C19.1357 35.9192 20.2076 36.9995 20.2076 38.3343V54.135C20.2076 55.4667 19.1357 56.5501 17.8181 56.5501H3.38943C2.07186 56.5501 1 55.4667 1 54.135V38.3374C1 37.0057 2.07186 35.9223 3.38943 35.9223V35.9192Z" fill="url(#paint12_linear_1896_2351)"/>
<path d="M17.8392 36.2016C18.4903 36.2016 19.0799 36.4686 19.5038 36.8969C19.9307 37.3284 2.29254 56.2271 1.86256 55.7398C1.49094 55.3176 1.26367 54.7619 1.26367 54.1535V38.5794C1.26367 37.2663 2.31711 36.1985 3.61931 36.1985H17.8392V36.2016Z" fill="url(#paint13_linear_1896_2351)"/>
<path d="M4.65812 37.7351H16.5469C17.6341 37.7351 18.5156 38.626 18.5156 39.7249V52.7442C18.5156 53.8431 17.6341 54.734 16.5469 54.734H4.65812C3.5709 54.734 2.68945 53.8431 2.68945 52.7442V39.7249C2.68945 38.626 3.5709 37.7351 4.65812 37.7351Z" fill="url(#paint14_linear_1896_2351)" stroke="white" stroke-miterlimit="10"/>
<path d="M5.39155 44.816L4.20605 40.2031H4.81109L5.74475 43.8941L6.70912 40.2031H7.35715L8.3553 43.8692L9.30125 40.2031H9.89092L8.67778 44.816H8.06661L7.02853 41.0133L6.03037 44.816H5.39463H5.39155Z" fill="#434041"/>
<path d="M29.8543 58.3723H72.5261C73.8437 58.3723 74.9155 59.4526 74.9155 60.7874V76.5881C74.9155 77.9198 73.8467 79.0032 72.5261 79.0032H29.8543C28.5367 79.0032 27.4648 77.9229 27.4648 76.5881V60.7905C27.4648 59.4588 28.5367 58.3754 29.8543 58.3754V58.3723Z" fill="url(#paint15_linear_1896_2351)"/>
<path d="M72.5511 58.6548C73.2022 58.6548 73.7888 58.9218 74.2157 59.3532C74.6426 59.7847 28.7613 78.6834 28.3313 78.1961C27.9597 77.7739 27.7324 77.2182 27.7324 76.6098V61.0357C27.7324 59.7226 28.7859 58.6548 30.0881 58.6548H72.5541H72.5511Z" fill="url(#paint16_linear_1896_2351)"/>
<path d="M31.123 60.1882H71.2549C72.3421 60.1882 73.2236 61.0792 73.2236 62.1781V75.1973C73.2236 76.2962 72.3421 77.1871 71.2549 77.1871H31.123C30.0357 77.1871 29.1543 76.2962 29.1543 75.1973V62.1781C29.1543 61.0792 30.0357 60.1882 31.123 60.1882Z" fill="url(#paint17_linear_1896_2351)" stroke="white" stroke-miterlimit="10"/>
<path d="M41.374 70.445V65.832H44.6295V66.4063H41.9883V67.7846H44.4268V68.3247H41.9883V69.8738H44.6817V70.4512H41.374V70.445Z" fill="#434041"/>
<path d="M45.4249 70.4447V65.8318H46.1037L48.2351 69.1844C48.2812 69.2589 48.3242 69.3272 48.358 69.3924C48.3918 69.4576 48.4225 69.5165 48.4409 69.5724V65.8318H49.0337V70.4447H48.3611L46.1835 67.0456C46.1498 66.9928 46.119 66.94 46.0914 66.8841C46.0638 66.8283 46.0361 66.7693 46.0116 66.7041V70.4447H45.4219H45.4249Z" fill="#434041"/>
<path d="M51.0176 70.4446V66.3905H49.5771V65.8286H53.0814V66.3905H51.641V70.4446H51.0176Z" fill="#434041"/>
<path d="M53.6318 70.4447V65.8318H56.8874V66.4061H54.2461V67.7844H56.6847V68.3245H54.2461V69.8735H56.9396V70.4509H53.6318V70.4447Z" fill="#434041"/>
<path d="M57.6885 65.8286H59.4575C59.7462 65.8286 59.9551 65.841 60.0902 65.8659C60.2253 65.8907 60.3482 65.9342 60.4557 65.99C60.6492 66.0956 60.7935 66.2446 60.8949 66.4339C60.9962 66.6233 61.0453 66.8468 61.0453 67.1045C61.0453 67.3621 60.9931 67.567 60.8887 67.7408C60.7843 67.9147 60.6277 68.0544 60.4188 68.1568C60.5969 68.2065 60.7229 68.2903 60.7996 68.4114C60.8764 68.5293 60.9225 68.7311 60.9409 69.0167L60.9931 69.7772C61.0023 69.9417 61.0238 70.0628 61.0576 70.1435C61.0883 70.2242 61.1375 70.2801 61.202 70.3143V70.4415H60.4864C60.428 70.3453 60.3881 70.1404 60.3666 69.8238V69.8052L60.3297 69.2029C60.3082 68.8925 60.2437 68.6938 60.1332 68.6007C60.0226 68.5076 59.7493 68.4641 59.3132 68.4641H58.3089V70.4415H57.6946V65.8286H57.6885ZM58.2966 66.3719V67.9364H59.3562C59.737 67.9364 60.0073 67.8743 60.167 67.747C60.3267 67.6198 60.4035 67.4118 60.4035 67.12C60.4035 66.8468 60.3297 66.6543 60.1793 66.5395C60.0288 66.4246 59.7554 66.3719 59.3562 66.3719H58.2966Z" fill="#434041"/>
<path d="M24.0711 35.9192H38.4998C39.8173 35.9192 40.8892 36.9995 40.8892 38.3343V54.135C40.8892 55.4667 39.8173 56.5501 38.4998 56.5501H24.0711C22.7535 56.5501 21.6816 55.4667 21.6816 54.135V38.3374C21.6816 37.0057 22.7535 35.9223 24.0711 35.9223V35.9192Z" fill="url(#paint18_linear_1896_2351)"/>
<path d="M38.5208 36.2016C39.1719 36.2016 39.7585 36.4686 40.1854 36.8969C40.6123 37.3284 22.9742 56.2271 22.5442 55.7398C22.1726 55.3176 21.9453 54.7619 21.9453 54.1535V38.5794C21.9453 37.2663 22.9988 36.1985 24.301 36.1985H38.5208V36.2016Z" fill="url(#paint19_linear_1896_2351)"/>
<path d="M25.3398 37.7351H37.2285C38.3158 37.7351 39.1972 38.626 39.1972 39.7249V52.7442C39.1972 53.8431 38.3158 54.734 37.2285 54.734H25.3398C24.2525 54.734 23.3711 53.8431 23.3711 52.7442V39.7249C23.3711 38.626 24.2525 37.7351 25.3398 37.7351Z" fill="url(#paint20_linear_1896_2351)" stroke="white" stroke-miterlimit="10"/>
<path d="M25.1465 42.5158C25.1465 41.7553 25.3369 41.1593 25.7208 40.7278C26.1047 40.2994 26.636 40.0852 27.3117 40.0852C27.9874 40.0852 28.5156 40.2994 28.8965 40.7278C29.2773 41.1562 29.4677 41.7522 29.4677 42.5158C29.4677 43.2795 29.2773 43.8755 28.8965 44.3039C28.5156 44.7323 27.9874 44.9465 27.3117 44.9465C26.636 44.9465 26.1047 44.7323 25.7208 44.3039C25.3369 43.8755 25.1465 43.2795 25.1465 42.5158ZM25.7884 42.5158C25.7884 43.1056 25.9235 43.5682 26.1938 43.9034C26.464 44.2356 26.8357 44.4032 27.3148 44.4032C27.7939 44.4032 28.1624 44.2356 28.4296 43.9034C28.6968 43.5713 28.832 43.1088 28.832 42.5158C28.832 41.9229 28.6968 41.4604 28.4296 41.1282C28.1624 40.7961 27.7908 40.6316 27.3148 40.6316C26.8387 40.6316 26.464 40.7992 26.1938 41.1282C25.9235 41.4604 25.7884 41.9229 25.7884 42.5158Z" fill="#434041"/>
<path d="M44.7529 35.9192H59.1785C60.496 35.9192 61.5679 36.9995 61.5679 38.3343V54.135C61.5679 55.4667 60.4991 56.5501 59.1785 56.5501H44.7498C43.4322 56.5501 42.3604 55.4667 42.3604 54.135V38.3374C42.3604 37.0057 43.4322 35.9223 44.7498 35.9223L44.7529 35.9192Z" fill="url(#paint21_linear_1896_2351)"/>
<path d="M59.2034 36.2016C59.8545 36.2016 60.4411 36.4686 60.868 36.8969C61.2949 37.3284 43.6568 56.2271 43.2268 55.7398C42.8552 55.3176 42.6279 54.7619 42.6279 54.1535V38.5794C42.6279 37.2663 43.6814 36.1985 44.9836 36.1985H59.2034V36.2016Z" fill="url(#paint22_linear_1896_2351)"/>
<path d="M46.0214 37.7351H57.9102C58.9974 37.7351 59.8788 38.626 59.8788 39.7249V52.7442C59.8788 53.8431 58.9974 54.734 57.9102 54.734H46.0214C44.9342 54.734 44.0527 53.8431 44.0527 52.7442V39.728C44.0527 38.6291 44.9342 37.7382 46.0214 37.7382V37.7351Z" fill="url(#paint23_linear_1896_2351)" stroke="white" stroke-miterlimit="10"/>
<path d="M46.0244 40.2031H47.7934C48.0821 40.2031 48.291 40.2155 48.4261 40.2404C48.5613 40.2652 48.6841 40.3087 48.7916 40.3645C48.9851 40.4701 49.1294 40.6191 49.2308 40.8085C49.3321 40.9978 49.3813 41.2213 49.3813 41.479C49.3813 41.7366 49.3291 41.9415 49.2246 42.1153C49.1202 42.2923 48.9636 42.4289 48.7547 42.5313C48.9329 42.581 49.0588 42.6648 49.1356 42.7859C49.2124 42.9038 49.2584 43.1056 49.2769 43.3912L49.3291 44.1517C49.3383 44.3163 49.3598 44.4373 49.3936 44.518C49.4243 44.5987 49.4734 44.6546 49.5379 44.6888V44.816H48.8223C48.764 44.7198 48.724 44.5149 48.7025 44.1983V44.1797L48.6657 43.5774C48.6442 43.267 48.5797 43.0684 48.4691 42.9752C48.3586 42.8821 48.0852 42.8386 47.6491 42.8386H46.6448V44.816H46.0306V40.2031H46.0244ZM46.6325 40.7464V42.3109H47.6921C48.0729 42.3109 48.3432 42.2488 48.5029 42.1216C48.6595 41.9974 48.7394 41.7863 48.7394 41.4945C48.7394 41.2213 48.6657 41.0289 48.5152 40.914C48.3647 40.7991 48.0914 40.7464 47.6921 40.7464H46.6325Z" fill="#434041"/>
<path d="M65.8767 35.9192H80.3054C81.623 35.9192 82.6949 36.9995 82.6949 38.3343V54.135C82.6949 55.4667 81.623 56.5501 80.3054 56.5501H65.8767C64.5592 56.5501 63.4873 55.4667 63.4873 54.135V38.3374C63.4873 37.0057 64.5592 35.9223 65.8767 35.9223V35.9192Z" fill="url(#paint24_linear_1896_2351)"/>
<path d="M80.3265 36.2016C80.9776 36.2016 81.5642 36.4686 81.9911 36.8969C82.418 37.3284 64.7798 56.2271 64.3499 55.7398C63.9782 55.3176 63.751 54.7619 63.751 54.1535V38.5794C63.751 37.2663 64.8044 36.1985 66.1066 36.1985H80.3265V36.2016Z" fill="url(#paint25_linear_1896_2351)"/>
<path d="M67.1454 37.7351H79.0342C80.1214 37.7351 81.0029 38.626 81.0029 39.7249V52.7442C81.0029 53.8431 80.1214 54.734 79.0342 54.734H67.1454C66.0582 54.734 65.1768 53.8431 65.1768 52.7442V39.7249C65.1768 38.626 66.0582 37.7351 67.1454 37.7351Z" fill="url(#paint26_linear_1896_2351)" stroke="white" stroke-miterlimit="10"/>
<path d="M67.1514 44.816V40.2031H68.8897C69.5254 40.2031 70.0138 40.3956 70.3516 40.7805C70.6894 41.1654 70.8584 41.718 70.8584 42.4444C70.8584 43.1708 70.6833 43.7761 70.3332 44.1952C69.9831 44.6112 69.4947 44.8192 68.8651 44.8192H67.1514V44.816ZM68.8375 40.734H67.7718V44.2511H68.8375C69.2951 44.2511 69.6391 44.1021 69.8725 43.801C70.1059 43.5029 70.2226 43.059 70.2226 42.4723C70.2226 41.8856 70.1028 41.479 69.8663 41.181C69.6299 40.883 69.2859 40.734 68.8375 40.734Z" fill="#434041"/>
</g>
<defs>
<linearGradient id="paint0_linear_1896_2351" x1="25.515" y1="35.4877" x2="12.5451" y2="13.2602" gradientUnits="userSpaceOnUse">
<stop offset="0.06" stop-color="#9E9DA2"/>
<stop offset="0.38" stop-color="#D8DADE"/>
<stop offset="0.41" stop-color="#DDDFE2"/>
<stop offset="0.5" stop-color="#E9EAEB"/>
<stop offset="0.63" stop-color="#F0F0F0"/>
<stop offset="1" stop-color="#F2F2F2"/>
</linearGradient>
<linearGradient id="paint1_linear_1896_2351" x1="21.0428" y1="27.6556" x2="12.804" y2="13.533" gradientUnits="userSpaceOnUse">
<stop offset="0.05" stop-color="#BEBFC5"/>
<stop offset="0.73" stop-color="white"/>
</linearGradient>
<linearGradient id="paint2_linear_1896_2351" x1="26.7192" y1="31.9798" x2="11.3881" y2="16.8118" gradientUnits="userSpaceOnUse">
<stop offset="0.47" stop-color="white"/>
<stop offset="0.54" stop-color="#F3F4F5"/>
<stop offset="0.55" stop-color="#F1F2F4"/>
</linearGradient>
<linearGradient id="paint3_linear_1896_2351" x1="46.3442" y1="35.4877" x2="33.3743" y2="13.2602" gradientUnits="userSpaceOnUse">
<stop offset="0.06" stop-color="#9E9DA2"/>
<stop offset="0.38" stop-color="#D8DADE"/>
<stop offset="0.41" stop-color="#DDDFE2"/>
<stop offset="0.5" stop-color="#E9EAEB"/>
<stop offset="0.63" stop-color="#F0F0F0"/>
<stop offset="1" stop-color="#F2F2F2"/>
</linearGradient>
<linearGradient id="paint4_linear_1896_2351" x1="41.8759" y1="27.6525" x2="33.634" y2="13.5331" gradientUnits="userSpaceOnUse">
<stop offset="0.05" stop-color="#BEBFC5"/>
<stop offset="0.73" stop-color="white"/>
</linearGradient>
<linearGradient id="paint5_linear_1896_2351" x1="47.5483" y1="31.9798" x2="32.2172" y2="16.8118" gradientUnits="userSpaceOnUse">
<stop offset="0.47" stop-color="white"/>
<stop offset="0.54" stop-color="#F3F4F5"/>
<stop offset="0.55" stop-color="#F1F2F4"/>
</linearGradient>
<linearGradient id="paint6_linear_1896_2351" x1="67.1733" y1="35.4877" x2="54.2034" y2="13.2602" gradientUnits="userSpaceOnUse">
<stop offset="0.06" stop-color="#9E9DA2"/>
<stop offset="0.38" stop-color="#D8DADE"/>
<stop offset="0.41" stop-color="#DDDFE2"/>
<stop offset="0.5" stop-color="#E9EAEB"/>
<stop offset="0.63" stop-color="#F0F0F0"/>
<stop offset="1" stop-color="#F2F2F2"/>
</linearGradient>
<linearGradient id="paint7_linear_1896_2351" x1="62.702" y1="27.6525" x2="54.4632" y2="13.533" gradientUnits="userSpaceOnUse">
<stop offset="0.05" stop-color="#BEBFC5"/>
<stop offset="0.73" stop-color="white"/>
</linearGradient>
<linearGradient id="paint8_linear_1896_2351" x1="68.3774" y1="31.9798" x2="53.0463" y2="16.8118" gradientUnits="userSpaceOnUse">
<stop offset="0.47" stop-color="white"/>
<stop offset="0.54" stop-color="#F3F4F5"/>
<stop offset="0.55" stop-color="#F1F2F4"/>
</linearGradient>
<linearGradient id="paint9_linear_1896_2351" x1="88.0023" y1="35.4877" x2="75.0324" y2="13.2602" gradientUnits="userSpaceOnUse">
<stop offset="0.06" stop-color="#9E9DA2"/>
<stop offset="0.38" stop-color="#D8DADE"/>
<stop offset="0.41" stop-color="#DDDFE2"/>
<stop offset="0.5" stop-color="#E9EAEB"/>
<stop offset="0.63" stop-color="#F0F0F0"/>
<stop offset="1" stop-color="#F2F2F2"/>
</linearGradient>
<linearGradient id="paint10_linear_1896_2351" x1="83.5332" y1="27.6525" x2="75.2913" y2="13.5331" gradientUnits="userSpaceOnUse">
<stop offset="0.05" stop-color="#BEBFC5"/>
<stop offset="0.73" stop-color="white"/>
</linearGradient>
<linearGradient id="paint11_linear_1896_2351" x1="89.2065" y1="31.9798" x2="73.8754" y2="16.8118" gradientUnits="userSpaceOnUse">
<stop offset="0.47" stop-color="white"/>
<stop offset="0.54" stop-color="#F3F4F5"/>
<stop offset="0.55" stop-color="#F1F2F4"/>
</linearGradient>
<linearGradient id="paint12_linear_1896_2351" x1="16.9858" y1="57.4068" x2="4.01283" y2="35.1794" gradientUnits="userSpaceOnUse">
<stop offset="0.06" stop-color="#9E9DA2"/>
<stop offset="0.38" stop-color="#D8DADE"/>
<stop offset="0.41" stop-color="#DDDFE2"/>
<stop offset="0.5" stop-color="#E9EAEB"/>
<stop offset="0.63" stop-color="#F0F0F0"/>
<stop offset="1" stop-color="#F2F2F2"/>
</linearGradient>
<linearGradient id="paint13_linear_1896_2351" x1="12.5136" y1="49.5716" x2="4.27173" y2="35.4522" gradientUnits="userSpaceOnUse">
<stop offset="0.05" stop-color="#BEBFC5"/>
<stop offset="0.73" stop-color="white"/>
</linearGradient>
<linearGradient id="paint14_linear_1896_2351" x1="18.1869" y1="53.899" x2="2.8559" y2="38.731" gradientUnits="userSpaceOnUse">
<stop offset="0.47" stop-color="white"/>
<stop offset="0.54" stop-color="#F3F4F5"/>
<stop offset="0.55" stop-color="#F1F2F4"/>
</linearGradient>
<linearGradient id="paint15_linear_1896_2351" x1="61.1011" y1="86.0405" x2="40.9566" y2="51.5184" gradientUnits="userSpaceOnUse">
<stop offset="0.06" stop-color="#9E9DA2"/>
<stop offset="0.38" stop-color="#D8DADE"/>
<stop offset="0.41" stop-color="#DDDFE2"/>
<stop offset="0.5" stop-color="#E9EAEB"/>
<stop offset="0.63" stop-color="#F0F0F0"/>
<stop offset="1" stop-color="#F2F2F2"/>
</linearGradient>
<linearGradient id="paint16_linear_1896_2351" x1="52.9688" y1="71.7951" x2="41.2753" y2="51.7568" gradientUnits="userSpaceOnUse">
<stop offset="0.05" stop-color="#BEBFC5"/>
<stop offset="0.73" stop-color="white"/>
</linearGradient>
<linearGradient id="paint17_linear_1896_2351" x1="56.2795" y1="82.8245" x2="45.9045" y2="54.6222" gradientUnits="userSpaceOnUse">
<stop offset="0.47" stop-color="white"/>
<stop offset="0.54" stop-color="#F3F4F5"/>
<stop offset="0.55" stop-color="#F1F2F4"/>
</linearGradient>
<linearGradient id="paint18_linear_1896_2351" x1="37.6644" y1="57.4068" x2="24.6945" y2="35.1794" gradientUnits="userSpaceOnUse">
<stop offset="0.06" stop-color="#9E9DA2"/>
<stop offset="0.38" stop-color="#D8DADE"/>
<stop offset="0.41" stop-color="#DDDFE2"/>
<stop offset="0.5" stop-color="#E9EAEB"/>
<stop offset="0.63" stop-color="#F0F0F0"/>
<stop offset="1" stop-color="#F2F2F2"/>
</linearGradient>
<linearGradient id="paint19_linear_1896_2351" x1="33.1953" y1="49.5716" x2="24.9534" y2="35.4522" gradientUnits="userSpaceOnUse">
<stop offset="0.05" stop-color="#BEBFC5"/>
<stop offset="0.73" stop-color="white"/>
</linearGradient>
<linearGradient id="paint20_linear_1896_2351" x1="38.8686" y1="53.899" x2="23.5375" y2="38.731" gradientUnits="userSpaceOnUse">
<stop offset="0.47" stop-color="white"/>
<stop offset="0.54" stop-color="#F3F4F5"/>
<stop offset="0.55" stop-color="#F1F2F4"/>
</linearGradient>
<linearGradient id="paint21_linear_1896_2351" x1="58.3462" y1="57.4068" x2="45.3763" y2="35.1794" gradientUnits="userSpaceOnUse">
<stop offset="0.06" stop-color="#9E9DA2"/>
<stop offset="0.38" stop-color="#D8DADE"/>
<stop offset="0.41" stop-color="#DDDFE2"/>
<stop offset="0.5" stop-color="#E9EAEB"/>
<stop offset="0.63" stop-color="#F0F0F0"/>
<stop offset="1" stop-color="#F2F2F2"/>
</linearGradient>
<linearGradient id="paint22_linear_1896_2351" x1="53.8779" y1="49.5716" x2="45.636" y2="35.4522" gradientUnits="userSpaceOnUse">
<stop offset="0.05" stop-color="#BEBFC5"/>
<stop offset="0.73" stop-color="white"/>
</linearGradient>
<linearGradient id="paint23_linear_1896_2351" x1="59.5472" y1="53.899" x2="44.2192" y2="38.7309" gradientUnits="userSpaceOnUse">
<stop offset="0.47" stop-color="white"/>
<stop offset="0.54" stop-color="#F3F4F5"/>
<stop offset="0.55" stop-color="#F1F2F4"/>
</linearGradient>
<linearGradient id="paint24_linear_1896_2351" x1="79.4731" y1="57.4068" x2="66.5032" y2="35.1794" gradientUnits="userSpaceOnUse">
<stop offset="0.06" stop-color="#9E9DA2"/>
<stop offset="0.38" stop-color="#D8DADE"/>
<stop offset="0.41" stop-color="#DDDFE2"/>
<stop offset="0.5" stop-color="#E9EAEB"/>
<stop offset="0.63" stop-color="#F0F0F0"/>
<stop offset="1" stop-color="#F2F2F2"/>
</linearGradient>
<linearGradient id="paint25_linear_1896_2351" x1="75.0009" y1="49.5716" x2="66.7621" y2="35.4521" gradientUnits="userSpaceOnUse">
<stop offset="0.05" stop-color="#BEBFC5"/>
<stop offset="0.73" stop-color="white"/>
</linearGradient>
<linearGradient id="paint26_linear_1896_2351" x1="80.6742" y1="53.899" x2="65.3432" y2="38.731" gradientUnits="userSpaceOnUse">
<stop offset="0.47" stop-color="white"/>
<stop offset="0.54" stop-color="#F3F4F5"/>
<stop offset="0.55" stop-color="#F1F2F4"/>
</linearGradient>
<clipPath id="clip0_1896_2351">
<rect width="90.2239" height="65" fill="white" transform="translate(1 14)"/>
</clipPath>
</defs>
</svg>
