<svg width="88" height="84" viewBox="0 0 88 84" fill="none" xmlns="http://www.w3.org/2000/svg">
<path d="M68.5783 84.0004C66.6951 83.9984 64.8897 83.2541 63.5581 81.9307C62.2266 80.6074 61.4776 78.8131 61.4756 76.9416C61.4756 76.7981 61.4932 76.6551 61.5278 76.5157L66.5545 56.3835L56.5643 49.7464C55.7231 49.3457 54.9696 48.7844 54.3468 48.0943C53.724 47.4043 53.244 46.5991 52.9342 45.7247C52.6245 44.8503 52.4911 43.9238 52.5417 42.9982C52.5922 42.0725 52.8258 41.1658 53.2289 40.3299C53.632 39.494 54.1969 38.7451 54.8912 38.1261C55.5855 37.5071 56.3958 37.0301 57.2756 36.7223C58.1554 36.4145 59.0876 36.2819 60.019 36.3322C60.9504 36.3824 61.8627 36.6145 62.7039 37.0151C62.7688 37.0452 62.8318 37.0793 62.8924 37.1172L77.0136 45.8877C78.2087 46.4695 79.2163 47.372 79.9222 48.4932C80.6281 49.6143 81.0043 50.9095 81.0081 52.232C81.0083 52.324 81.0009 52.4157 80.9862 52.5065L78.8673 65.8694C78.8311 66.0983 78.7499 66.3179 78.6283 66.5156C78.5067 66.7133 78.3471 66.8853 78.1586 67.0217C77.9702 67.1582 77.7565 67.2564 77.5298 67.3107C77.3032 67.3651 77.068 67.3745 76.8376 67.3386C76.6073 67.3026 76.3863 67.2219 76.1874 67.101C75.9884 66.9802 75.8154 66.8216 75.6781 66.6343C75.5408 66.4469 75.442 66.2346 75.3873 66.0093C75.3327 65.7841 75.3231 65.5503 75.3593 65.3214L77.4539 52.1132C77.4293 51.4634 77.2253 50.8328 76.8642 50.2905C76.503 49.7482 75.9987 49.3151 75.4065 49.0386C75.341 49.0078 75.2775 48.9731 75.2162 48.9348L61.1119 40.1726C60.6848 39.9703 60.2213 39.8549 59.7487 39.8331C59.2761 39.8113 58.8038 39.8835 58.3597 40.0456C57.9155 40.2077 57.5084 40.4564 57.1623 40.777C56.8162 41.0976 56.5381 41.4837 56.3442 41.9126C56.1503 42.3415 56.0446 42.8046 56.0332 43.2747C56.0219 43.7448 56.1052 44.2124 56.2783 44.65C56.4513 45.0877 56.7106 45.4865 57.0409 45.8232C57.3712 46.1599 57.7658 46.4276 58.2017 46.6106C58.2833 46.6486 58.3618 46.6928 58.4365 46.7428L69.5666 54.1396C69.8704 54.3414 70.1042 54.6314 70.236 54.9701C70.3678 55.3088 70.3913 55.6797 70.3032 56.0321L65.0333 77.1365C65.0864 78.0529 65.4966 78.9126 66.1769 79.5334C66.8572 80.1542 67.754 80.4873 68.6772 80.4619C69.6005 80.4366 70.4774 80.0548 71.1222 79.3976C71.7669 78.7404 72.1287 77.8595 72.1309 76.9416C72.1308 76.7821 72.1526 76.6234 72.1957 76.4697L73.8676 70.471C73.9961 70.0229 74.2977 69.6435 74.7066 69.4156C75.1155 69.1877 75.5986 69.1297 76.0503 69.2545C76.502 69.3792 76.8858 69.6764 77.1178 70.0813C77.3499 70.4861 77.4113 70.9658 77.2889 71.4155L75.6767 77.1976C75.6075 79.0234 74.8296 80.7515 73.5062 82.0197C72.1828 83.2878 70.4167 83.9974 68.5783 83.9996V84.0004Z" fill="#EF5388"/>
<path d="M80.1209 83.1176C79.185 83.1228 78.2575 82.9415 77.3934 82.5842C76.5293 82.2269 75.746 81.7011 75.09 81.0377C74.9065 80.852 74.7665 80.6283 74.68 80.3826L72.7707 74.9368C72.6446 74.4991 72.6937 74.0299 72.9076 73.6273C73.1215 73.2246 73.4837 72.9198 73.9186 72.7764C74.3534 72.6331 74.8271 72.6623 75.2408 72.858C75.6544 73.0537 75.976 73.4008 76.1381 73.8266L77.8824 78.8038C78.5695 79.3338 79.4252 79.601 80.2939 79.5568C81.1625 79.5126 81.9863 79.1599 82.6153 78.5629C82.9462 78.2354 83.2089 77.8464 83.3885 77.418C83.5681 76.9897 83.661 76.5304 83.6619 76.0663C83.6629 75.6022 83.5718 75.1425 83.394 74.7135C83.2161 74.2844 82.9549 73.8943 82.6254 73.5656C82.5397 73.4804 82.463 73.3868 82.3964 73.2861L76.08 63.7216C75.8216 63.3303 75.7302 62.8529 75.8258 62.3946C75.9215 61.9363 76.1964 61.5346 76.5902 61.2777C76.9839 61.0209 77.4642 60.93 77.9254 61.0251C78.3865 61.1202 78.7908 61.3934 79.0492 61.7847L85.2789 71.2079C86.5482 72.5437 87.244 74.3185 87.2185 76.1557C87.1931 77.9929 86.4484 79.7479 85.1425 81.0485C84.4873 81.7093 83.7055 82.2329 82.8433 82.5884C81.9811 82.9439 81.056 83.1241 80.1226 83.1184L80.1209 83.1176Z" fill="#EF5388"/>
<path d="M18.8596 83.9995C17.0212 83.9973 15.255 83.2878 13.9316 82.0196C12.6082 80.7515 11.8303 79.0233 11.7611 77.1976L10.1481 71.4172C10.0219 70.9663 10.081 70.484 10.3125 70.0765C10.5441 69.6689 10.929 69.3695 11.3827 69.244C11.8364 69.1185 12.3216 69.1773 12.7317 69.4074C13.1418 69.6375 13.4431 70.02 13.5694 70.4709L15.243 76.4663C15.286 76.62 15.3078 76.7787 15.3078 76.9382C15.3099 77.8561 15.6717 78.737 16.3165 79.3942C16.9612 80.0514 17.8382 80.4332 18.7614 80.4585C19.6846 80.4839 20.5815 80.1508 21.2618 79.53C21.9421 78.9092 22.3523 78.0495 22.4054 77.1332L17.1355 56.0287C17.0474 55.6763 17.0708 55.3054 17.2027 54.9667C17.3345 54.628 17.5683 54.338 17.8721 54.1362L29.003 46.7394C29.0777 46.6891 29.1562 46.6446 29.2378 46.6064C29.6682 46.4195 30.057 46.1497 30.3818 45.8125C30.7065 45.4754 30.9608 45.0775 31.1298 44.642C31.2988 44.2066 31.3792 43.7421 31.3664 43.2755C31.3536 42.8089 31.2478 42.3495 31.0552 41.9239C30.8625 41.4982 30.5869 41.1147 30.2441 40.7956C29.9013 40.4765 29.4983 40.2282 29.0583 40.0649C28.6183 39.9017 28.1501 39.8267 27.6808 39.8445C27.2115 39.8623 26.7504 39.9723 26.3242 40.1684L12.2208 48.9331C12.1595 48.9714 12.0959 49.0061 12.0305 49.0368C11.4382 49.3133 10.9339 49.7465 10.5728 50.2888C10.2117 50.8311 10.0077 51.4617 9.98313 52.1115L12.0785 65.3189C12.1516 65.7812 12.0369 66.2534 11.7597 66.6317C11.4825 67.01 11.0654 67.2633 10.6002 67.336C10.135 67.4087 9.65983 67.2947 9.27919 67.0192C8.89855 66.7437 8.64363 66.3292 8.57051 65.8669L6.45158 52.5089C6.43675 52.4174 6.42943 52.3248 6.42969 52.232C6.43308 50.909 6.80903 49.6133 7.51498 48.4917C8.22094 47.37 9.22871 46.4671 10.4243 45.8852L24.5445 37.1171C24.6055 37.0792 24.6687 37.0451 24.734 37.0151C25.5752 36.6144 26.4875 36.3824 27.419 36.3321C28.3504 36.2819 29.2827 36.4145 30.1625 36.7224C31.0424 37.0302 31.8526 37.5073 32.547 38.1263C33.2414 38.7454 33.8062 39.4943 34.2094 40.3303C34.6125 41.1663 34.846 42.073 34.8965 42.9987C34.9471 43.9244 34.8136 44.8509 34.5039 45.7253C34.1941 46.5998 33.7141 47.405 33.0912 48.0951C32.4683 48.7851 31.7147 49.3465 30.8735 49.7472L20.8834 56.3835L25.91 76.5157C25.9447 76.655 25.9622 76.798 25.9622 76.9416C25.96 78.8129 25.2109 80.607 23.8794 81.9301C22.5478 83.2533 20.7425 83.9975 18.8596 83.9995Z" fill="#EF5388"/>
<path d="M7.31671 83.1172C6.38081 83.1225 5.45336 82.9411 4.58923 82.5839C3.7251 82.2266 2.94186 81.7007 2.28584 81.0373C0.983906 79.7362 0.242736 77.9825 0.219322 76.1477C0.195908 74.3129 0.892091 72.5411 2.16041 71.2075L8.39007 61.7844C8.64851 61.3932 9.05272 61.12 9.5138 61.025C9.97488 60.93 10.4551 61.0209 10.8487 61.2778C11.2423 61.5346 11.5172 61.9364 11.6127 62.3946C11.7083 62.8528 11.6169 63.33 11.3584 63.7212L5.03615 73.2858C4.96959 73.3864 4.89287 73.4801 4.80717 73.5652C4.14252 74.227 3.76923 75.1238 3.76923 76.0588C3.76923 76.9939 4.14252 77.8907 4.80717 78.5525C5.43454 79.1557 6.26013 79.5134 7.13185 79.5595C8.00357 79.6056 8.8627 79.3371 9.55097 78.8035L11.2953 73.8262C11.4574 73.4004 11.779 73.0534 12.1926 72.8577C12.6062 72.6619 13.08 72.6327 13.5148 72.7761C13.9497 72.9194 14.3119 73.2243 14.5258 73.6269C14.7397 74.0295 14.7888 74.4988 14.6627 74.9365L14.5743 75.2017L12.7601 80.3822C12.6737 80.6279 12.5337 80.8516 12.3501 81.0373C11.6941 81.7007 10.9109 82.2266 10.0467 82.5839C9.1826 82.9411 8.25514 83.1225 7.31924 83.1172H7.31671Z" fill="#EF5388"/>
<path d="M11.7562 46.94C10.0003 46.9399 8.28388 46.4223 6.824 45.4526C5.36411 44.483 4.22631 43.105 3.55447 41.4927C2.88264 39.8804 2.70694 38.1064 3.0496 36.3949C3.39226 34.6834 4.23789 33.1113 5.47955 31.8774C6.72121 30.6436 8.30314 29.8033 10.0253 29.4629C11.7475 29.1226 13.5325 29.2973 15.1547 29.9652C16.7769 30.633 18.1635 31.7639 19.139 33.2149C20.1145 34.6658 20.6351 36.3717 20.6351 38.1167C20.6351 39.2755 20.4055 40.4229 19.9592 41.4935C19.513 42.564 18.859 43.5367 18.0345 44.356C17.21 45.1754 16.2312 45.8253 15.1539 46.2686C14.0767 46.712 12.9221 46.9401 11.7562 46.94ZM11.7562 32.8224C10.7026 32.8224 9.6726 33.1329 8.79654 33.7147C7.92049 34.2964 7.23769 35.1233 6.83449 36.0907C6.43128 37.0581 6.32579 38.1226 6.53134 39.1496C6.73689 40.1766 7.24426 41.12 7.98928 41.8604C8.7343 42.6008 9.68352 43.105 10.7169 43.3093C11.7503 43.5136 12.8214 43.4088 13.7948 43.008C14.7682 42.6073 15.6002 41.9288 16.1856 41.0581C16.7709 40.1875 17.0834 39.1639 17.0834 38.1167C17.0834 36.7126 16.5221 35.366 15.5231 34.3731C14.524 33.3802 13.169 32.8224 11.7562 32.8224Z" fill="#EF5388"/>
<path d="M75.681 46.94C73.9251 46.9399 72.2087 46.4223 70.7488 45.4526C69.2889 44.483 68.1511 43.105 67.4793 41.4927C66.8074 39.8804 66.6317 38.1064 66.9744 36.3949C67.3171 34.6834 68.1627 33.1113 69.4044 31.8774C70.646 30.6436 72.2279 29.8033 73.9501 29.4629C75.6723 29.1226 77.4573 29.2973 79.0795 29.9652C80.7017 30.633 82.0883 31.7639 83.0638 33.2149C84.0393 34.6658 84.5599 36.3717 84.5599 38.1167C84.5599 39.2755 84.3303 40.4229 83.8841 41.4935C83.4378 42.564 82.7838 43.5367 81.9593 44.356C81.1348 45.1754 80.156 45.8253 79.0787 46.2686C78.0015 46.712 76.8469 46.9401 75.681 46.94ZM75.681 32.8224C74.6274 32.8224 73.5974 33.1329 72.7213 33.7147C71.8453 34.2964 71.1625 35.1233 70.7593 36.0907C70.3561 37.0581 70.2506 38.1226 70.4561 39.1496C70.6617 40.1766 71.1691 41.12 71.9141 41.8604C72.6591 42.6008 73.6083 43.105 74.6417 43.3093C75.6751 43.5136 76.7462 43.4088 77.7196 43.008C78.693 42.6073 79.525 41.9288 80.1104 41.0581C80.6958 40.1875 81.0082 39.1639 81.0082 38.1167C81.0082 36.7126 80.4469 35.366 79.4479 34.3731C78.4488 33.3802 77.0938 32.8224 75.681 32.8224Z" fill="#EF5388"/>
<path d="M50.8205 36.3524H36.6151C36.3453 36.3523 36.0791 36.291 35.8367 36.1734C35.5942 36.0557 35.382 35.8847 35.2159 35.6734C35.0499 35.462 34.9345 35.2158 34.8785 34.9535C34.8225 34.6912 34.8274 34.4197 34.8927 34.1596L36.6682 27.1033C36.7639 26.7212 36.9855 26.3819 37.2976 26.1394C37.6097 25.8968 37.9944 25.7649 38.3906 25.7646H49.045C49.4412 25.7649 49.8259 25.8968 50.138 26.1394C50.4501 26.3819 50.6717 26.7212 50.7674 27.1033L52.5429 34.1621C52.6082 34.4222 52.6131 34.6938 52.5571 34.9561C52.5011 35.2183 52.3857 35.4645 52.2197 35.6759C52.0536 35.8872 51.8414 36.0582 51.5989 36.1759C51.3565 36.2936 51.0903 36.3548 50.8205 36.3549V36.3524ZM38.8898 32.8234H48.5466L47.6585 29.2936H39.7771L38.8898 32.8234Z" fill="#EF5388"/>
<path d="M43.7179 22.2347C40.4226 22.2312 37.2632 20.9287 34.9329 18.613C32.6027 16.2972 31.2919 13.1575 31.2881 9.88244V6.35263C31.2881 5.88465 31.4751 5.43585 31.8081 5.10494C32.1411 4.77404 32.5927 4.58813 33.0635 4.58813H54.3715C54.8424 4.58813 55.294 4.77404 55.627 5.10494C55.9599 5.43585 56.147 5.88465 56.147 6.35263V9.88244C56.1432 13.1573 54.8325 16.297 52.5024 18.6127C50.1723 20.9283 47.0132 22.2309 43.7179 22.2347ZM34.8398 8.11711V9.88161C34.8398 12.2218 35.7753 14.4661 37.4403 16.1209C39.1053 17.7757 41.3636 18.7053 43.7184 18.7053C46.0731 18.7053 48.3314 17.7757 49.9964 16.1209C51.6615 14.4661 52.5969 12.2218 52.5969 9.88161V8.11711H34.8398Z" fill="#EF5388"/>
<path d="M43.7188 29.2933C43.2479 29.2933 42.7963 29.1074 42.4634 28.7765C42.1304 28.4456 41.9434 27.9968 41.9434 27.5288V20.47C41.9434 20.0019 42.1305 19.553 42.4635 19.222C42.7965 18.891 43.2482 18.7051 43.7192 18.7051C44.1902 18.7051 44.6419 18.891 44.975 19.222C45.308 19.553 45.4951 20.0019 45.4951 20.47V27.5288C45.4951 27.7606 45.4492 27.9901 45.3599 28.2042C45.2706 28.4184 45.1397 28.6129 44.9748 28.7768C44.8098 28.9406 44.614 29.0706 44.3985 29.1592C44.183 29.2478 43.952 29.2934 43.7188 29.2933Z" fill="#EF5388"/>
<path d="M34.5033 16.9404H31.2891C29.8763 16.9404 28.5213 16.3826 27.5222 15.3898C26.5232 14.3969 25.9619 13.0503 25.9619 11.6461C25.9619 10.242 26.5232 8.89535 27.5222 7.90247C28.5213 6.9096 29.8763 6.35181 31.2891 6.35181H33.0646C33.5356 6.35181 33.9873 6.53775 34.3203 6.86874C34.6533 7.19972 34.8404 7.64863 34.8404 8.11671C34.8404 8.5848 34.6533 9.03371 34.3203 9.36469C33.9873 9.69568 33.5356 9.88162 33.0646 9.88162H31.2891C30.8184 9.88229 30.3672 10.0684 30.0344 10.3992C29.7016 10.7299 29.5143 11.1783 29.5137 11.6461C29.5114 11.874 29.5554 12.0999 29.6432 12.3104C29.7311 12.5209 29.8608 12.7116 30.0247 12.871C30.1869 13.042 30.3826 13.1781 30.5998 13.2711C30.8169 13.364 31.051 13.4118 31.2874 13.4114H34.5016C34.9726 13.4114 35.4243 13.5974 35.7573 13.9284C36.0904 14.2594 36.2775 14.7083 36.2775 15.1763C36.2775 15.6444 36.0904 16.0933 35.7573 16.4243C35.4243 16.7553 34.9726 16.9413 34.5016 16.9413L34.5033 16.9404Z" fill="#EF5388"/>
<path d="M56.1484 16.9405H52.9351C52.4641 16.9405 52.0124 16.7545 51.6793 16.4235C51.3463 16.0925 51.1592 15.6436 51.1592 15.1755C51.1592 14.7075 51.3463 14.2586 51.6793 13.9276C52.0124 13.5966 52.4641 13.4106 52.9351 13.4106H56.1492C56.3785 13.4129 56.6059 13.3691 56.8177 13.2819C57.0295 13.1946 57.2213 13.0656 57.3817 12.9028C57.5538 12.7416 57.6908 12.5471 57.7843 12.3312C57.8778 12.1154 57.9259 11.8828 57.9255 11.6478C57.9249 11.1801 57.7376 10.7316 57.4048 10.4009C57.0719 10.0701 56.6207 9.884 56.1501 9.88333H54.3729C53.9019 9.88333 53.4502 9.69739 53.1172 9.3664C52.7842 9.03542 52.5971 8.58651 52.5971 8.11842C52.5971 7.65034 52.7842 7.20143 53.1172 6.87045C53.4502 6.53946 53.9019 6.35352 54.3729 6.35352H56.1484C57.5612 6.35352 58.9162 6.91131 59.9153 7.90418C60.9143 8.89706 61.4756 10.2437 61.4756 11.6478C61.4756 13.052 60.9143 14.3986 59.9153 15.3915C58.9162 16.3843 57.5612 16.9421 56.1484 16.9421V16.9405Z" fill="#EF5388"/>
<path d="M73.9049 12.5288H66.8022C66.569 12.5288 66.3381 12.4832 66.1226 12.3945C65.9072 12.3058 65.7114 12.1758 65.5465 12.0119C65.3816 11.848 65.2508 11.6535 65.1615 11.4393C65.0723 11.2252 65.0264 10.9957 65.0264 10.7639C65.0264 10.5322 65.0723 10.3027 65.1615 10.0885C65.2508 9.8744 65.3816 9.67984 65.5465 9.51595C65.7114 9.35207 65.9072 9.22206 66.1226 9.13337C66.3381 9.04467 66.569 8.99902 66.8022 8.99902H73.9049C74.1381 8.99902 74.369 9.04467 74.5845 9.13337C74.8 9.22206 74.9957 9.35207 75.1606 9.51595C75.3255 9.67984 75.4563 9.8744 75.5456 10.0885C75.6348 10.3027 75.6808 10.5322 75.6808 10.7639C75.6808 10.9957 75.6348 11.2252 75.5456 11.4393C75.4563 11.6535 75.3255 11.848 75.1606 12.0119C74.9957 12.1758 74.8 12.3058 74.5845 12.3945C74.369 12.4832 74.1381 12.5288 73.9049 12.5288Z" fill="#EF5388"/>
<path d="M75.5025 21.5294C75.2622 21.5291 75.0244 21.4802 74.8038 21.3855L66.1033 17.6791C65.6705 17.4948 65.3291 17.147 65.1543 16.7125C64.9794 16.278 64.9854 15.7922 65.171 15.3621C65.3565 14.9319 65.7064 14.5926 66.1436 14.4189C66.5809 14.2451 67.0697 14.2511 67.5025 14.4355L76.2029 18.1418C76.5788 18.3021 76.8875 18.5864 77.0769 18.9467C77.2663 19.307 77.3247 19.7212 77.2424 20.1194C77.1601 20.5176 76.942 20.8753 76.625 21.1322C76.308 21.3891 75.9115 21.5294 75.5025 21.5294Z" fill="#EF5388"/>
<path d="M66.8036 7.23608C66.3945 7.23607 65.9981 7.09577 65.6811 6.83888C65.3641 6.58199 65.146 6.22425 65.0637 5.82608C64.9814 5.42791 65.0398 5.0137 65.2292 4.6534C65.4186 4.29311 65.7273 4.0088 66.1031 3.8485L74.8036 0.142985C75.0179 0.0516828 75.2482 0.00322429 75.4814 0.000377329C75.7145 -0.00246964 75.946 0.0403504 76.1625 0.126392C76.379 0.212434 76.5763 0.340012 76.7432 0.501843C76.9101 0.663674 77.0433 0.856589 77.1351 1.06957C77.227 1.28256 77.2758 1.51144 77.2786 1.74315C77.2815 1.97486 77.2384 2.20486 77.1518 2.42002C77.0652 2.63518 76.9369 2.83129 76.774 2.99715C76.6112 3.16301 76.4171 3.29537 76.2028 3.38667L67.5023 7.09218C67.2816 7.18685 67.0439 7.23582 66.8036 7.23608Z" fill="#EF5388"/>
<path d="M20.6334 12.5288H13.5308C13.0598 12.5288 12.6081 12.3429 12.275 12.0119C11.942 11.6809 11.7549 11.232 11.7549 10.7639C11.7549 10.2958 11.942 9.84694 12.275 9.51595C12.6081 9.18497 13.0598 8.99902 13.5308 8.99902H20.6334C21.1044 8.99902 21.5561 9.18497 21.8891 9.51595C22.2222 9.84694 22.4093 10.2958 22.4093 10.7639C22.4093 11.232 22.2222 11.6809 21.8891 12.0119C21.5561 12.3429 21.1044 12.5288 20.6334 12.5288Z" fill="#EF5388"/>
<path d="M11.9344 21.5294C11.5254 21.5294 11.1289 21.3891 10.8119 21.1322C10.495 20.8753 10.2769 20.5176 10.1946 20.1194C10.1122 19.7212 10.1707 19.307 10.3601 18.9467C10.5494 18.5864 10.8581 18.3021 11.234 18.1418L19.9345 14.4355C20.3673 14.2511 20.8561 14.2451 21.2933 14.4189C21.7306 14.5926 22.0804 14.9319 22.266 15.3621C22.4515 15.7922 22.4575 16.278 22.2827 16.7125C22.1078 17.147 21.7665 17.4948 21.3336 17.6791L12.6332 21.3855C12.4125 21.4802 12.1748 21.5291 11.9344 21.5294Z" fill="#EF5388"/>
<path d="M20.6342 7.23608C20.3939 7.23582 20.1561 7.18685 19.9355 7.09218L11.2342 3.38667C10.8014 3.20227 10.46 2.85456 10.2851 2.42002C10.1103 1.98548 10.1163 1.49971 10.3018 1.06957C10.4874 0.639433 10.8372 0.30016 11.2745 0.126392C11.7117 -0.0473773 12.2005 -0.0414084 12.6333 0.142984L21.3346 3.8485C21.7105 4.0088 22.0192 4.29311 22.2086 4.6534C22.398 5.0137 22.4564 5.42791 22.3741 5.82608C22.2918 6.22425 22.0737 6.58199 21.7567 6.83888C21.4397 7.09576 21.0432 7.23607 20.6342 7.23608Z" fill="#EF5388"/>
</svg>
