<svg width="92" height="92" viewBox="0 0 92 92" fill="none" xmlns="http://www.w3.org/2000/svg">
<path fill-rule="evenodd" clip-rule="evenodd" d="M15.2551 6H34.7899C39.8961 6 44.045 10.1488 44.045 15.2551V34.7898C44.045 39.8961 39.8961 44.0449 34.7899 44.0449H15.2551C10.1489 44.0449 6.00005 39.8961 6.00005 34.7898V15.2551C5.98325 10.1488 10.1489 6 15.2551 6Z" fill="white"/>
<path fill-rule="evenodd" clip-rule="evenodd" d="M58.1545 48.8992H77.6893C82.7955 48.8992 86.9443 53.048 86.9443 58.1542V77.689C86.9443 82.7953 82.7955 86.9441 77.6893 86.9441H58.1545C53.0482 86.9441 48.8994 82.7953 48.8994 77.689V58.171C48.8994 53.0648 53.0482 48.8992 58.1545 48.8992Z" fill="white"/>
<path fill-rule="evenodd" clip-rule="evenodd" d="M15.2547 6H34.7895C39.8957 6 44.0445 10.1488 44.0445 15.2551V34.7898C44.0445 38.8043 41.4746 42.2477 37.8801 43.5242C39.207 41.9117 40.0133 39.8625 40.0133 37.6117V18.077C40.0133 12.9707 35.8645 8.82188 30.7582 8.82188H11.2234C10.1316 8.82188 9.09023 9.00664 8.13281 9.35938C9.8293 7.31016 12.3824 6 15.2547 6Z" fill="#D1D1D1"/>
<path fill-rule="evenodd" clip-rule="evenodd" d="M58.1541 48.8992H77.6889C82.7951 48.8992 86.9439 53.048 86.9439 58.1543V77.689C86.9439 81.7035 84.374 85.1468 80.7795 86.4234C82.1064 84.8109 82.9127 82.7617 82.9127 80.5109V60.9929C82.9127 55.8867 78.7639 51.7378 73.6576 51.7378H54.1229C53.0311 51.7378 51.9896 51.9226 51.0322 52.2753C52.7287 50.2093 55.2986 48.8992 58.1541 48.8992Z" fill="#D1D1D1"/>
<path fill-rule="evenodd" clip-rule="evenodd" d="M57.5501 7.05811H77.0848C82.1911 7.05811 86.3399 11.2069 86.3399 16.3132V35.8479C86.3399 40.9542 82.1911 45.103 77.0848 45.103H57.5501C52.4438 45.103 48.295 40.9542 48.295 35.8479V16.3132C48.2782 11.2069 52.4438 7.05811 57.5501 7.05811Z" fill="white"/>
<path fill-rule="evenodd" clip-rule="evenodd" d="M57.5496 7.05811H77.0844C82.1906 7.05811 86.3395 11.2069 86.3395 16.3132V35.8479C86.3395 39.8624 83.7695 43.3058 80.175 44.5823C81.5019 42.9698 82.3082 40.9206 82.3082 38.6698V19.1351C82.3082 14.0288 78.1594 9.87998 73.0531 9.87998H53.5184C52.4266 9.87998 51.3852 10.0647 50.4277 10.4175C52.1242 8.36826 54.6773 7.05811 57.5496 7.05811Z" fill="#D1D1D1"/>
<path fill-rule="evenodd" clip-rule="evenodd" d="M36.6043 19.79H20.4121C19.9922 19.79 19.6562 19.4541 19.6562 19.0342C19.6562 18.6143 19.9922 18.2783 20.4121 18.2783H36.6043C37.0242 18.2783 37.3602 18.6143 37.3602 19.0342C37.3602 19.4541 37.0242 19.79 36.6043 19.79Z" fill="#26385A"/>
<path fill-rule="evenodd" clip-rule="evenodd" d="M36.6043 24.7622H20.4121C19.9922 24.7622 19.6562 24.4263 19.6562 24.0063C19.6562 23.5864 19.9922 23.2505 20.4121 23.2505H36.6043C37.0242 23.2505 37.3602 23.5864 37.3602 24.0063C37.3602 24.4263 37.0242 24.7622 36.6043 24.7622Z" fill="#26385A"/>
<path fill-rule="evenodd" clip-rule="evenodd" d="M36.1668 34.5547H19.9746C19.5547 34.5547 19.2188 34.2188 19.2188 33.7988C19.2188 33.3789 19.5547 33.043 19.9746 33.043H36.1668C36.5867 33.043 36.9227 33.3789 36.9227 33.7988C36.9227 34.2188 36.5867 34.5547 36.1668 34.5547Z" fill="#26385A"/>
<path fill-rule="evenodd" clip-rule="evenodd" d="M36.1668 37.5947H19.9746C19.5547 37.5947 19.2188 37.2588 19.2188 36.8389C19.2188 36.4189 19.5547 36.083 19.9746 36.083H36.1668C36.5867 36.083 36.9227 36.4189 36.9227 36.8389C36.9227 37.2588 36.5867 37.5947 36.1668 37.5947Z" fill="#26385A"/>
<path fill-rule="evenodd" clip-rule="evenodd" d="M79.5867 61.312H63.3945C62.9746 61.312 62.6387 60.9761 62.6387 60.5562C62.6387 60.1362 62.9746 59.8003 63.3945 59.8003H79.5867C80.0066 59.8003 80.3426 60.1362 80.3426 60.5562C80.3426 60.9593 80.0066 61.312 79.5867 61.312Z" fill="#26385A"/>
<path fill-rule="evenodd" clip-rule="evenodd" d="M79.5867 64.3525H63.3945C62.9746 64.3525 62.6387 64.0166 62.6387 63.5967C62.6387 63.1768 62.9746 62.8408 63.3945 62.8408H79.5867C80.0066 62.8408 80.3426 63.1768 80.3426 63.5967C80.3426 64.0166 80.0066 64.3525 79.5867 64.3525Z" fill="#26385A"/>
<path fill-rule="evenodd" clip-rule="evenodd" d="M79.3355 79.436H63.1602C62.7402 79.436 62.4043 79.1001 62.4043 78.6802C62.4043 78.2603 62.7402 77.9243 63.1602 77.9243H79.3523C79.7723 77.9243 80.1082 78.2603 80.1082 78.6802C80.0914 79.0833 79.7555 79.436 79.3355 79.436Z" fill="#26385A"/>
<path fill-rule="evenodd" clip-rule="evenodd" d="M79.5873 77.4707H58.5576C58.1377 77.4707 57.8018 77.1348 57.8018 76.7148C57.8018 76.2949 58.1377 75.959 58.5576 75.959H79.5873C80.0072 75.959 80.3432 76.2949 80.3432 76.7148C80.3432 77.1348 80.0072 77.4707 79.5873 77.4707Z" fill="#26385A"/>
<path fill-rule="evenodd" clip-rule="evenodd" d="M78.243 19.4541H62.0508C61.6309 19.4541 61.2949 19.1182 61.2949 18.6982C61.2949 18.2783 61.6309 17.9424 62.0508 17.9424H78.243C78.6629 17.9424 78.9988 18.2783 78.9988 18.6982C78.9988 19.1182 78.6629 19.4541 78.243 19.4541Z" fill="#26385A"/>
<path fill-rule="evenodd" clip-rule="evenodd" d="M78.243 22.4946H62.0508C61.6309 22.4946 61.2949 22.1587 61.2949 21.7388C61.2949 21.3188 61.6309 20.9829 62.0508 20.9829H78.243C78.6629 20.9829 78.9988 21.3188 78.9988 21.7388C78.9988 22.1587 78.6629 22.4946 78.243 22.4946Z" fill="#26385A"/>
<path fill-rule="evenodd" clip-rule="evenodd" d="M77.9918 34.2188H61.8164C61.3965 34.2188 61.0605 33.8828 61.0605 33.4629C61.0605 33.043 61.3965 32.707 61.8164 32.707H78.0086C78.4285 32.707 78.7645 33.043 78.7645 33.4629C78.7477 33.8828 78.4117 34.2188 77.9918 34.2188Z" fill="#26385A"/>
<path d="M14.5488 13.3236C14.2297 12.8701 13.709 12.6182 13.1547 12.6182H12.7852C12.4156 12.6182 12.0461 12.7357 11.727 12.9877C11.5422 13.1221 11.3742 13.2732 11.2566 13.4412L8.68672 16.4646C8.40117 16.8174 8.25 17.2373 8.25 17.7076C8.25 18.0604 8.35078 18.4299 8.53555 18.7994C8.66992 19.0514 8.8043 19.2697 8.93867 19.4545C9.12344 19.6896 9.3418 19.8744 9.61055 19.992C9.8625 20.1096 10.1145 20.1768 10.3496 20.1768C10.4336 20.1768 10.5176 20.1768 10.6016 20.16V27.5842C10.6016 27.9705 10.7191 28.34 10.9207 28.6592C11.0887 28.9111 11.3238 29.1295 11.5758 29.2807C11.7773 29.3982 11.9789 29.499 12.1973 29.5662C12.4324 29.6334 12.6844 29.6838 12.9195 29.6838H12.9699C13.625 29.6838 14.1961 29.3814 14.532 28.8775C14.7672 28.5248 14.8848 28.1049 14.8848 27.6346V14.4658C14.9184 14.0459 14.784 13.6596 14.5488 13.3236Z" fill="#DD2E7A"/>
<path d="M14.1797 13.3236C13.8605 12.8701 13.3398 12.6182 12.7855 12.6182H12.416C12.0465 12.6182 11.677 12.7357 11.3578 12.9877C11.173 13.1221 11.0051 13.2732 10.8875 13.4412L8.31758 16.4646C8.03203 16.8174 7.88086 17.2373 7.88086 17.7076C7.88086 18.0604 7.98164 18.4299 8.16641 18.7994C8.30078 19.0514 8.43516 19.2697 8.56953 19.4545C8.7543 19.6896 8.97266 19.8744 9.24141 19.992C9.49336 20.1096 9.74531 20.1768 9.98047 20.1768C10.0645 20.1768 10.1484 20.1768 10.2324 20.16V27.5842C10.2324 27.9705 10.35 28.34 10.5516 28.6592C10.7195 28.9111 10.9547 29.1295 11.2066 29.2807C11.4082 29.3982 11.6098 29.499 11.8281 29.5662C12.0633 29.6334 12.3152 29.6838 12.5504 29.6838H12.6008C13.2559 29.6838 13.827 29.3814 14.1629 28.8775C14.398 28.5248 14.5156 28.1049 14.5156 27.6346V14.4658C14.5492 14.0459 14.4148 13.6596 14.1797 13.3236Z" fill="#FF40A2"/>
<path opacity="0.57" d="M9.02344 16.7839L11.6941 13.7772C11.6941 13.7772 12.5844 12.7862 13.3906 13.6261" stroke="white" stroke-width="2" stroke-miterlimit="10" stroke-linecap="round"/>
<path opacity="0.57" d="M10.8033 26.4924C10.8033 26.4924 10.6522 28.3905 11.8112 28.7432" stroke="white" stroke-width="2" stroke-miterlimit="10" stroke-linecap="round"/>
<path fill-rule="evenodd" clip-rule="evenodd" d="M15.7258 48.6304H35.2605C40.3668 48.6304 44.5156 52.7792 44.5156 57.8855V77.4202C44.5156 82.5265 40.3668 86.6753 35.2605 86.6753H15.7258C10.6195 86.6753 6.4707 82.5265 6.4707 77.4202V57.9022C6.4707 52.796 10.6195 48.6304 15.7258 48.6304Z" fill="white"/>
<path fill-rule="evenodd" clip-rule="evenodd" d="M15.7254 48.6304H35.2602C40.3664 48.6304 44.5152 52.7792 44.5152 57.8855V77.4202C44.5152 81.4347 41.9453 84.878 38.3508 86.1546C39.6777 84.5421 40.484 82.4929 40.484 80.2421V60.7241C40.484 55.6179 36.3352 51.469 31.2289 51.469H11.6941C10.6023 51.469 9.56094 51.6538 8.60352 52.0065C10.3 49.9405 12.8699 48.6304 15.7254 48.6304Z" fill="#D1D1D1"/>
<path fill-rule="evenodd" clip-rule="evenodd" d="M37.6795 62.4375H21.4873C21.0674 62.4375 20.7314 62.1016 20.7314 61.6816C20.7314 61.2617 21.0674 60.9258 21.4873 60.9258H37.6795C38.0994 60.9258 38.4354 61.2617 38.4354 61.6816C38.4354 62.1016 38.0994 62.4375 37.6795 62.4375Z" fill="#26385A"/>
<path fill-rule="evenodd" clip-rule="evenodd" d="M37.6795 67.3926H21.4873C21.0674 67.3926 20.7314 67.0566 20.7314 66.6367C20.7314 66.2168 21.0674 65.8809 21.4873 65.8809H37.6795C38.0994 65.8809 38.4354 66.2168 38.4354 66.6367C38.4354 67.0566 38.0994 67.3926 37.6795 67.3926Z" fill="#26385A"/>
<path fill-rule="evenodd" clip-rule="evenodd" d="M37.2256 77.1851H11.6104C11.1904 77.1851 10.8545 76.8491 10.8545 76.4292C10.8545 76.0093 11.1904 75.6733 11.6104 75.6733H37.2256C37.6455 75.6733 37.9814 76.0093 37.9814 76.4292C37.9814 76.8491 37.6455 77.1851 37.2256 77.1851Z" fill="#26385A"/>
<path fill-rule="evenodd" clip-rule="evenodd" d="M37.2254 80.2422H21.0332C20.6133 80.2422 20.2773 79.9062 20.2773 79.4863C20.2773 79.0664 20.6133 78.7305 21.0332 78.7305H37.2254C37.6453 78.7305 37.9813 79.0664 37.9813 79.4863C37.9813 79.8895 37.6453 80.2422 37.2254 80.2422Z" fill="#26385A"/>
<path d="M17.5566 64.6377C17.4223 64.3858 17.2543 64.1338 17.0863 63.9155C17.2039 63.7643 17.3215 63.5963 17.4223 63.4284C17.7582 62.8573 17.9262 62.219 17.9262 61.5135C17.9262 60.8752 17.8086 60.2874 17.5566 59.7666C17.3215 59.2627 16.9855 58.826 16.5656 58.4733C16.1625 58.1206 15.6754 57.8686 15.1547 57.6838C14.6508 57.5159 14.0965 57.4319 13.5422 57.4319C13.1391 57.4319 12.7359 57.4655 12.3328 57.5159C11.9297 57.5663 11.5434 57.6502 11.1906 57.751C10.7035 57.8518 10.4348 58.087 10.2836 58.2885C10.082 58.5573 9.98125 58.8764 9.98125 59.2459V59.3299C9.98125 59.4307 9.99805 59.5147 10.0148 59.6323C10.0148 59.6491 10.0316 59.6659 10.0316 59.6995C10.0484 59.7834 10.082 59.8506 10.0988 59.9178C10.1156 59.9514 10.1156 59.9682 10.1324 60.0186C10.1492 60.0858 10.1828 60.153 10.2164 60.2034C10.334 60.4217 10.4516 60.5897 10.6027 60.7409C10.8715 61.0096 11.2242 61.144 11.5938 61.144H11.6609C11.7953 61.144 11.8793 61.1272 12.0977 61.0768C12.148 61.06 12.2488 61.0432 12.4336 61.0096C12.6016 60.976 12.7863 60.9592 12.9879 60.9256C13.1559 60.9088 13.3238 60.892 13.475 60.892C13.6598 60.892 13.8445 60.9088 13.9957 60.9424C14.1133 60.976 14.2309 61.0264 14.3148 61.0768C14.3652 61.1104 14.3988 61.144 14.4324 61.1944C14.4492 61.228 14.4492 61.2616 14.4492 61.3288C14.4492 61.4799 14.4324 61.5807 14.382 61.6479C14.298 61.7823 14.1973 61.8831 14.0797 61.9502C13.9453 62.0342 13.8277 62.1014 13.6934 62.135C13.5086 62.1854 13.391 62.2022 13.3406 62.2022C13.2398 62.1854 13.1391 62.1854 13.0383 62.1854H12.7695C12.232 62.1854 11.7617 62.4206 11.5266 62.8405C11.3586 63.1092 11.2914 63.4284 11.2914 63.7979V63.9155C11.2914 64.3018 11.3418 64.6041 11.4426 64.8561C11.5434 65.1081 11.8793 65.6959 12.8535 65.6959H13.3574C13.5254 65.6959 13.6934 65.7295 13.8613 65.7799C14.0125 65.8303 14.1301 65.8975 14.2477 65.9815C14.3484 66.0655 14.4324 66.1663 14.4996 66.2838C14.55 66.3678 14.5668 66.4854 14.5668 66.6198C14.5668 66.8045 14.5332 66.8885 14.5164 66.9389C14.4828 67.0229 14.4492 67.0901 14.3988 67.1237C14.3484 67.1741 14.2812 67.2245 14.2309 67.2581C14.1133 67.3084 14.0125 67.3588 13.9117 67.3756C13.7941 67.4092 13.7102 67.426 13.6598 67.426C13.5254 67.4428 13.4582 67.4428 13.4414 67.4428C13.1727 67.4428 12.9543 67.426 12.7863 67.4092C12.6016 67.3756 12.4504 67.3588 12.3328 67.3252C12.2992 67.3084 12.2488 67.3084 12.2152 67.3084L12.0809 67.2748C12.0473 67.2581 12.0137 67.2581 11.9801 67.2581C11.8121 67.2077 11.6441 67.1909 11.4762 67.1909C11.157 67.1909 10.8547 67.2916 10.6195 67.4932C10.4516 67.6276 10.3172 67.7788 10.2164 67.9803C10.1324 68.1147 10.082 68.2659 10.0316 68.417C9.99805 68.5178 9.98125 68.6018 9.96445 68.6858C9.94766 68.753 9.93086 68.837 9.93086 68.9209C9.93086 68.9881 9.91406 69.0553 9.91406 69.1225C9.91406 69.5928 10.0988 70.0127 10.4348 70.2983C10.6363 70.4663 10.8547 70.6006 11.0898 70.6846C11.1234 70.7014 11.157 70.7014 11.1906 70.7182C11.4594 70.7854 11.7953 70.8526 12.1984 70.8862C12.5848 70.9198 12.9879 70.9534 13.4246 70.9534C13.6262 70.9534 13.8613 70.9366 14.1637 70.903C14.466 70.8694 14.7852 70.8022 15.1211 70.7014C15.457 70.6006 15.793 70.4495 16.1121 70.2815C16.4816 70.0799 16.8008 69.828 17.0863 69.5088C17.3887 69.1897 17.6238 68.7866 17.8086 68.3331C17.9766 67.8795 18.0773 67.342 18.0773 66.7709C18.0773 65.9647 17.8926 65.276 17.5566 64.6377Z" fill="#009AA8"/>
<path d="M17.2879 64.6377C17.1535 64.3858 16.9855 64.1338 16.8176 63.9155C16.9352 63.7643 17.0527 63.5963 17.1535 63.4284C17.4895 62.8573 17.6574 62.219 17.6574 61.5135C17.6574 60.8752 17.5398 60.2874 17.2879 59.7666C17.0527 59.2627 16.7168 58.826 16.2969 58.4733C15.8938 58.1206 15.4066 57.8686 14.8859 57.6838C14.382 57.5159 13.8277 57.4319 13.2734 57.4319C12.8703 57.4319 12.4672 57.4655 12.0641 57.5159C11.6609 57.5663 11.2746 57.6502 10.9219 57.751C10.4348 57.8518 10.166 58.087 10.0148 58.2885C9.81328 58.5573 9.7125 58.8764 9.7125 59.2459V59.3299C9.7125 59.4307 9.7293 59.5147 9.74609 59.6323C9.74609 59.6491 9.76289 59.6659 9.76289 59.6995C9.77969 59.7834 9.81328 59.8506 9.83008 59.9178C9.84688 59.9514 9.84688 59.9682 9.86367 60.0186C9.88047 60.0858 9.91406 60.153 9.94766 60.2034C10.0652 60.4217 10.1828 60.5897 10.334 60.7409C10.6027 61.0096 10.9555 61.144 11.325 61.144H11.3922C11.5266 61.144 11.6105 61.1272 11.8289 61.0768C11.8793 61.06 11.9801 61.0432 12.1648 61.0096C12.3328 60.976 12.5176 60.9592 12.7191 60.9256C12.8871 60.9088 13.0551 60.892 13.2062 60.892C13.391 60.892 13.5758 60.9088 13.727 60.9424C13.8445 60.976 13.9621 61.0264 14.0461 61.0768C14.0965 61.1104 14.1301 61.144 14.1637 61.1944C14.1805 61.228 14.1805 61.2616 14.1805 61.3288C14.1805 61.4799 14.1637 61.5807 14.1133 61.6479C14.0293 61.7823 13.9285 61.8831 13.8109 61.9502C13.6766 62.0342 13.559 62.1014 13.4246 62.135C13.2398 62.1854 13.1223 62.2022 13.0719 62.2022C12.9711 62.1854 12.8703 62.1854 12.7695 62.1854H12.5176C11.9801 62.1854 11.5098 62.4206 11.2746 62.8405C11.1066 63.1092 11.0395 63.4284 11.0395 63.7979V63.9155C11.0395 64.3018 11.0898 64.6041 11.1906 64.8561C11.2914 65.1081 11.6273 65.6959 12.6016 65.6959H13.1055C13.2734 65.6959 13.4414 65.7295 13.6094 65.7799C13.7605 65.8303 13.8781 65.8975 13.9957 65.9815C14.0965 66.0655 14.1805 66.1663 14.2477 66.2838C14.298 66.3678 14.3148 66.4854 14.3148 66.6198C14.3148 66.8045 14.2813 66.8885 14.2645 66.9389C14.2309 67.0229 14.1973 67.0901 14.1469 67.1237C14.0965 67.1741 14.0293 67.2245 13.9789 67.2581C13.8613 67.3084 13.7605 67.3588 13.6598 67.3756C13.5422 67.4092 13.4582 67.426 13.4078 67.426C13.2734 67.4428 13.2063 67.4428 13.1895 67.4428C12.9207 67.4428 12.7023 67.426 12.5344 67.4092C12.3496 67.3756 12.1984 67.3588 12.0809 67.3252C12.0473 67.3084 11.9969 67.3084 11.9633 67.3084L11.8289 67.2748C11.7953 67.2581 11.7617 67.2581 11.7281 67.2581C11.5602 67.2077 11.3922 67.1909 11.2242 67.1909C10.9051 67.1909 10.6027 67.2916 10.3676 67.4932C10.1996 67.6276 10.0652 67.7788 9.96445 67.9803C9.88047 68.1147 9.83008 68.2659 9.77969 68.417C9.74609 68.5178 9.7293 68.6018 9.7125 68.6858C9.6957 68.753 9.67891 68.837 9.67891 68.9209C9.67891 68.9881 9.66211 69.0553 9.66211 69.1225C9.66211 69.5928 9.84687 70.0127 10.1828 70.2983C10.3844 70.4663 10.6027 70.6006 10.8379 70.6846C10.8715 70.7014 10.9051 70.7014 10.9387 70.7182C11.2074 70.7854 11.5434 70.8526 11.9465 70.8862C12.3328 70.9198 12.7359 70.9534 13.1727 70.9534C13.3742 70.9534 13.6094 70.9366 13.9117 70.903C14.2141 70.8694 14.5332 70.8022 14.8691 70.7014C15.2051 70.6006 15.541 70.4495 15.8602 70.2815C16.2297 70.0799 16.5488 69.828 16.8344 69.5088C17.1367 69.1897 17.3719 68.7866 17.5566 68.3331C17.7246 67.8795 17.8254 67.342 17.8254 66.7709C17.8086 65.9647 17.6406 65.276 17.2879 64.6377Z" fill="#00CDDF"/>
<path opacity="0.5" d="M10.25 59.2627C10.25 59.2627 10.2332 57.9022 12.3832 57.8518" stroke="white" stroke-width="2" stroke-miterlimit="10" stroke-linecap="round"/>
<path opacity="0.5" d="M11.5098 64.1675C11.5098 64.1675 11.493 65.5112 13.0383 65.3433" stroke="white" stroke-width="2" stroke-miterlimit="10" stroke-linecap="round"/>
<path opacity="0.5" d="M15.6924 58.5574C15.6924 58.5574 16.6834 58.9605 16.9857 60.321" stroke="white" stroke-width="2" stroke-miterlimit="10" stroke-linecap="round"/>
<path opacity="0.5" d="M10.25 69.408C10.25 69.408 10.5523 71.1884 15.0875 70.1806" stroke="white" stroke-width="2" stroke-miterlimit="10" stroke-linecap="round"/>
<path d="M60.5725 28.978C60.5725 28.9444 60.5725 28.9108 60.5557 28.894C60.5557 28.8269 60.5389 28.7597 60.5053 28.6925C60.4717 28.5581 60.4213 28.4237 60.3541 28.2894C60.2869 28.1046 60.1861 27.9534 60.0854 27.8022C59.9342 27.5839 59.7494 27.3991 59.5311 27.2647C59.2623 27.0968 58.9432 26.996 58.5904 26.996H57.3139C57.5994 26.6265 57.885 26.2569 58.1537 25.8538C58.624 25.1651 59.0271 24.4093 59.3799 23.603C59.7494 22.7464 59.9846 21.8394 60.0518 20.8987C60.0518 20.8819 60.0518 20.8483 60.0518 20.8315V20.6636C60.0518 20.4956 60.0518 20.3108 60.0518 20.1093C60.0518 19.8405 60.0182 19.639 60.0014 19.4878C59.8838 18.8999 59.6822 18.3456 59.3799 17.8585C59.0775 17.3714 58.708 16.9515 58.2713 16.5987C57.8346 16.2628 57.3475 15.994 56.81 15.8093C56.2725 15.6245 55.7182 15.5405 55.1303 15.5405C54.3744 15.5405 53.7361 15.6077 53.249 15.7253C52.9131 15.8093 52.6275 15.8933 52.4092 15.9437C52.3084 15.9604 52.2076 15.9772 52.1236 16.0108C51.6533 16.1956 51.3342 16.4476 51.1326 16.7667C50.9479 17.0522 50.8639 17.405 50.8639 17.7913C50.8639 18.0433 50.9311 18.312 51.0654 18.5976C51.1494 18.7823 51.2502 18.9503 51.3678 19.1015C51.5021 19.2862 51.6365 19.4542 51.8045 19.5886C52.1236 19.8741 52.4596 20.0085 52.8123 20.0085C52.9971 20.0085 53.1314 19.9917 53.2658 19.9749C53.3834 19.9413 53.5178 19.9077 53.6689 19.8237C53.7529 19.8069 53.9041 19.7565 54.2232 19.6726C54.4584 19.6054 54.7775 19.5718 55.1303 19.5718C55.3822 19.5718 55.5838 19.6222 55.7014 19.7062C55.735 19.7397 55.8357 19.8069 55.9029 20.0757C55.9197 20.1597 55.9365 20.2437 55.9533 20.3612C55.9701 20.4452 55.9701 20.4788 55.9701 20.4956C55.9533 20.8483 55.8861 21.2179 55.7518 21.5874C55.6006 22.0241 55.3822 22.444 55.1471 22.864C54.8783 23.3007 54.5928 23.7206 54.2736 24.1405C53.9377 24.5772 53.6018 24.9804 53.2658 25.3331C52.9299 25.7026 52.6107 26.0386 52.3252 26.3241C52.0229 26.6265 51.7709 26.8784 51.5693 27.0632C51.4686 27.164 51.3678 27.2479 51.2838 27.3319C51.183 27.4159 51.1158 27.4831 51.0822 27.5335C51.0486 27.5671 51.015 27.6007 50.9982 27.6343C50.8807 27.7687 50.7967 27.903 50.7295 28.0038C50.5615 28.2558 50.4775 28.5749 50.4775 28.9444V29.062C50.4775 29.1124 50.4775 29.146 50.4775 29.1964C50.4943 29.3476 50.5279 29.4819 50.5615 29.6331C50.6119 29.8347 50.6959 30.0194 50.7967 30.1874C50.9479 30.4394 51.1326 30.6409 51.3678 30.7753C51.6365 30.9433 51.9389 31.0272 52.2916 31.0272H58.792C59.1783 31.0272 59.5311 30.9265 59.8502 30.7417C60.3541 30.4394 60.6396 29.9187 60.6396 29.2804C60.6229 29.1628 60.6061 29.062 60.5725 28.978Z" fill="#D86300"/>
<path d="M60.2199 28.978C60.2199 28.9444 60.2199 28.9108 60.2031 28.894C60.2031 28.8269 60.1863 28.7597 60.1527 28.6925C60.1191 28.5581 60.0688 28.4237 60.0016 28.2894C59.9344 28.1046 59.8336 27.9534 59.7328 27.8022C59.5816 27.5839 59.3969 27.3991 59.1785 27.2647C58.9098 27.0968 58.5906 26.996 58.2379 26.996H56.9613C57.2469 26.6265 57.5324 26.2569 57.8012 25.8538C58.2715 25.1651 58.6746 24.4093 59.0273 23.603C59.3969 22.7464 59.632 21.8394 59.6992 20.8987C59.6992 20.8819 59.6992 20.8483 59.6992 20.8315V20.6636C59.6992 20.4956 59.6992 20.3108 59.6992 20.1093C59.6992 19.8405 59.6656 19.639 59.6488 19.4878C59.5313 18.8999 59.3297 18.3456 59.0273 17.8585C58.725 17.3714 58.3555 16.9515 57.9187 16.5987C57.482 16.2628 56.9949 15.994 56.4574 15.8093C55.9199 15.6245 55.3656 15.5405 54.7777 15.5405C54.0219 15.5405 53.3836 15.6077 52.8965 15.7253C52.5605 15.8093 52.275 15.8933 52.0566 15.9437C51.9559 15.9604 51.8551 15.9772 51.7711 16.0108C51.3008 16.1956 50.9816 16.4476 50.7801 16.7667C50.5953 17.0522 50.5113 17.405 50.5113 17.7913C50.5113 18.0433 50.5785 18.312 50.7129 18.5976C50.7969 18.7823 50.8977 18.9503 51.0152 19.1015C51.1496 19.2862 51.284 19.4542 51.452 19.5886C51.7711 19.8741 52.107 20.0085 52.4598 20.0085C52.6445 20.0085 52.7789 19.9917 52.9133 19.9749C53.0309 19.9413 53.1652 19.9077 53.3164 19.8237C53.4004 19.8069 53.5516 19.7565 53.8707 19.6726C54.1059 19.6054 54.425 19.5718 54.7777 19.5718C55.0297 19.5718 55.2313 19.6222 55.3488 19.7062C55.3824 19.7397 55.4832 19.8069 55.5504 20.0757C55.5672 20.1597 55.584 20.2437 55.6008 20.3612C55.6176 20.4452 55.6176 20.4788 55.6176 20.4956C55.6008 20.8483 55.5336 21.2179 55.3992 21.5874C55.248 22.0241 55.0297 22.444 54.7945 22.864C54.5258 23.3007 54.2402 23.7206 53.9211 24.1405C53.5852 24.5772 53.2492 24.9804 52.9133 25.3331C52.5773 25.7026 52.2582 26.0386 51.9727 26.3241C51.6703 26.6265 51.4184 26.8784 51.2168 27.0632C51.116 27.164 51.0152 27.2479 50.9313 27.3319C50.8305 27.4159 50.7633 27.4831 50.7297 27.5335C50.6961 27.5671 50.6625 27.6007 50.6457 27.6343C50.5281 27.7687 50.4441 27.903 50.377 28.0038C50.209 28.2558 50.125 28.5749 50.125 28.9444V29.062C50.125 29.1124 50.125 29.146 50.125 29.1964C50.1418 29.3476 50.1754 29.4819 50.209 29.6331C50.2594 29.8347 50.3434 30.0194 50.4441 30.1874C50.5953 30.4394 50.7801 30.6409 51.0152 30.7753C51.284 30.9433 51.5863 31.0272 51.9391 31.0272H58.4395C58.8258 31.0272 59.1785 30.9265 59.4977 30.7417C60.0016 30.4394 60.2871 29.9187 60.2871 29.2804C60.2535 29.1628 60.2367 29.062 60.2199 28.978Z" fill="#FF8400"/>
<path opacity="0.5" d="M51.2843 17.8081C51.2843 17.8081 50.9484 16.5315 54.0054 16.2124" stroke="white" stroke-width="2" stroke-miterlimit="10" stroke-linecap="round"/>
<path opacity="0.5" d="M58.9605 19.4207C58.9605 19.4207 59.5484 21.4867 57.7344 24.4093" stroke="white" stroke-width="2" stroke-miterlimit="10" stroke-linecap="round"/>
<path opacity="0.5" d="M50.612 28.9612C50.612 28.9612 50.1081 30.6745 53.2323 30.5065" stroke="white" stroke-width="2" stroke-miterlimit="10" stroke-linecap="round"/>
<path opacity="0.5" d="M54.0049 30.5066H55.5334" stroke="white" stroke-width="2" stroke-miterlimit="10" stroke-linecap="round"/>
<path d="M61.6146 65.4777C61.5811 65.3434 61.5475 65.209 61.4971 65.0578C61.4299 64.8563 61.3459 64.6883 61.2451 64.5203C61.1275 64.3187 60.9764 64.1508 60.7916 63.9996C60.5564 63.8148 60.2877 63.6805 59.9854 63.6469V58.675C59.9854 58.2719 59.851 57.8855 59.5822 57.5664C59.2631 57.1801 58.8096 56.9785 58.2889 56.9785H57.9865C57.6002 56.9785 57.2139 57.1129 56.8947 57.3816C56.71 57.5328 56.5756 57.684 56.4748 57.8184L51.167 64.6043C51.1502 64.6211 51.1334 64.6547 51.1166 64.6715C50.8646 65.041 50.7471 65.4273 50.7471 65.8305C50.7471 66.3008 50.9318 66.7375 51.251 67.0902C51.6037 67.4598 52.074 67.6613 52.6115 67.6613H55.9037V70.6344C55.9037 71.0039 56.0213 71.3566 56.2396 71.659C56.3908 71.8605 56.5756 72.0285 56.7939 72.1797C56.9955 72.3141 57.2139 72.4148 57.4658 72.482C57.6842 72.5492 57.9025 72.5828 58.1209 72.5828H58.1881C59.0615 72.5828 59.4814 72.1125 59.6662 71.8438C59.8846 71.5246 59.9854 71.1383 59.9854 70.7184V67.6781C60.5564 67.6781 61.0603 67.4094 61.3627 66.9391C61.5643 66.6199 61.665 66.2672 61.665 65.8809V65.7465C61.6482 65.6625 61.6314 65.5617 61.6146 65.4777ZM57.0795 64.7723H55.2822L57.0795 62.3871V64.7723Z" fill="#23098A"/>
<path d="M61.2787 65.4777C61.2451 65.3434 61.2115 65.209 61.1611 65.0578C61.0939 64.8563 61.01 64.6883 60.9092 64.5203C60.7916 64.3187 60.6404 64.1508 60.4557 63.9996C60.2205 63.8148 59.9518 63.6805 59.6494 63.6469V58.675C59.6494 58.2719 59.515 57.8855 59.2463 57.5664C58.9271 57.1801 58.4736 56.9785 57.9529 56.9785H57.6506C57.2643 56.9785 56.8779 57.1129 56.5588 57.3816C56.374 57.5328 56.2396 57.684 56.1389 57.8184L50.8311 64.6043C50.8143 64.6211 50.7975 64.6547 50.7807 64.6715C50.5287 65.041 50.4111 65.4273 50.4111 65.8305C50.4111 66.3008 50.5959 66.7375 50.915 67.0902C51.2678 67.4598 51.7381 67.6613 52.2756 67.6613H55.5678V70.6344C55.5678 71.0039 55.6853 71.3566 55.9037 71.659C56.0549 71.8605 56.2396 72.0285 56.458 72.1797C56.6596 72.3141 56.8779 72.4148 57.1299 72.482C57.3482 72.5492 57.5666 72.5828 57.785 72.5828H57.8521C58.7256 72.5828 59.1455 72.1125 59.3303 71.8438C59.5486 71.5246 59.6494 71.1383 59.6494 70.7184V67.6781C60.2205 67.6781 60.7244 67.4094 61.0268 66.9391C61.2283 66.6199 61.3291 66.2672 61.3291 65.8809V65.7465C61.3123 65.6625 61.2955 65.5617 61.2787 65.4777ZM56.7436 64.7723H54.9463L56.7436 62.3871V64.7723Z" fill="#3300FF"/>
<path opacity="0.7" d="M53.8375 61.4968L51.2676 64.7722" stroke="white" stroke-width="2" stroke-miterlimit="10" stroke-linecap="round"/>
<path opacity="0.7" d="M58.2891 57.5496C58.2891 57.5496 59.0449 57.7343 59.0953 59.0613C59.1457 60.3882 59.0953 62.6558 59.0953 62.6558" stroke="white" stroke-width="2" stroke-miterlimit="10" stroke-linecap="round"/>
<path opacity="0.7" d="M55.9543 69.022C55.9543 69.022 55.6183 71.9278 57.382 72.0454" stroke="white" stroke-width="2" stroke-miterlimit="10" stroke-linecap="round"/>
</svg>
