<svg width="92" height="92" viewBox="0 0 92 92" fill="none" xmlns="http://www.w3.org/2000/svg">
<path d="M55.3614 56.7846C54.1934 67.9611 43.8793 74.0705 33.3496 77.1791C20.9332 78.0416 10.17 69.758 8.04964 59.1564C5.56996 46.7041 15.3629 33.0479 30.1512 31.7002C32.3254 31.826 34.5176 32.1674 36.7098 32.7604L55.3614 56.7846Z" fill="#4164AA"/>
<path d="M33.35 77.1792C23.2156 80.18 12.9016 80.3776 10.4219 79.6229C8.22969 78.9401 7.83438 75.9932 9.775 74.7714C10.9969 73.9987 11.0148 72.3276 9.95469 71.4831C4.65391 67.2784 1.34766 61.2948 1.34766 54.6643C1.34766 40.8823 15.1656 30.8737 30.1516 31.7003C21.5625 35.1862 15.4711 43.8292 15.4711 53.9276C15.4711 65.2479 23.1078 74.7354 33.35 77.1792Z" fill="#38598E"/>
<path d="M82.1892 55.4371C84.1837 56.7128 83.7345 59.6417 81.5602 60.3066C79.5118 60.9355 72.0368 60.8636 63.7353 59.1566C51.7501 56.6769 43.5923 45.3746 45.0478 33.4613C46.5392 21.1707 57.8056 12.0066 70.4017 13.0847C82.0454 15.6542 90.6345 24.6566 90.6345 35.348C90.6345 41.9964 87.3282 47.98 82.0274 52.1667C80.9673 53.0292 81.0392 54.7003 82.1892 55.4371Z" fill="white"/>
<path d="M63.7529 59.1385C51.085 56.4612 36.5303 49.7768 36.5303 35.3299C36.5303 20.1284 53.4568 9.31119 70.4193 13.0667C58.524 15.151 49.5217 25.1417 49.5217 37.1448C49.5037 46.812 55.3076 55.1495 63.7529 59.1385Z" fill="#E5E5E5"/>
<path d="M35.2731 65.589C35.5426 66.2898 36.3153 66.6312 37.0161 66.3796C37.7169 66.1101 38.0583 65.3374 37.8067 64.6367C37.8067 64.6367 30.17 44.4218 30.17 44.4038C29.5411 42.8945 27.3848 42.9124 26.8098 44.4398L19.1192 64.6367C18.8497 65.3374 19.209 66.1101 19.8919 66.3796C20.5926 66.6492 21.3653 66.2898 21.6348 65.607L23.2161 61.4382H33.7098L35.2731 65.589ZM24.2223 58.7249L28.4629 47.5663L32.6676 58.7249H24.2223Z" fill="white"/>
<path d="M82.8719 53.2266C88.6758 48.6266 92 42.1219 92 35.3477C92 21.925 79.2602 11 63.5914 11C49.6117 11 37.95 19.6969 35.6141 31.125C17.6094 27.082 0 38.7437 0 54.6641C0 61.4383 3.32422 67.943 9.12813 72.543C9.46953 72.8125 9.46953 73.3695 9.09219 73.6211C10.0625 75.1305 10.0625 75.1305 9.07422 73.6391C6.16328 75.4719 6.75625 79.9102 10.0445 80.9164C12.6859 81.725 18.993 81.2219 21.8141 80.8984C22.5508 80.8086 23.0898 80.1438 23 79.407C22.9102 78.6703 22.2453 78.1312 21.5086 78.2211C15.6867 78.9039 11.8773 78.6523 10.8352 78.3469C9.79297 78.0234 9.4875 76.568 10.5477 75.9211C12.4883 74.6992 12.6141 71.8961 10.8172 70.4586C5.57031 66.2898 2.69531 60.6836 2.69531 54.6641C2.69531 40.3609 18.9031 29.993 35.2367 33.7844C35.0391 36.3719 35.3266 38.8875 35.9734 41.1336C36.1891 41.8523 36.9258 42.2656 37.6445 42.05C38.3633 41.8344 38.7766 41.0977 38.5609 40.3789C38.0938 38.7977 37.8602 37.0906 37.8602 35.3477C37.8602 23.3984 49.3961 13.6953 63.5734 13.6953C77.7508 13.6953 89.3047 23.3984 89.3047 35.3297C89.3047 41.3672 86.4297 46.9555 81.2008 51.1063C79.4039 52.5258 79.4938 55.3289 81.5062 56.5867C82.4766 57.1977 82.2789 58.6711 81.1828 59.0125C78.7391 59.7672 66.7 59.4258 55.9188 55.5445C55.8648 55.5266 55.8109 55.4906 55.7391 55.4906C50.1328 53.4602 44.4188 50.2797 41.0047 45.3922C40.5734 44.7812 39.7289 44.6375 39.1359 45.0687C38.525 45.5 38.3812 46.3445 38.8125 46.9375C42.4062 52.0766 48.1742 55.4547 53.9062 57.6648C51.9836 69.4703 38.525 75.1125 26.8273 77.3766C26.0906 77.5203 25.6234 78.2211 25.7672 78.9578C25.9109 79.6945 26.6117 80.1617 27.3484 80.018C40.1422 77.5383 54.1039 71.3391 56.4937 58.5813C66.8617 61.9953 78.7211 62.5883 82.0094 61.582C85.2438 60.5938 85.9445 56.1914 82.9617 54.2867C82.5484 54.0531 82.5305 53.4961 82.8719 53.2266Z" fill="black"/>
<path d="M64.9393 24.5125C64.2025 24.5125 63.5916 25.1234 63.5916 25.8601V28.5734H55.4697C54.733 28.5734 54.1221 29.1843 54.1221 29.921C54.1221 30.6578 54.733 31.2687 55.4697 31.2687H70.1682C69.5393 34.9882 67.8322 38.546 64.9393 41.1515C63.7893 40.1273 62.8369 38.9414 62.0283 37.6296C61.651 37.0007 60.8064 36.7851 60.1775 37.1804C59.5486 37.5578 59.333 38.4023 59.7283 39.0312C60.5728 40.4148 61.5791 41.6906 62.7471 42.8046C60.3572 44.2601 58.0572 44.7093 56.6916 44.8351C55.9549 44.907 55.4158 45.5718 55.4877 46.3085C55.5596 47.0453 56.2244 47.5843 56.9611 47.5125C58.74 47.3507 61.8307 46.7218 64.9572 44.5835C68.0658 46.7218 71.1744 47.3328 72.9533 47.5125C73.69 47.5843 74.3549 47.0453 74.4268 46.3085C74.4986 45.5718 73.9596 44.907 73.2228 44.8351C71.8572 44.7093 69.5572 44.2601 67.1674 42.8046C70.3838 39.714 72.2885 35.5812 72.9353 31.2867H74.4447C75.1814 31.2867 75.7924 30.6757 75.7924 29.939C75.7924 29.2023 75.1814 28.5914 74.4447 28.5914H66.3228V25.8601C66.2869 25.1234 65.6939 24.5125 64.9393 24.5125Z" fill="#4164AA"/>
</svg>
