<svg width="85" height="75" viewBox="0 0 85 75" fill="none" xmlns="http://www.w3.org/2000/svg">
<path d="M73.3809 57.0679H71.3349C73.2405 55.9247 74.7204 54.1845 75.5474 52.1144C76.3744 50.0442 76.5028 47.7584 75.913 45.6078C75.3232 43.4572 74.0477 41.5605 72.2823 40.2088C70.5168 38.8572 68.3589 38.1252 66.1398 38.1252C63.9206 38.1252 61.7627 38.8572 59.9973 40.2088C58.2318 41.5605 56.9564 43.4572 56.3665 45.6078C55.7767 47.7584 55.9052 50.0442 56.7322 52.1144C57.5592 54.1845 59.0391 55.9247 60.9447 57.0679H58.8986C57.2378 57.0692 55.597 57.4323 54.0891 58.1323C52.6109 57.4294 50.9956 57.0659 49.3604 57.0679H47.961C49.9839 55.7996 51.451 53.805 52.0644 51.489C52.6779 49.173 52.3919 46.7092 51.2643 44.5974C56.184 42.6455 60.2714 39.0283 62.8213 34.3702C65.3712 29.7121 66.2235 24.3053 65.2311 19.0829C64.2388 13.8605 61.4641 9.15013 57.3858 5.76478C53.3075 2.37944 48.1816 0.531476 42.8926 0.539823C37.6037 0.54817 32.4836 2.4123 28.4159 5.8105C24.3482 9.2087 21.5882 13.9278 20.6122 19.1533C19.6361 24.3788 20.5053 29.7829 23.0697 34.4329C25.6342 39.083 29.7329 42.6872 34.6586 44.6236C33.5382 46.7334 33.2569 49.1923 33.8718 51.5027C34.4866 53.8131 35.9516 55.8024 37.9703 57.0679H36.5752C34.9396 57.0661 33.324 57.4291 31.8447 58.1306C30.3373 57.4322 28.6975 57.0697 27.0378 57.0679H24.99C26.8956 55.9247 28.3755 54.1845 29.2025 52.1144C30.0295 50.0442 30.158 47.7584 29.5682 45.6078C28.9783 43.4572 27.7029 41.5605 25.9374 40.2088C24.172 38.8572 22.0141 38.1252 19.7949 38.1252C17.5758 38.1252 15.4179 38.8572 13.6524 40.2088C11.887 41.5605 10.6115 43.4572 10.0217 45.6078C9.43188 47.7584 9.56033 50.0442 10.3873 52.1144C11.2143 54.1845 12.6942 55.9247 14.5998 57.0679H12.5538C9.48193 57.0715 6.53692 58.2999 4.36487 60.4835C2.19282 62.6672 0.971112 65.6278 0.967773 68.7158V74.5398H38.6229V73.0832H47.3126V74.539H84.9678V68.7158C84.9644 65.6277 83.7426 62.6669 81.5704 60.4832C79.3981 58.2995 76.4529 57.0713 73.3809 57.0679ZM58.8986 48.3333C58.8985 46.8935 59.323 45.4861 60.1185 44.2889C60.914 43.0917 62.0447 42.1585 63.3678 41.6073C64.6909 41.0561 66.1468 40.9117 67.5515 41.1923C68.9562 41.4729 70.2466 42.1659 71.2596 43.1837C72.2725 44.2015 72.9625 45.4984 73.2423 46.9103C73.522 48.3223 73.379 49.786 72.8313 51.1163C72.2837 52.4466 71.3559 53.5838 70.1653 54.384C68.9748 55.1842 67.5749 55.6117 66.1427 55.6122C65.1916 55.6125 64.2497 55.4245 63.3709 55.0588C62.4921 54.6932 61.6935 54.1571 61.0208 53.4812C60.3481 52.8052 59.8145 52.0027 59.4503 51.1194C59.0862 50.2361 58.8987 49.2894 58.8986 48.3333ZM50.6782 41.7265C51.92 40.0573 52.9163 38.2172 53.6367 36.2626H58.0644C56.0583 38.6363 53.5292 40.5071 50.6782 41.7265ZM60.1122 33.3502H54.5534C55.2867 30.5532 55.6998 27.6811 55.7845 24.7897H62.7435C62.5291 27.809 61.6289 30.7387 60.1122 33.3536V33.3502ZM60.1122 13.3202C61.6295 15.9336 62.5308 18.8617 62.7469 21.8799H55.7988C55.7103 18.9901 55.2939 16.12 54.5576 13.3253L60.1122 13.3202ZM58.0644 10.4086H53.6367C52.9163 8.45415 51.92 6.61402 50.6782 4.94484C53.5297 6.16542 56.0587 8.03769 58.0644 10.4129V10.4086ZM44.4155 3.62855C46.8022 4.35644 48.9416 6.85206 50.4797 10.4129H44.4155V3.62855ZM44.4155 13.3244H51.5267C52.3365 16.109 52.7959 18.9846 52.8941 21.8841H44.4155V13.3244ZM44.4155 24.7957H52.8941C52.7958 27.6948 52.3365 30.5702 51.5267 33.3545H44.4155V24.7957ZM50.4797 36.2669C49.7875 37.9423 48.821 39.4894 47.6204 40.8439C46.63 40.2758 45.5443 39.8953 44.4172 39.7212V36.266L50.4797 36.2669ZM38.3143 40.8464C37.1142 39.4902 36.1479 37.9422 35.455 36.266H41.5192V39.7212C40.3901 39.8973 39.3029 40.2808 38.3118 40.8523L38.3143 40.8464ZM41.5192 21.8833H33.0414C33.1397 18.9841 33.5991 16.1087 34.4088 13.3244H41.5192V21.8833ZM41.5192 24.7948V33.3545H34.408C33.5983 30.5702 33.1389 27.6948 33.0406 24.7957L41.5192 24.7948ZM41.5192 3.6277V10.412H35.455C36.9931 6.85121 39.1325 4.36066 41.5192 3.6277ZM35.2574 4.94822C34.0156 6.6174 33.0192 8.45753 32.2988 10.412H27.8712C29.8773 8.03838 32.4063 6.16759 35.2574 4.94822ZM25.8226 13.3244H31.3813C30.6479 16.1209 30.2345 18.9925 30.1493 21.8833H23.1987C23.4117 18.8659 24.3096 15.9378 25.8234 13.3236L25.8226 13.3244ZM25.8226 33.3545C24.3052 30.7411 23.4039 27.8129 23.1878 24.7948H30.1493C30.235 27.6859 30.6489 30.5578 31.383 33.3545H25.8226ZM27.8703 36.266H32.298C33.0187 38.2191 34.0151 40.0577 35.2565 41.7256C32.4059 40.5075 29.8769 38.6381 27.8703 36.266ZM42.9674 42.5093C44.2564 42.5093 45.5165 42.8936 46.5883 43.6135C47.6601 44.3334 48.4954 45.3567 48.9887 46.5539C49.482 47.7511 49.6111 49.0684 49.3596 50.3394C49.1081 51.6103 48.4874 52.7777 47.5759 53.694C46.6644 54.6103 45.5031 55.2343 44.2389 55.4871C42.9746 55.7399 41.6641 55.6102 40.4732 55.1143C39.2823 54.6184 38.2644 53.7786 37.5483 52.7012C36.8321 51.6237 36.4499 50.357 36.4499 49.0611C36.4499 47.3235 37.1365 45.657 38.3588 44.4283C39.5811 43.1996 41.2388 42.5093 42.9674 42.5093ZM12.5538 48.3333C12.5538 46.8935 12.9785 45.486 13.7742 44.2889C14.5699 43.0917 15.7009 42.1586 17.0241 41.6077C18.3473 41.0567 19.8034 40.9125 21.2081 41.1934C22.6128 41.4743 23.9032 42.1676 24.9159 43.1857C25.9287 44.2038 26.6184 45.5009 26.8978 46.9131C27.1772 48.3252 27.0338 49.7889 26.4857 51.1191C25.9376 52.4493 25.0094 53.5862 23.8185 54.3861C22.6277 55.186 21.2276 55.613 19.7953 55.613C18.8444 55.613 17.9027 55.4247 17.0241 55.0589C16.1455 54.693 15.3472 54.1568 14.6748 53.4808C14.0023 52.8048 13.4689 52.0023 13.105 51.1191C12.7411 50.2359 12.5538 49.2892 12.5538 48.3333ZM35.7266 71.6249H3.86406V68.7158C3.86629 66.3997 4.78253 64.1791 6.41168 62.5414C8.04084 60.9036 10.2498 59.9826 12.5538 59.9803H27.0378C29.3416 59.9828 31.5503 60.904 33.1793 62.5417C34.8083 64.1794 35.7244 66.3999 35.7266 68.7158V71.6249ZM38.6229 70.1691V68.7158C38.622 67.1104 38.2896 65.5226 37.6469 64.0528C37.0042 62.5831 36.0651 61.2634 34.889 60.1773C35.4412 60.0524 36.005 59.9869 36.571 59.982H49.3537C49.9196 59.9869 50.4834 60.0524 51.0356 60.1773C49.8595 61.2634 48.9204 62.5831 48.2777 64.0528C47.635 65.5226 47.3026 67.1104 47.3017 68.7158V70.1716L38.6229 70.1691ZM82.0706 71.6249H50.2089V68.7158C50.2111 66.3997 51.1274 64.1791 52.7565 62.5414C54.3857 60.9036 56.5947 59.9826 58.8986 59.9803H73.3809C75.6849 59.9826 77.8939 60.9036 79.523 62.5414C81.1522 64.1791 82.0684 66.3997 82.0706 68.7158V71.6249Z" fill="#EF5388"/>
</svg>
