<svg width="122" height="122" viewBox="0 0 122 122" fill="none" xmlns="http://www.w3.org/2000/svg">
<g clip-path="url(#clip0_3403_2861)">
<path d="M16.2798 0H105.75C109.824 0.426531 113.532 3.63147 113.537 7.87772C113.545 16.8643 113.545 25.8508 113.539 34.8374C113.537 36.6356 113.42 37.9327 113.186 38.7286C112.071 42.5292 108.716 44.6714 104.842 44.6738C99.247 44.677 93.645 44.6785 88.0358 44.6785C88.0134 44.6786 87.9912 44.6829 87.9705 44.6915C87.9499 44.7 87.9311 44.7125 87.9154 44.7283C87.8996 44.744 87.8872 44.7627 87.8788 44.7832C87.8705 44.8037 87.8663 44.8256 87.8667 44.8477L87.8738 49.0654C87.8738 49.1591 87.9119 49.2346 87.9882 49.2918C91.0366 51.5332 94.0874 53.7715 97.1406 56.0066C103.422 60.6056 105.314 66.2076 103.862 73.9114C102.112 83.2141 100.341 92.4929 98.5488 101.748C98.5281 101.856 98.5687 101.931 98.6703 101.972C101.668 103.213 101.863 105.246 101.866 108.437C101.867 111.058 101.866 113.679 101.863 116.3C101.861 119.314 100.815 121.49 97.5027 122.002H84.9954C82.7508 121.368 83.1677 118.426 85.0668 118.426C89.1573 118.43 93.1875 118.43 97.1572 118.426C97.458 118.426 97.7465 118.306 97.9593 118.093C98.172 117.881 98.2915 117.592 98.2915 117.291V106.452C98.2915 106.14 98.1678 105.841 97.9475 105.62C97.7273 105.399 97.4285 105.275 97.1167 105.275C86.742 105.256 76.2965 105.254 65.7804 105.27C64.72 105.272 63.867 105.406 63.8646 106.633C63.8566 110.202 63.8559 113.736 63.8622 117.234C63.8628 117.551 63.9891 117.855 64.2134 118.078C64.4376 118.302 64.7415 118.428 65.0584 118.428C68.8312 118.428 72.6588 118.429 76.5411 118.43C79.1098 118.43 79.5792 121.414 77.1821 122.002H64.6175C62.5922 121.642 61.2745 120.643 60.6645 119.007C60.4087 118.322 60.2816 117.006 60.2832 115.059C60.288 112.291 60.2951 109.522 60.3047 106.752C60.3126 104.714 61.1799 103.204 62.9067 102.222C62.9782 102.181 62.9845 102.132 62.9258 102.077C58.172 97.4231 56.4445 90.4461 56.3158 83.9289C56.3146 83.8672 56.2894 83.8084 56.2458 83.7652C56.2021 83.722 56.1434 83.6978 56.0823 83.6978C49.7075 83.6978 43.2914 83.6978 36.834 83.6978C33.0667 83.6978 32.054 81.8702 32.0517 78.3745C32.0469 73.9742 32.0469 69.573 32.0517 65.1711C32.0564 62.6095 35.6187 62.4451 35.6211 65.2712C35.6243 70.0846 35.6251 74.9154 35.6235 79.7637C35.6232 79.8109 35.6322 79.8576 35.65 79.9012C35.6678 79.9449 35.6941 79.9846 35.7273 80.018C35.7606 80.0514 35.8001 80.078 35.8436 80.0961C35.8871 80.1142 35.9338 80.1235 35.9809 80.1235L70.0527 80.1259C70.0708 80.1262 70.0884 80.1208 70.1031 80.1106C70.1179 80.1003 70.1291 80.0856 70.1353 80.0686C70.1415 80.0515 70.1424 80.0327 70.1379 80.0149C70.1334 79.997 70.1236 79.9809 70.1099 79.9686C68.2799 78.365 66.7931 77.1902 65.5921 74.7621C65.5758 74.7272 65.5499 74.6977 65.5174 74.677C65.4849 74.6563 65.4472 74.6453 65.4086 74.6453C60.0791 74.6438 54.7591 74.6358 49.4486 74.6215C48.1166 74.6168 47.3779 73.9329 47.2349 72.658C47.011 70.6588 45.7457 69.0957 43.7584 68.6668C42.424 68.3808 41.1087 68.1521 41.1063 66.4674C41.1032 52.3911 41.1032 38.3187 41.1063 24.2503C41.1063 24.2175 41.0933 24.1859 41.0701 24.1627C41.0468 24.1395 41.0153 24.1264 40.9824 24.1264H35.7522C35.668 24.1264 35.6259 24.1685 35.6259 24.2527C35.6211 35.0264 35.6203 45.7961 35.6235 56.5618C35.6259 58.5491 33.4075 59.1758 32.2971 57.5889C32.0278 57.2052 32.0493 56.2378 32.0493 55.6421C32.0525 52.0312 32.0532 48.4196 32.0517 44.8072C32.0517 44.7246 32.0104 44.6833 31.9278 44.6833C27.0176 44.6754 22.1145 44.6706 17.2186 44.669C13.2322 44.669 9.87482 42.5102 8.79779 38.607C8.56904 37.781 8.45546 36.4958 8.45705 34.7516C8.46022 25.9874 8.46102 17.2233 8.45943 8.45914C8.45705 3.93648 11.6953 0.405086 16.2798 0ZM21.3028 35.6118C18.2552 35.6022 17.5117 34.4466 17.5117 31.4275C17.5133 25.1542 17.5149 18.8802 17.5165 12.6053C17.5165 9.80784 18.7913 9.05485 21.5196 9.05485C47.98 9.05485 74.4395 9.05485 100.898 9.05485C103.879 9.05485 104.489 10.4584 104.489 13.2868C104.486 19.5061 104.485 25.7253 104.487 31.9446C104.487 35.0756 103.04 35.6213 100.093 35.6237C96.0564 35.6269 92.0501 35.6253 88.074 35.6189C88.0468 35.6186 88.0199 35.6237 87.9948 35.6338C87.9697 35.644 87.9468 35.659 87.9275 35.6781C87.9082 35.6972 87.8929 35.7199 87.8825 35.7449C87.872 35.7699 87.8667 35.7967 87.8667 35.8239V40.9827C87.8667 41.015 87.8795 41.0459 87.9022 41.0687C87.925 41.0915 87.9559 41.1043 87.9882 41.1043C93.3273 41.1043 98.6679 41.1043 104.01 41.1043C106.588 41.1066 108.69 40.611 109.615 38.1019C109.854 37.449 109.974 36.3393 109.972 34.773C109.966 26.2773 109.964 17.7825 109.967 9.28837C109.97 5.21607 108.144 3.57428 104.141 3.57428C75.2219 3.57428 46.3025 3.57428 17.3831 3.57428C15.067 3.57428 13.1988 4.37492 12.3649 6.61719C12.1409 7.21926 12.0297 8.14381 12.0313 9.39083C12.036 18.0374 12.036 26.6832 12.0313 35.3282C12.0289 37.8088 12.6079 39.8437 15.0193 40.7397C15.6801 40.9859 16.8438 41.109 18.5101 41.109C22.9771 41.109 27.4497 41.1066 31.9278 41.1019C31.9437 41.1019 31.9595 41.0987 31.9743 41.0926C31.989 41.0865 32.0024 41.0776 32.0137 41.0663C32.025 41.055 32.0339 41.0416 32.04 41.0269C32.0461 41.0121 32.0493 40.9963 32.0493 40.9804V35.7452C32.0493 35.6626 32.008 35.6213 31.9254 35.6213C28.3829 35.6277 24.8421 35.6245 21.3028 35.6118ZM100.913 12.765C100.913 12.7471 100.909 12.7295 100.902 12.713C100.895 12.6965 100.885 12.6815 100.873 12.6689C100.86 12.6563 100.845 12.6463 100.829 12.6395C100.812 12.6326 100.795 12.6291 100.777 12.6291H21.2242C21.2063 12.6291 21.1887 12.6326 21.1722 12.6395C21.1557 12.6463 21.1407 12.6563 21.1281 12.6689C21.1155 12.6815 21.1055 12.6965 21.0987 12.713C21.0918 12.7295 21.0883 12.7471 21.0883 12.765V20.4139C21.0883 20.4499 21.1026 20.4845 21.1281 20.51C21.1536 20.5354 21.1881 20.5497 21.2242 20.5497H100.777C100.813 20.5497 100.847 20.5354 100.873 20.51C100.898 20.4845 100.913 20.4499 100.913 20.4139V12.765ZM32.0517 24.2479C32.0517 24.2157 32.0389 24.1848 32.0161 24.162C31.9933 24.1392 31.9624 24.1264 31.9301 24.1264H21.2075C21.1752 24.1264 21.1443 24.1392 21.1215 24.162C21.0988 24.1848 21.086 24.2157 21.086 24.2479V31.9255C21.086 31.9577 21.0988 31.9886 21.1215 32.0114C21.1443 32.0342 21.1752 32.047 21.2075 32.047H31.9301C31.9624 32.047 31.9933 32.0342 32.0161 32.0114C32.0389 31.9886 32.0517 31.9577 32.0517 31.9255V24.2479ZM44.8331 65.2068C47.7846 66.0949 49.6948 68.0154 50.5637 70.9686C50.5844 71.0353 50.6289 71.0687 50.6972 71.0687H64.6962C64.7371 71.0687 64.7764 71.0525 64.8057 71.0236C64.8351 70.9947 64.8522 70.9553 64.8535 70.9138C64.9511 66.322 68.2394 62.5738 72.8144 61.847C73.5031 61.7374 74.3323 61.8065 75.0995 61.766C75.1949 61.7612 75.2425 61.7112 75.2425 61.6159L75.2401 24.2098C75.2401 24.1877 75.2313 24.1665 75.2157 24.1508C75.2001 24.1352 75.1788 24.1264 75.1567 24.1264H44.7973C44.7657 24.1264 44.7354 24.139 44.7131 24.1613C44.6907 24.1837 44.6782 24.214 44.6782 24.2456V64.9995C44.6783 65.0464 44.6934 65.092 44.7214 65.1294C44.7493 65.1668 44.7885 65.1939 44.8331 65.2068ZM78.9025 62.967C80.831 64.4507 82.5871 65.9582 84.1709 67.4896C84.181 67.4996 84.1939 67.5063 84.2079 67.5089C84.2218 67.5115 84.2362 67.5099 84.2493 67.5042C84.2623 67.4986 84.2734 67.4892 84.2811 67.4773C84.2888 67.4654 84.2927 67.4514 84.2924 67.4372V24.2384C84.2924 24.1637 84.2551 24.1264 84.1804 24.1264H79.0002C78.9065 24.1264 78.8596 24.1733 78.8596 24.267C78.777 37.1694 78.785 50.0574 78.8834 62.9312C78.885 62.9451 78.8918 62.9579 78.9025 62.967ZM100.913 24.2861C100.913 24.2651 100.908 24.2443 100.9 24.225C100.892 24.2056 100.881 24.188 100.866 24.1732C100.851 24.1583 100.833 24.1466 100.814 24.1386C100.795 24.1305 100.774 24.1264 100.753 24.1264H88.0287C88.0077 24.1264 87.987 24.1305 87.9676 24.1386C87.9482 24.1466 87.9306 24.1583 87.9158 24.1732C87.901 24.188 87.8892 24.2056 87.8812 24.225C87.8732 24.2443 87.869 24.2651 87.869 24.2861V31.8921C87.869 31.9345 87.8859 31.9751 87.9158 32.005C87.9457 32.035 87.9863 32.0518 88.0287 32.0518H100.753C100.795 32.0518 100.836 32.035 100.866 32.005C100.896 31.9751 100.913 31.9345 100.913 31.8921V24.2861ZM88.1264 70.9877C89.0485 71.8145 91.0263 73.2418 91.4313 74.2665C91.8722 75.3936 90.7546 76.7542 89.5156 76.5755C89.1407 76.5214 88.7276 76.2935 88.2765 75.8916C85.0375 73.0163 81.8016 70.137 78.5689 67.2537C72.0591 61.4467 64.6128 70.3371 70.5126 75.5556C72.8939 77.6604 75.2655 79.7764 77.6277 81.9035C79.1408 83.2665 81.8977 86.9862 81.3592 89.1283C81.0661 90.2888 79.3886 90.7844 78.4927 89.9528C78.2687 89.7463 78.0661 89.3515 77.885 88.7685C77.2496 86.7288 76.059 85.0616 74.3132 83.7669C74.2545 83.7221 74.1825 83.6978 74.1083 83.6978H59.9901C59.9155 83.6978 59.8789 83.7351 59.8805 83.8098C59.9925 90.0148 61.9559 99.3651 68.9876 101.317C69.8597 101.56 71.299 101.683 73.3053 101.686C80.4633 101.7 87.6276 101.698 94.7983 101.679C94.8872 101.679 94.9396 101.635 94.9555 101.548C96.7966 92.0227 98.6012 82.4905 100.369 72.9511C101.122 68.8907 100.874 64.8256 98.1175 61.623C97.5472 60.9606 96.336 59.9384 94.4837 58.5563C92.3487 56.963 90.2487 55.403 88.1836 53.8764C87.9739 53.7223 87.869 53.7747 87.869 54.0336L87.8643 70.3991C87.8643 70.6342 87.9516 70.8304 88.1264 70.9877Z" fill="#EF5388"/>
<path d="M70.4909 43.1797C70.4909 45.9674 69.3835 48.6408 67.4124 50.612C65.4413 52.5831 62.7679 53.6905 59.9803 53.6905C57.1927 53.6905 54.5193 52.5831 52.5482 50.612C50.5771 48.6408 49.4697 45.9674 49.4697 43.1797C49.4697 41.7994 49.7416 40.4326 50.2698 39.1574C50.798 37.8822 51.5722 36.7235 52.5482 35.7475C53.5242 34.7715 54.6829 33.9972 55.9581 33.469C57.2333 32.9408 58.6 32.6689 59.9803 32.6689C61.3606 32.6689 62.7273 32.9408 64.0025 33.469C65.2777 33.9972 66.4364 34.7715 67.4124 35.7475C68.3884 36.7235 69.1626 37.8822 69.6908 39.1574C70.219 40.4326 70.4909 41.7994 70.4909 43.1797ZM66.9191 43.1797C66.9191 41.3388 66.1878 39.5732 64.886 38.2715C63.5843 36.9698 61.8188 36.2385 59.9779 36.2385C58.137 36.2385 56.3715 36.9698 55.0698 38.2715C53.7681 39.5732 53.0368 41.3388 53.0368 43.1797C53.0368 45.0207 53.7681 46.7862 55.0698 48.0879C56.3715 49.3897 58.137 50.121 59.9779 50.121C61.8188 50.121 63.5843 49.3897 64.886 48.0879C66.1878 46.7862 66.9191 45.0207 66.9191 43.1797Z" fill="#EF5388"/>
</g>
<defs>
<clipPath id="clip0_3403_2861">
<rect width="122" height="122.002" fill="white"/>
</clipPath>
</defs>
</svg>
