<svg width="122" height="122" viewBox="0 0 122 122" fill="none" xmlns="http://www.w3.org/2000/svg">
<path d="M117.235 105.32H108.65V69.7075C108.648 68.4102 108.132 67.1666 107.215 66.2492C106.297 65.3319 105.054 64.8158 103.756 64.814H78.4731V47.7227C78.4719 46.4434 77.964 45.2166 77.0604 44.3109C76.1568 43.4052 74.9312 42.8943 73.6518 42.8901H48.3481C47.0676 42.8919 45.8401 43.4014 44.9346 44.3069C44.0291 45.2123 43.5196 46.4399 43.5178 47.7204V57.1867H18.1757C16.8952 57.1885 15.6677 57.698 14.7622 58.6035C13.8567 59.5089 13.3472 60.7365 13.3454 62.017V105.318H4.76026C3.4975 105.321 2.28742 105.824 1.39515 106.718C0.502885 107.611 0.00119226 108.822 0 110.085L0 117.233C0.00179297 118.496 0.504371 119.707 1.39755 120.601C2.29073 121.494 3.50163 121.996 4.76478 121.998H81.6496C82.2688 121.979 82.8562 121.72 83.2874 121.275C83.7186 120.83 83.9598 120.235 83.9598 119.616C83.9598 118.996 83.7186 118.401 83.2874 117.956C82.8562 117.512 82.2688 117.252 81.6496 117.233H4.76478V110.085H117.235V117.233H100.711C100.392 117.224 100.074 117.278 99.7766 117.393C99.479 117.508 99.2075 117.682 98.9784 117.905C98.7492 118.127 98.567 118.393 98.4426 118.687C98.3182 118.981 98.2541 119.297 98.2541 119.616C98.2541 119.935 98.3182 120.251 98.4426 120.545C98.567 120.839 98.7492 121.105 98.9784 121.327C99.2075 121.549 99.479 121.723 99.7766 121.838C100.074 121.954 100.392 122.008 100.711 121.998H117.233C118.496 121.997 119.708 121.495 120.602 120.601C121.495 119.708 121.998 118.497 122 117.233V110.085C121.998 108.822 121.496 107.611 120.602 106.718C119.709 105.825 118.498 105.322 117.235 105.32ZM103.763 69.5788C103.78 69.5788 103.797 69.5821 103.813 69.5886C103.828 69.595 103.842 69.6045 103.854 69.6165C103.866 69.6284 103.876 69.6426 103.882 69.6583C103.889 69.6739 103.892 69.6906 103.892 69.7075V105.32H78.4731V69.5788H103.763ZM48.3594 47.664H73.6518C73.6692 47.664 73.6859 47.6708 73.6982 47.6831C73.7105 47.6954 73.7174 47.7121 73.7174 47.7295V105.329H48.2917V47.7204C48.2917 47.7031 48.2986 47.6864 48.3109 47.6741C48.3231 47.6618 48.3398 47.6549 48.3572 47.6549L48.3594 47.664ZM18.1102 62.017C18.1102 61.9997 18.1171 61.983 18.1294 61.9707C18.1417 61.9584 18.1584 61.9515 18.1757 61.9515H43.5269V105.329H18.1102V62.017Z" fill="#EF5388"/>
<path d="M49.4888 23.2457L48.5625 33.1367C48.524 33.5486 48.5934 33.9634 48.7637 34.3403C48.9341 34.7172 49.1997 35.0433 49.5343 35.2865C49.8689 35.5298 50.261 35.6817 50.6721 35.7274C51.0833 35.7732 51.4992 35.7111 51.8791 35.5474L60.9997 31.6095L70.1203 35.5474C70.5002 35.7111 70.9161 35.7732 71.3272 35.7274C71.7384 35.6817 72.1305 35.5298 72.4651 35.2865C72.7997 35.0433 73.0653 34.7172 73.2357 34.3403C73.4061 33.9634 73.4754 33.5486 73.4369 33.1367L72.5106 23.2457L79.0738 15.7902C79.3469 15.4795 79.5346 15.1031 79.6182 14.6979C79.7018 14.2928 79.6785 13.8729 79.5506 13.4794C79.4227 13.086 79.1947 12.7327 78.8889 12.4541C78.583 12.1755 78.2099 11.9814 77.8063 11.8907L68.1141 9.71501L63.0488 1.16823C62.8378 0.812347 62.5379 0.517512 62.1784 0.312723C61.8189 0.107934 61.4123 0.000244141 60.9986 0.000244141C60.5848 0.000244141 60.1782 0.107934 59.8188 0.312723C59.4593 0.517512 59.1593 0.812347 58.9483 1.16823L53.8853 9.71501L44.1931 11.8907C43.7895 11.9814 43.4164 12.1755 43.1105 12.4541C42.8047 12.7327 42.5767 13.086 42.4488 13.4794C42.3209 13.8729 42.2976 14.2928 42.3812 14.6979C42.4648 15.1031 42.6524 15.4795 42.9256 15.7902L49.4888 23.2457ZM55.9322 14.1386C56.2489 14.0675 56.5477 13.9324 56.8103 13.7416C57.0729 13.5509 57.2938 13.3085 57.4594 13.0293L60.9974 7.05812L64.5354 13.0293C64.7011 13.3085 64.922 13.5509 65.1846 13.7416C65.4472 13.9324 65.746 14.0675 66.0627 14.1386L72.8405 15.6591L68.2542 20.869C68.0382 21.1141 67.875 21.4011 67.7747 21.7121C67.6745 22.023 67.6393 22.3512 67.6713 22.6764L68.3197 29.5875L61.9463 26.8357C61.6481 26.707 61.3268 26.6406 61.002 26.6406C60.6772 26.6406 60.3558 26.707 60.0576 26.8357L53.6842 29.5875L54.3326 22.6764C54.3646 22.3512 54.3294 22.023 54.2292 21.7121C54.1289 21.4011 53.9657 21.1141 53.7497 20.869L49.1634 15.6591L55.9322 14.1386Z" fill="#EF5388"/>
<path d="M59.0047 57.1868H60.602V73.4331C60.5922 73.7522 60.6466 74.0699 60.7619 74.3676C60.8772 74.6652 61.0511 74.9366 61.2733 75.1658C61.4955 75.3949 61.7614 75.5771 62.0554 75.7015C62.3493 75.8259 62.6653 75.89 62.9844 75.89C63.3036 75.89 63.6196 75.8259 63.9135 75.7015C64.2074 75.5771 64.4734 75.3949 64.6956 75.1658C64.9178 74.9366 65.0917 74.6652 65.207 74.3676C65.3223 74.0699 65.3767 73.7522 65.3668 73.4331V54.8078C65.3674 54.1764 65.1175 53.5706 64.6719 53.1233C64.2263 52.676 63.6215 52.4238 62.9901 52.422H59.0047C58.6857 52.4122 58.368 52.4665 58.0703 52.5818C57.7727 52.6972 57.5013 52.8711 57.2721 53.0933C57.043 53.3155 56.8608 53.5814 56.7364 53.8754C56.612 54.1693 56.5479 54.4852 56.5479 54.8044C56.5479 55.1236 56.612 55.4396 56.7364 55.7335C56.8608 56.0274 57.043 56.2934 57.2721 56.5156C57.5013 56.7378 57.7727 56.9117 58.0703 57.027C58.368 57.1423 58.6857 57.1966 59.0047 57.1868Z" fill="#EF5388"/>
<path d="M35.5544 84.3679C34.1107 84.386 32.5903 84.3995 31.237 84.404C32.1407 83.1682 33.3448 81.5257 34.8698 79.3433C35.8914 77.9651 36.6427 76.4058 37.0839 74.748C37.102 74.6712 37.1156 74.5921 37.1269 74.522L37.2127 73.8443C37.226 73.7439 37.2327 73.6428 37.233 73.5415C37.233 71.8467 36.6023 70.2125 35.4636 68.9572C34.3249 67.702 32.7597 66.9154 31.0729 66.7508C29.3861 66.5861 27.6984 67.0551 26.3384 68.0665C24.9785 69.0779 24.0436 70.5593 23.7159 72.2221C23.649 72.5317 23.6445 72.8516 23.7026 73.1629C23.7607 73.4743 23.8803 73.7709 24.0544 74.0355C24.2285 74.3002 24.4536 74.5274 24.7166 74.7041C24.9795 74.8807 25.275 75.0031 25.5858 75.0642C25.8966 75.1253 26.2165 75.1239 26.5267 75.06C26.8369 74.996 27.1313 74.8709 27.3926 74.6919C27.654 74.5129 27.877 74.2836 28.0487 74.0174C28.2203 73.7512 28.3372 73.4535 28.3925 73.1416C28.4951 72.6562 28.7695 72.2241 29.1653 71.9249C29.5611 71.6258 30.0517 71.4797 30.5466 71.5135C31.0416 71.5473 31.5077 71.7588 31.8592 72.109C32.2106 72.4592 32.4237 72.9246 32.4592 73.4195L32.414 73.7787C32.0998 74.8013 31.6089 75.7609 30.9636 76.6141C28.2208 80.5339 26.5829 82.6757 25.704 83.8279C24.5993 85.2738 23.9915 86.0714 24.3891 87.3659C24.5052 87.7446 24.711 88.0897 24.9891 88.3718C25.2672 88.6538 25.6094 88.8645 25.9864 88.9858C27.3078 89.2421 28.659 89.3075 29.9989 89.1801C31.3296 89.1801 33.1392 89.1665 35.6109 89.1349C35.9295 89.14 36.2459 89.0811 36.5414 88.9618C36.8369 88.8424 37.1054 88.665 37.3311 88.4401C37.5569 88.2152 37.7352 87.9472 37.8556 87.6522C37.976 87.3571 38.036 87.0409 38.0321 86.7223C38.0282 86.4037 37.9604 86.0891 37.8327 85.7971C37.7051 85.5051 37.5202 85.2416 37.289 85.0223C37.0578 84.803 36.785 84.6324 36.4866 84.5203C36.1883 84.4083 35.8706 84.3572 35.5521 84.3702L35.5544 84.3679Z" fill="#EF5388"/>
<path d="M86.0461 82.906C86.6662 83.0274 87.3092 82.8977 87.8337 82.5452C88.3582 82.1927 88.7212 81.6464 88.843 81.0263C88.9307 80.5833 89.1425 80.1743 89.4537 79.8471C89.7648 79.5198 90.1626 79.2877 90.6005 79.1777C91.0385 79.0677 91.4987 79.0844 91.9275 79.2258C92.3564 79.3672 92.7363 79.6275 93.0229 79.9765C93.3095 80.3254 93.4911 80.7486 93.5466 81.1968C93.602 81.6449 93.529 82.0996 93.3361 82.5079C93.1431 82.9161 92.8381 83.2612 92.4566 83.5029C92.0752 83.7445 91.6329 83.8728 91.1813 83.8729C90.8623 83.8631 90.5446 83.9175 90.247 84.0328C89.9493 84.1481 89.6778 84.322 89.4487 84.5442C89.2195 84.7664 89.0374 85.0323 88.913 85.3262C88.7886 85.6202 88.7245 85.9361 88.7245 86.2553C88.7245 86.5745 88.7886 86.8904 88.913 87.1844C89.0374 87.4783 89.2195 87.7443 89.4487 87.9665C89.6778 88.1887 89.9493 88.3626 90.247 88.4779C90.5446 88.5932 90.8623 88.6475 91.1813 88.6377C91.6389 88.6373 92.0869 88.7685 92.4718 89.0158C92.8568 89.2631 93.1624 89.6159 93.3522 90.0322C93.542 90.4485 93.6081 90.9106 93.5424 91.3634C93.4767 91.8162 93.2821 92.2405 92.9818 92.5857C92.6815 92.9308 92.2882 93.1823 91.8489 93.31C91.4095 93.4377 90.9427 93.4362 90.5041 93.3058C90.0656 93.1754 89.6739 92.9215 89.3757 92.5745C89.0776 92.2275 88.8855 91.802 88.8227 91.3488C88.8075 91.238 88.8 91.1263 88.8001 91.0144C88.8099 90.6954 88.7556 90.3776 88.6403 90.08C88.525 89.7824 88.351 89.5109 88.1288 89.2818C87.9066 89.0527 87.6407 88.8705 87.3468 88.7461C87.0528 88.6217 86.7369 88.5576 86.4177 88.5576C86.0985 88.5576 85.7826 88.6217 85.4886 88.7461C85.1947 88.8705 84.9288 89.0527 84.7066 89.2818C84.4844 89.5109 84.3104 89.7824 84.1951 90.08C84.0798 90.3776 84.0255 90.6954 84.0353 91.0144C84.0353 92.9103 84.7885 94.7285 86.129 96.069C87.4696 97.4096 89.2878 98.1627 91.1836 98.1627C93.0795 98.1627 94.8976 97.4096 96.2382 96.069C97.5788 94.7285 98.3319 92.9103 98.3319 91.0144C98.3331 89.2552 97.6827 87.5578 96.5064 86.2496C97.2397 85.4303 97.7741 84.4528 98.0679 83.3932C98.3617 82.3335 98.407 81.2204 98.2002 80.1404C97.9935 79.0604 97.5403 78.0427 96.876 77.1665C96.2116 76.2903 95.354 75.5791 94.3699 75.0885C93.3858 74.5979 92.3018 74.3411 91.2022 74.3379C90.1026 74.3348 89.0171 74.5854 88.0302 75.0703C87.0433 75.5552 86.1816 76.2614 85.5122 77.1337C84.8428 78.0061 84.3838 79.0212 84.1709 80.1C84.1093 80.4074 84.1091 80.7239 84.1701 81.0314C84.2311 81.3389 84.3522 81.6313 84.5264 81.892C84.7005 82.1526 84.9244 82.3764 85.1852 82.5503C85.446 82.7243 85.7385 82.8452 86.0461 82.906Z" fill="#EF5388"/>
<path d="M91.1833 122.002C92.4997 122.002 93.5668 120.935 93.5668 119.619C93.5668 118.302 92.4997 117.235 91.1833 117.235C89.8669 117.235 88.7998 118.302 88.7998 119.619C88.7998 120.935 89.8669 122.002 91.1833 122.002Z" fill="#EF5388"/>
</svg>
