<svg width="109" height="80" viewBox="0 0 109 80" fill="none" xmlns="http://www.w3.org/2000/svg">
<mask id="mask0_663_10775" style="mask-type:luminance" maskUnits="userSpaceOnUse" x="0" y="0" width="109" height="80">
<path d="M108.488 0.000244141H0.21875V79.4855H108.488V0.000244141Z" fill="white"/>
</mask>
<g mask="url(#mask0_663_10775)">
<path d="M84.0448 48.2025C83.4857 46.306 82.8817 44.302 82.2492 42.2439C83.0304 41.2826 83.5658 40.1455 83.8091 38.9309C84.0524 37.7164 83.9962 36.4608 83.6454 35.2728C82.1969 30.2881 80.8539 25.6762 79.5384 21.1735L79.498 21.034C78.9105 19.019 78.2495 16.7516 75.8857 16.0016C76.5163 15.1208 76.8916 14.0831 76.9704 13.0027C77.0491 11.9223 76.8283 10.8412 76.3321 9.87824C75.8359 8.91532 75.0836 8.10796 74.1581 7.54504C73.2326 6.98213 72.1698 6.68548 71.0866 6.68776C69.7012 6.68669 68.363 7.19096 67.3228 8.10604L67.198 8.20977C66.1067 9.16423 65.4133 10.4934 65.2549 11.9345C65.0965 13.3756 65.4846 14.8237 66.3424 15.9924C63.8813 16.7598 63.1873 19.2604 62.5704 21.4801C62.5007 21.7289 62.4327 21.9758 62.363 22.2145C61.1512 26.376 59.9404 30.5375 58.7305 34.699C58.5725 35.2109 58.4465 35.7321 58.3532 36.2596C58.1787 37.3144 58.2315 38.3943 58.5079 39.4271C58.7843 40.4599 59.278 41.4218 59.9561 42.2485C59.3832 44.1432 58.7893 46.116 58.1907 48.1135C57.9368 48.779 57.9506 49.5171 58.2292 50.1727C58.5079 50.8283 59.0297 51.3504 59.6852 51.6294C59.9954 51.7692 60.331 51.8439 60.6712 51.8488H62.0573C62.9239 51.8488 63.8124 51.8488 64.7056 51.857L64.7139 56.7783L64.7268 57.5421C64.7185 58.2517 64.7139 58.998 64.7121 59.759C64.7121 61.0864 64.7984 62.098 65.9578 63.0316C66.4635 63.431 67.0906 63.6455 67.735 63.6393C67.8984 63.6393 68.0581 63.643 68.2142 63.6503C68.4272 63.6558 68.6291 63.6613 68.8302 63.6613C69.6338 63.7177 70.4333 63.5045 71.1021 63.0555C71.6261 63.443 72.2617 63.6502 72.9133 63.6457H73.0336H73.4485H73.8497C74.0993 63.6457 74.4298 63.6457 74.7676 63.62C75.3637 63.559 75.9277 63.32 76.3861 62.9341C76.8445 62.5482 77.1762 62.0333 77.338 61.4563C77.473 60.8922 77.5267 60.3117 77.4977 59.7324V59.6406C77.4977 57.0767 77.4977 54.4577 77.4977 51.8506H80.9475C81.3941 51.8673 81.8409 51.8238 82.2758 51.7212C82.6256 51.6117 82.9497 51.4329 83.2288 51.1954C83.5079 50.9579 83.7363 50.6665 83.9003 50.3388C84.0643 50.011 84.1605 49.6536 84.1833 49.2878C84.2061 48.9221 84.1549 48.5554 84.0328 48.2099M66.0744 10.4028H66.079H66.0863H66.0744ZM66.112 10.4138V10.4184V10.423C66.1115 10.4196 66.1099 10.4164 66.1074 10.4138M81.9426 49.4657C81.826 49.6217 81.5341 49.7007 81.0742 49.7007H81.0659H79.0748C77.9598 49.7007 76.845 49.7007 75.7306 49.7007C75.6374 49.7007 75.5479 49.7377 75.482 49.8037C75.4161 49.8696 75.379 49.959 75.379 50.0523C75.379 53.2597 75.379 56.5993 75.379 60.263C75.3994 60.4944 75.3544 60.727 75.2493 60.9342C75.1441 61.1414 74.983 61.315 74.7842 61.4352C74.4085 61.5224 74.0229 61.5582 73.6376 61.5417C73.2776 61.5627 72.9165 61.5277 72.5673 61.438C72.0532 61.1626 71.9614 60.8101 71.9614 59.9637C71.9614 56.8499 71.9614 53.6049 71.9614 50.0412C71.9614 49.9504 71.9253 49.8633 71.8611 49.7991C71.7969 49.7349 71.7098 49.6988 71.619 49.6988H70.622C70.5283 49.6988 70.4384 49.7361 70.3721 49.8024C70.3059 49.8686 70.2686 49.9585 70.2686 50.0523V52.5731L70.242 52.5877V52.7713C70.242 55.495 70.242 57.9735 70.242 60.3502C70.2508 60.5346 70.2247 60.719 70.1649 60.8936C69.9666 61.3618 69.5829 61.5436 68.7971 61.5436C68.6319 61.5436 68.4629 61.5362 68.2986 61.5298C68.1343 61.5234 67.9764 61.516 67.8231 61.516H67.7479C66.8923 61.516 66.8574 60.3768 66.8556 60.2464C66.8455 59.1146 66.8409 58.0598 66.8427 57.0243C66.8741 56.9015 66.8741 56.7727 66.8427 56.6498V50.0513C66.8425 49.9582 66.8054 49.8689 66.7395 49.803C66.6736 49.7371 66.5843 49.7 66.4911 49.6998C65.3669 49.6998 64.2436 49.6998 63.1213 49.6998H61.1237H61.0989C60.6666 49.6998 60.3893 49.6217 60.2727 49.4666C60.1561 49.3115 60.1608 48.992 60.2984 48.5367C61.7085 43.8651 63.0083 39.5662 64.2715 35.3976C64.2871 35.3472 64.2969 35.2951 64.3008 35.2425L64.5854 34.308C64.8672 33.4763 65.1243 32.6171 65.3492 31.7541L65.6338 30.8646C65.9918 29.708 66.3507 28.5311 66.7013 27.3644C66.7652 27.1526 66.7992 26.9329 66.8023 26.7117C66.8124 25.9195 66.8079 25.1144 66.7886 24.3176C66.7911 24.2393 66.7646 24.1628 66.7141 24.1029C66.6635 24.0431 66.5926 24.0041 66.5149 23.9934C66.4373 23.9828 66.3585 24.0014 66.2937 24.0455C66.229 24.0896 66.1829 24.1561 66.1644 24.2322L64.0842 31.0675L63.0946 34.2914C62.3271 36.7856 61.7039 38.8263 61.2449 40.3611C60.5348 39.2743 60.254 37.9623 60.4572 36.68C60.5484 36.1821 60.6695 35.6901 60.8199 35.2067C61.9979 31.1535 63.1748 27.1003 64.3504 23.0471L64.3678 22.9865C64.5331 22.4137 64.7112 21.8271 64.8957 21.2424C64.9223 21.1579 64.9489 21.0707 64.9765 20.9826C65.3529 19.7598 65.7788 18.3737 67.019 18.023C67.4666 17.9385 67.9224 17.9055 68.3776 17.9248H70.422C71.7723 17.9248 73.1447 17.9248 74.4987 17.9339C76.3457 17.9422 76.8377 19.6166 77.3142 21.2387L77.327 21.2855C78.7278 26.0461 80.1296 30.849 81.4937 35.5601C81.6352 36.0134 81.7354 36.4786 81.793 36.9499C81.9072 38.1468 81.6187 39.3476 80.9732 40.3621L76.0583 24.234V24.0807L75.8463 24.0091L75.8279 24.0036L75.7986 23.9935H75.7765H75.7379H75.6636L75.6113 24.0183C75.5748 24.034 75.5413 24.0557 75.5121 24.0826C75.4758 24.1162 75.4473 24.1574 75.4286 24.2032C75.4099 24.2491 75.4015 24.2984 75.4038 24.3479C75.4341 25.3705 75.4396 26.0562 75.4203 26.3858C75.3847 26.6819 75.4084 26.9821 75.4901 27.2689L81.916 48.5284C82.0564 48.9929 82.0674 49.3115 81.949 49.4712M68.1784 8.06014V8.06932C68.1769 8.06488 68.1751 8.06058 68.1729 8.05647M71.1159 8.84226C71.8537 8.84244 72.5749 9.0615 73.1882 9.47171C73.8014 9.88192 74.2792 10.4648 74.5611 11.1467C74.8429 11.8285 74.9161 12.5787 74.7715 13.3022C74.6268 14.0257 74.2708 14.69 73.7485 15.211C73.2261 15.7321 72.5609 16.0865 71.837 16.2294C71.1132 16.3722 70.3632 16.2972 69.6821 16.0136C69.0009 15.7301 68.4192 15.2509 68.0105 14.6366C67.6018 14.0224 67.3846 13.3006 67.3862 12.5628C67.3874 11.5743 67.7806 10.6265 68.4797 9.92749C69.1787 9.22846 70.1264 8.83522 71.115 8.834M66.4195 9.78411H66.4269C66.4218 9.78074 66.4162 9.77825 66.4103 9.77676H66.4186" fill="#EF5388"/>
<path d="M24.8685 18.8822C24.8766 18.349 24.8554 17.8158 24.8052 17.2849C24.6403 15.5834 23.8853 13.9933 22.6711 12.79C21.4569 11.5867 19.86 10.8461 18.1571 10.6966H17.8818C17.9713 10.5817 18.0544 10.4618 18.1305 10.3376C18.7283 9.37696 19.0775 8.28261 19.1468 7.15327C19.216 6.02392 19.003 4.89511 18.5271 3.86862C18.0699 2.86226 17.3661 1.98754 16.481 1.32546C15.5959 0.663386 14.558 0.235362 13.4635 0.0810274C13.1089 0.0279455 12.7508 0.000945646 12.3922 0.000245088C11.1166 -0.000437383 9.86792 0.367747 8.79671 1.06044C7.7255 1.75314 6.87743 2.74079 6.35467 3.90442C5.84555 4.9913 5.63722 6.19482 5.75137 7.38959C5.86551 8.58436 6.29797 9.72666 7.00368 10.6975C6.01776 10.7534 5.05528 11.02 4.18104 11.4792C3.30681 11.9384 2.54111 12.5796 1.93551 13.3596C0.845601 14.7512 0.244261 16.463 0.224389 18.2304C0.218881 19.9461 0.218881 24.7582 0.228979 32.5335C0.221309 33.069 0.248601 33.6044 0.310679 34.1363C0.444731 35.4638 0.959211 36.7243 1.79231 37.7665C2.62541 38.8087 3.7417 39.5882 5.00707 40.0114C5.00707 46.6967 5.00707 53.3818 5.00707 60.0665C4.98246 60.5208 5.04961 60.9754 5.20453 61.4032C5.35945 61.831 5.59895 62.2231 5.90875 62.5563C6.21855 62.8895 6.5923 63.1569 7.00769 63.3425C7.42308 63.5281 7.8716 63.6281 8.32649 63.6365H9.14441C9.63369 63.6365 10.0679 63.6365 10.4342 63.6283C11.1956 63.6512 11.9425 63.4164 12.5538 62.9618C13.0011 63.3275 13.5454 63.5546 14.1199 63.6154C14.3191 63.6319 14.8185 63.6402 15.6465 63.6402H16.513C16.8453 63.6547 17.1782 63.6319 17.5054 63.5723C18.102 63.4168 18.6459 63.1037 19.08 62.6659C19.5141 62.228 19.8225 61.6816 19.9729 61.0836C20.0651 60.6419 20.103 60.1906 20.0858 59.7397C20.0812 58.6023 20.0858 57.4668 20.0959 56.3652C20.0974 56.2075 20.0885 56.0499 20.0693 55.8934C20.0473 55.6223 20.0494 55.3498 20.0757 55.0791C20.0886 54.8909 20.1014 54.6963 20.1024 54.4861C20.1106 52.3114 20.1069 50.3047 20.1024 48.1796C20.1024 45.6423 20.0941 43.0205 20.1106 40.0095C23.0482 39.0328 24.8602 36.3266 24.8658 32.8998C24.8722 28.1511 24.8731 23.4345 24.8658 18.8813M17.3264 12.1975C17.3295 12.1998 17.3323 12.2026 17.3346 12.2057C17.3315 12.201 17.3274 12.1969 17.3227 12.1938M12.4482 2.30805C13.3226 2.30805 14.1774 2.56734 14.9044 3.05312C15.6314 3.53891 16.1981 4.22937 16.5327 5.0372C16.8673 5.84504 16.9549 6.73395 16.7843 7.59154C16.6137 8.44913 16.1926 9.23688 15.5743 9.85516C14.9561 10.4735 14.1683 10.8945 13.3107 11.0651C12.4531 11.2357 11.5642 11.1481 10.7564 10.8135C9.94855 10.4789 9.25809 9.91225 8.7723 9.18522C8.28651 8.45819 8.02723 7.60344 8.02723 6.72905C8.02868 5.55697 8.49494 4.43332 9.32372 3.60454C10.1525 2.77576 11.2761 2.30951 12.4482 2.30805ZM2.51383 16.1907C2.51533 16.1911 2.51692 16.1911 2.51842 16.1907H2.51383ZM13.4516 62.2954C13.4553 62.2921 13.4587 62.2884 13.4617 62.2843C13.46 62.2874 13.4579 62.2902 13.4552 62.2926M22.5745 32.9172C22.5745 34.9267 21.5959 37.1592 19.4313 37.8018V35.8483V34.5989L19.4047 34.2409L19.4175 32.6629V32.0011L19.4221 30.6149V19.444C19.4221 19.3505 19.385 19.2609 19.3189 19.1947C19.2528 19.1286 19.1631 19.0915 19.0696 19.0915H18.1571C18.1107 19.0915 18.0648 19.1006 18.0219 19.1184C17.979 19.1362 17.9401 19.1622 17.9072 19.195C17.8744 19.2278 17.8484 19.2668 17.8306 19.3097C17.8129 19.3526 17.8037 19.3985 17.8037 19.4449V32.4701L17.7991 34.2409L17.8037 35.0249V57.5274L17.7927 60.0656C17.7927 60.598 17.4613 61.337 16.8499 61.337H16.8389H16.4378C16.111 61.337 15.8062 61.3416 15.5381 61.3462C15.3169 61.3462 15.1159 61.3535 14.936 61.3535C14.756 61.3535 14.6 61.3535 14.4843 61.3407C13.5828 61.2727 13.4855 60.3107 13.4855 59.9013C13.4855 52.9099 13.4855 45.9183 13.4855 38.9263C13.4853 38.8312 13.4474 38.74 13.3801 38.6728C13.3129 38.6055 13.2217 38.5676 13.1266 38.5674H11.9874C11.8923 38.5676 11.8011 38.6055 11.7339 38.6728C11.6666 38.74 11.6287 38.8312 11.6285 38.9263C11.6285 45.8534 11.6285 52.7805 11.6285 59.7076C11.6285 60.8642 11.2741 61.3388 10.4094 61.3443C9.72886 61.3492 9.04863 61.3523 8.36872 61.3535C8.15558 61.3486 7.94913 61.2782 7.77736 61.1519C7.60559 61.0256 7.47682 60.8495 7.40851 60.6476C7.32784 60.3543 7.29681 60.0496 7.31671 59.7461C7.31671 46.3124 7.31671 32.8793 7.31671 19.4468C7.31671 19.3534 7.2797 19.2639 7.21379 19.1978C7.14788 19.1317 7.05845 19.0945 6.96512 19.0943H6.02328C5.9301 19.0945 5.84082 19.1316 5.77493 19.1975C5.70905 19.2634 5.67193 19.3527 5.67169 19.4458V37.7926C3.91008 37.2804 2.75067 35.6188 2.54504 33.278C2.52393 33.0393 2.51292 32.6666 2.51108 32.17C2.49915 27.7802 2.50282 23.328 2.52026 18.9373C2.5122 18.4324 2.53858 17.9276 2.59921 17.4263C2.72206 16.4005 3.15457 15.4365 3.83911 14.6628C4.52365 13.889 5.42772 13.3422 6.43086 13.0952C6.91652 13.019 7.40825 12.9882 7.89963 13.0034H9.28945C11.6349 13.0034 13.9712 13.0034 16.2202 12.9934L17.0932 12.9989H17.2897H17.6109C17.8181 12.9957 18.0253 13.0043 18.2315 13.0246C19.2878 13.1797 20.2673 13.6667 21.0286 14.4153C21.7898 15.1638 22.2933 16.135 22.4662 17.1885C22.5357 17.591 22.5665 17.9992 22.5579 18.4076C22.5662 23.1233 22.5662 28.0069 22.5579 32.9227" fill="#EF5388"/>
<path d="M55.6246 49.361C54.3725 45.9287 53.0809 42.3788 51.6773 38.5086C51.3716 37.6686 51.1871 37.1821 51.1109 37.0215C50.6374 36.0776 49.9063 35.2871 49.0022 34.7414C48.0982 34.1958 47.0581 33.9172 46.0023 33.938C46.2348 32.7736 46.1209 31.5665 45.6746 30.4662C45.6189 30.2537 45.5342 30.0498 45.4231 29.8603C44.7252 28.3818 43.4714 27.2388 41.9348 26.6804C41.1753 26.4061 40.3739 26.2657 39.5664 26.2655C38.6719 26.2523 37.7872 26.4518 36.985 26.8475L36.7748 26.9273L36.7583 26.9356C35.4518 27.5968 34.4003 28.6711 33.7675 29.9916C33.1933 31.2336 33.0121 32.6214 33.2479 33.9692C31.7008 34.3365 30.3269 35.2243 29.3564 36.4839C28.3859 37.7435 27.8778 39.2984 27.9172 40.888C27.9172 44.7796 27.9172 48.6713 27.9172 52.5629C27.9077 53.1005 27.9384 53.6381 28.009 54.1712C28.2099 55.3468 28.6994 56.4541 29.4335 57.3941C30.1675 58.334 31.1233 59.0772 32.2152 59.557C32.2152 61.1243 32.2152 62.6919 32.2152 64.2598C32.2152 68.0749 32.2069 72.0223 32.2198 75.9026C32.2236 76.8397 32.5959 77.7378 33.2564 78.4027C33.9168 79.0676 34.8123 79.446 35.7494 79.4561C35.911 79.4625 36.2084 79.4643 36.6674 79.4643C37.0346 79.4643 37.4991 79.4625 38.0609 79.4588C38.6536 79.4617 39.2391 79.3282 39.772 79.0687C40.1546 79.2786 40.5779 79.4038 41.0131 79.4359C41.4088 79.4597 41.8283 79.4643 42.2248 79.4643H42.9776C43.2006 79.4643 43.4926 79.4643 43.7854 79.4726H43.8928C44.774 79.4853 45.6285 79.1702 46.2906 78.5886C46.4296 78.4625 46.5594 78.3266 46.6789 78.1819C46.9856 77.8311 47.2021 77.4107 47.3095 76.9573C47.3683 76.6179 47.3828 76.2723 47.3527 75.9292C47.3527 75.8603 47.3463 75.7924 47.3444 75.7245C47.3371 75.4904 47.3444 75.2481 47.3444 75.0131C47.3444 74.8597 47.3508 74.7074 47.3508 74.5541V47.29C48.5442 50.5727 49.7523 53.8995 50.9456 57.195C50.9858 57.3076 51.0066 57.4262 51.0072 57.5457C51.0121 58.8964 51.0191 60.2482 51.0283 61.6013C51.0577 66.6383 51.0889 71.8469 50.9604 76.9527C50.9246 76.9861 50.8959 77.0262 50.8758 77.0709C50.8558 77.1155 50.8449 77.1636 50.8438 77.2125L50.7795 79.0402V79.1045L50.7869 79.1247C50.7906 79.1453 50.7961 79.1656 50.8034 79.1853C50.8107 79.2064 50.8203 79.2267 50.8318 79.2459C50.8382 79.2578 50.8447 79.2679 50.8502 79.2761L50.8557 79.2835L50.8603 79.2908C50.8715 79.3058 50.8838 79.3199 50.897 79.3331C50.9056 79.3423 50.9148 79.3508 50.9245 79.3588C50.9434 79.3754 50.964 79.3899 50.986 79.4019C51.0097 79.4156 51.0346 79.427 51.0604 79.4359L51.0751 79.4405H51.0907C51.1224 79.449 51.1551 79.4533 51.188 79.4533L52.5062 79.4579H52.5879L52.6329 79.4359C52.6618 79.4248 52.6892 79.4103 52.7146 79.3927L52.7798 79.3588L52.8073 79.3037V79.2991L52.8303 79.255C52.8469 79.2231 52.8583 79.1887 52.8642 79.1531C52.8686 79.1314 52.8707 79.1092 52.8707 79.087C52.8707 78.7566 52.8624 78.427 52.8541 78.1195L52.8404 77.6339C52.8404 77.6045 52.8404 77.5742 52.8404 77.5421C52.8404 77.51 52.8358 77.4705 52.8404 77.4347C52.8404 77.4246 52.8404 77.4136 52.8404 77.4026C52.853 77.2856 52.832 77.1674 52.7798 77.062C52.76 77.0268 52.7369 76.9937 52.7109 76.9628L52.7063 76.9564C52.7035 76.9317 52.702 76.9069 52.7018 76.882V76.8426C52.7018 76.7857 52.6944 76.7287 52.6889 76.6727C52.6834 76.6167 52.6797 76.581 52.677 76.5286C52.669 76.3034 52.6617 76.0785 52.6549 75.8539C52.643 75.4206 52.6366 75.0387 52.6329 74.6862C52.6329 74.6211 52.6329 74.5577 52.6329 74.4925C52.6329 71.9828 52.6283 66.5061 52.6329 58.2057C54.1291 57.3527 55.2606 55.9808 55.8135 54.3497C56.3663 52.7186 56.302 50.9415 55.6329 49.3545M46.151 40.2243H45.1284C45.0328 40.2243 44.9411 40.2622 44.8733 40.3296C44.8055 40.397 44.7672 40.4886 44.7667 40.5842C44.7585 41.6297 44.7539 42.6634 44.7539 43.6566C44.7539 44.3828 44.7539 45.0336 44.7594 45.6606C44.7686 47.3983 44.7649 49.1664 44.7594 50.8757C44.7594 52.1902 44.752 53.5497 44.7594 54.8854C44.7605 54.9355 44.7648 54.9855 44.7722 55.035C44.777 55.0654 44.7798 55.0961 44.7805 55.1268V55.1351C44.7456 56.1981 44.7456 57.2767 44.7805 58.3388V58.348C44.7814 58.4057 44.7777 58.4635 44.7695 58.5206C44.764 58.5784 44.7576 58.6381 44.7566 58.7042V75.6318C44.7907 75.8444 44.7727 76.0622 44.7041 76.2664C44.6355 76.4706 44.5184 76.6551 44.3628 76.804C44.1347 76.8722 43.8978 76.9065 43.6596 76.9059C43.0868 76.8958 42.4929 76.8903 41.8953 76.8903H41.5428C41.3931 76.9059 41.2418 76.8861 41.1012 76.8325C40.9606 76.7789 40.8345 76.6931 40.7331 76.5819C40.5563 76.3065 40.4742 75.981 40.499 75.6547C40.499 69.8219 40.499 63.9893 40.499 58.1571C40.499 58.0634 40.4618 57.9734 40.3955 57.9072C40.3292 57.8409 40.2393 57.8037 40.1456 57.8037L39.3442 57.822C39.2549 57.8264 39.1705 57.8642 39.1079 57.928C39.0453 57.9918 39.0091 58.0769 39.0064 58.1662C38.9798 59.635 38.9715 61.1222 38.9835 62.5726C38.9972 64.4085 38.9899 66.2711 38.9835 68.0749C38.9789 69.126 38.9752 70.212 38.9752 71.2805C38.9753 71.3247 38.9831 71.3685 38.9981 71.41C38.9807 72.9118 38.9724 74.4338 38.9733 75.9347C38.9862 76.0636 38.97 76.1938 38.9261 76.3156C38.8822 76.4375 38.8116 76.548 38.7194 76.639C38.6273 76.7301 38.516 76.7994 38.3936 76.842C38.2713 76.8845 38.141 76.8991 38.0122 76.8848H38.0012C37.6285 76.8848 37.2549 76.8802 36.8831 76.8802C36.5701 76.8802 36.257 76.8802 35.944 76.8802H35.9321C35.7892 76.8906 35.6459 76.8685 35.5128 76.8155C35.3797 76.7626 35.2604 76.6802 35.1637 76.5745C34.9843 76.326 34.8961 76.0232 34.914 75.7171V40.5759C34.9138 40.4826 34.8765 40.3932 34.8105 40.3272C34.7444 40.2613 34.6549 40.2243 34.5615 40.2243H33.7831C33.6905 40.2243 33.6017 40.261 33.5361 40.3264C33.4705 40.3918 33.4336 40.4806 33.4333 40.5732L33.4205 57.1482C32.7154 56.89 32.0878 56.4561 31.5972 55.8876C31.1066 55.3191 30.7692 54.6348 30.617 53.8995C30.5405 53.4607 30.5076 53.0155 30.5187 52.5703V40.9468C30.5187 38.8657 31.9875 36.6213 34.3669 36.5496C34.9716 37.376 35.7629 38.0479 36.6763 38.5108C37.5896 38.9737 38.5993 39.2144 39.6233 39.2136C40.6473 39.2127 41.6566 38.9701 42.5691 38.5056C43.4817 38.0411 44.2718 37.3678 44.8751 36.5405C44.9788 36.5405 45.0825 36.534 45.1835 36.534C46.2979 36.534 47.7869 36.7617 48.5552 37.844C48.808 38.2664 49.0101 38.7172 49.1574 39.187C50.4628 42.7864 51.8425 46.5841 53.258 50.4782C53.6273 51.3344 53.6998 52.2895 53.464 53.1917C53.2281 54.0939 52.6975 54.8913 51.9564 55.4573L46.5091 40.4712C46.4817 40.3981 46.4326 40.335 46.3685 40.2904C46.3044 40.2458 46.2282 40.2218 46.1501 40.2216M36.3039 30.5203C36.6605 29.9734 37.1468 29.5232 37.7196 29.2098C38.2923 28.8963 38.9337 28.7294 39.5866 28.7238C39.879 28.7246 40.1705 28.7573 40.4559 28.8212C41.1349 28.9601 41.7658 29.2738 42.2863 29.7314C42.8068 30.189 43.1989 30.7745 43.4237 31.43L43.5678 31.9808C43.6626 32.5731 43.6306 33.1787 43.4741 33.7577C43.3176 34.3366 43.0401 34.8759 42.6599 35.3397C42.2911 35.7751 41.8324 36.1256 41.3154 36.3671C40.7984 36.6086 40.2352 36.7354 39.6646 36.7387C39.6202 36.7404 39.5764 36.7497 39.5351 36.7663L38.9385 36.6864L38.6208 36.6304C38.0186 36.4654 37.4625 36.1637 36.9959 35.7488C36.5292 35.3339 36.1646 34.817 35.9302 34.2382C35.6765 33.6361 35.5778 32.9799 35.643 32.3298C35.7083 31.6797 35.9355 31.0563 36.3039 30.5167" fill="#EF5388"/>
<path d="M104.502 31.4078C104.479 31.3975 104.461 31.3787 104.451 31.3555C103.79 29.649 102.502 28.2591 100.851 27.4693C99.2 26.6795 97.3099 26.5493 95.5661 27.1052L95.2586 27.2172C93.6422 27.8142 92.2964 28.976 91.47 30.488L91.3938 30.6321L91.0671 31.3225C91.0559 31.3455 91.0388 31.3651 91.0175 31.3794L90.7889 31.5363L90.5135 31.6667L90.4125 31.7677C90.235 31.9004 90.0837 32.0651 89.9664 32.2533C89.7822 32.4786 89.662 32.7494 89.6185 33.0372L89.5524 33.2695C89.511 33.5759 89.5305 33.8875 89.6096 34.1865C89.6888 34.4854 89.8261 34.7658 90.0136 35.0117C90.2012 35.2576 90.4353 35.464 90.7027 35.6194C90.97 35.7747 91.2655 35.8758 91.572 35.9169C91.5759 35.9181 91.58 35.9181 91.5839 35.9169C91.5875 35.9159 91.5908 35.9141 91.5935 35.9115C91.5962 35.909 91.5982 35.9058 91.5995 35.9023C91.6009 35.8981 91.6009 35.8935 91.5995 35.8894C91.2241 34.6903 91.2075 33.4076 91.5517 32.1991L91.7409 31.6327L91.9244 31.1471L92.0392 30.9874L92.2228 30.6358L92.3761 30.4045L92.6139 30.0694L92.7469 29.8776L93.0224 29.5618L93.1949 29.4084L93.4969 29.1L93.6447 28.9596C93.7365 28.9284 93.8176 28.8721 93.8788 28.7971L94.0936 28.641C94.8861 28.0971 95.7901 27.7371 96.7396 27.5872C97.689 27.4374 98.6599 27.5015 99.5814 27.7749C100.503 28.0484 101.352 28.5242 102.066 29.1677C102.78 29.8111 103.341 30.606 103.709 31.4941C104.308 32.8804 104.373 34.4394 103.892 35.871C103.891 35.8744 103.891 35.8778 103.892 35.8811C103.891 35.8835 103.891 35.8861 103.892 35.8885C103.895 35.8938 103.9 35.8977 103.906 35.8995H103.914C104.42 35.8229 104.887 35.5837 105.245 35.2181C105.603 34.8524 105.832 34.3802 105.898 33.8728C105.964 33.3654 105.863 32.8503 105.61 32.4055C105.357 31.9606 104.967 31.6101 104.497 31.4069M90.2133 33.1107C90.213 33.1082 90.213 33.1058 90.2133 33.1033C90.215 33.108 90.2175 33.1124 90.2207 33.1162V33.1107M94.8822 27.7625C94.8816 27.7601 94.8816 27.7576 94.8822 27.7552C94.8819 27.7579 94.8819 27.7607 94.8822 27.7634" fill="#EF5388"/>
<path d="M108.48 43.9588C108.488 43.4248 108.468 42.8906 108.419 42.3588C108.22 40.993 107.6 39.7232 106.646 38.726C105.692 37.7288 104.451 37.0538 103.095 36.7949C103.035 36.782 102.97 36.771 102.9 36.7619C103.368 35.9127 103.621 34.962 103.637 33.9927C103.653 33.0234 103.431 32.0649 102.992 31.2007C102.537 30.2863 101.848 29.5085 100.995 28.9465C100.141 28.3845 99.1549 28.0581 98.135 28.0007C98.0056 27.9924 97.8743 27.9878 97.7448 27.9878C96.779 27.9894 95.8282 28.2275 94.9756 28.6813C94.123 29.1352 93.3945 29.7909 92.8538 30.5912C92.3056 31.3864 91.9636 32.3053 91.8585 33.2655C91.7534 34.2256 91.8884 35.1968 92.2516 36.0917C92.3392 36.3038 92.4389 36.5107 92.55 36.7114C91.3041 36.8242 90.1246 37.324 89.1771 38.1409C88.2295 38.9577 87.5613 40.0506 87.2661 41.2664C87.1034 41.849 87.0155 42.4499 87.0045 43.0546C86.9981 44.3398 86.999 48.1035 87.0045 54.8966V54.9122V54.9269C87.053 55.4227 87.1501 55.9124 87.2945 56.3892C87.5281 57.2428 87.949 58.0337 88.5265 58.7044C88.7405 58.9997 88.9931 59.2652 89.2774 59.4938C89.7262 59.8989 90.2362 60.2307 90.7884 60.477L90.7975 76.4361L91.073 77.2026C91.118 77.3616 91.1998 77.5078 91.3117 77.6295C91.4883 77.9827 91.7365 78.2953 92.0405 78.5474C92.6122 79.1249 93.388 79.4545 94.2005 79.4654C94.4759 79.4718 94.7697 79.4755 95.069 79.4755C95.5904 79.4755 96.1485 79.4654 96.7287 79.4452C97.0785 79.4231 97.4193 79.325 97.7274 79.1579C98.3424 79.4101 99.005 79.5247 99.669 79.4939C99.8957 79.4939 100.121 79.4874 100.338 79.481C100.522 79.4755 100.705 79.47 100.872 79.4691C101.24 79.4809 101.607 79.4501 101.968 79.3773C102.763 79.1558 103.461 78.6746 103.951 78.0104C104.442 77.3461 104.696 76.537 104.673 75.7118C104.673 70.8768 104.673 65.9004 104.673 60.5008C105.44 60.2402 106.137 59.8066 106.71 59.2336C107.283 58.6606 107.717 57.9634 107.978 57.1961C108.275 56.4419 108.441 55.6419 108.466 54.8314C108.485 53.2001 108.488 49.6485 108.475 43.9726M105.872 40.2906C105.87 40.289 105.869 40.2872 105.868 40.2851C105.867 40.2831 105.867 40.2808 105.867 40.2786C105.867 40.2832 105.868 40.2875 105.872 40.2906ZM95.9511 34.6679C97.8409 34.5915 99.6442 33.8555 101.048 32.5878C101.244 33.079 101.328 33.6075 101.295 34.1352C101.261 34.663 101.111 35.1767 100.855 35.6393C100.599 36.1019 100.243 36.5018 99.8135 36.8101C99.3839 37.1184 98.8911 37.3273 98.3709 37.4219C97.8923 37.5138 97.3999 37.5057 96.9247 37.3981C96.4494 37.2904 96.0015 37.0856 95.6092 36.7966C95.2169 36.5075 94.8887 36.1403 94.6452 35.7182C94.4016 35.2961 94.2481 34.8282 94.1941 34.3439C94.7536 34.5635 95.3501 34.6733 95.9511 34.667M88.7642 49.2776C88.7615 49.2776 88.7587 49.2771 88.7562 49.276C88.7536 49.2749 88.7513 49.2734 88.7493 49.2714C88.7474 49.2695 88.7458 49.2671 88.7447 49.2646C88.7437 49.262 88.7431 49.2593 88.7431 49.2565L88.7542 46.2272C88.7542 46.2216 88.7564 46.2162 88.7603 46.2122C88.7643 46.2083 88.7696 46.2061 88.7752 46.2061H89.7144C89.72 46.2061 89.7253 46.2083 89.7293 46.2122C89.7332 46.2162 89.7355 46.2216 89.7355 46.2272L89.7245 49.2565C89.7245 49.2593 89.7239 49.262 89.7228 49.2646C89.7217 49.2671 89.7203 49.2695 89.7183 49.2714C89.7163 49.2734 89.7139 49.2749 89.7114 49.276C89.7088 49.2771 89.7061 49.2776 89.7033 49.2776H88.7642ZM93.3027 65.1458V62.6976H94.8073V65.1458H93.3027ZM106.409 54.589C106.418 55.4151 106.164 56.2227 105.684 56.8947C105.203 57.5667 104.521 58.0681 103.736 58.3262C103.736 54.9364 103.736 51.5484 103.736 48.1623C103.736 47.7455 103.737 47.3205 103.728 46.8697C103.721 45.9683 103.712 45.0338 103.736 44.136V44.0993V44.0809C103.728 44.0068 103.695 43.9375 103.644 43.8836C103.591 43.83 103.521 43.7955 103.446 43.7853H103.426H103.405L102.605 43.8037C102.542 43.8022 102.48 43.8138 102.423 43.8379C102.365 43.862 102.313 43.8979 102.271 43.9434C102.228 43.9889 102.195 44.0429 102.175 44.1019C102.154 44.1608 102.147 44.2235 102.152 44.2856C102.178 44.8998 102.187 45.4955 102.181 46.0574C102.135 49.5062 102.143 53.0147 102.152 56.4076C102.152 58.0049 102.159 59.6535 102.158 61.2802H99.602C99.5087 61.2802 99.4192 61.3173 99.3533 61.3832C99.2874 61.4491 99.2503 61.5385 99.2503 61.6318V66.1721C99.2503 66.2729 99.2903 66.3696 99.3616 66.4409C99.4329 66.5122 99.5296 66.5522 99.6304 66.5522H102.174C102.158 69.7201 102.155 72.8973 102.165 76.0074C102.144 76.1839 102.08 76.3526 101.98 76.4992C101.879 76.6458 101.745 76.7659 101.588 76.8492C101.425 76.9124 101.251 76.9384 101.077 76.9254H100.255C99.8314 76.9254 99.4076 76.9254 98.9841 76.9254C98.7087 76.9254 98.5251 76.3232 98.5251 75.9101C98.5251 70.259 98.516 64.6676 98.5031 59.2946C98.5031 59.2008 98.4659 59.1108 98.3997 59.0444C98.3334 58.978 98.2435 58.9405 98.1497 58.9403H97.3088C97.2618 58.9403 97.2154 58.9496 97.172 58.9676C97.1286 58.9856 97.0892 59.012 97.056 59.0452C97.0228 59.0785 96.9966 59.1179 96.9787 59.1614C96.9608 59.2048 96.9515 59.2513 96.9517 59.2983C96.9572 60.8203 96.9591 62.4305 96.9591 64.0847C96.9591 67.0718 96.9517 70.1103 96.9435 73.0478C96.9404 74.0368 96.9376 75.0257 96.9352 76.0147C96.9352 76.6178 96.6965 76.9272 96.2283 76.9327C95.7005 76.9419 95.1671 76.9474 94.6411 76.9492H94.6283C93.8856 76.9492 93.6029 76.8069 93.3725 76.3158L93.3073 76.1423L93.3027 66.554H95.8804C95.9736 66.5538 96.0628 66.5167 96.1287 66.4508C96.1946 66.3849 96.2318 66.2956 96.232 66.2024V61.6327C96.2318 61.5395 96.1946 61.4503 96.1287 61.3844C96.0628 61.3185 95.9736 61.2814 95.8804 61.2811H93.3009C93.3009 59.5174 93.303 57.7536 93.3073 55.9899C93.3137 52.1096 93.3202 48.0953 93.2972 44.1479V44.1369C93.2929 44.0481 93.2552 43.9642 93.1918 43.9019C93.1283 43.8397 93.0436 43.8036 92.9548 43.8009L92.0882 43.7853C91.9978 43.7853 91.911 43.8204 91.8461 43.8833C91.7811 43.9462 91.7431 44.0319 91.7403 44.1222V44.1351C91.7403 46.0555 91.7459 48.008 91.7514 49.8963C91.7569 51.6561 91.7624 53.4765 91.7624 55.2638V58.1646L91.7541 58.3188C91.591 58.2585 91.4349 58.1806 91.2887 58.0866L90.7801 57.735L90.3762 57.3806L89.9043 56.8721L89.4326 56.0945L89.1736 55.452L89.0608 54.8424L89.0424 54.0906L89.0644 50.3829H90.4909C90.5844 50.3829 90.6741 50.3457 90.7402 50.2796C90.8063 50.2135 90.8435 50.1238 90.8435 50.0303V45.5378C90.8441 45.4277 90.8018 45.3217 90.7258 45.242C90.6498 45.1624 90.5458 45.1154 90.4358 45.1109C90.1944 45.1017 89.9355 45.0935 89.6418 45.0889H89.6244C89.5601 45.0889 89.4857 45.0889 89.4077 45.0971C89.3297 45.1054 89.2168 45.1081 89.1195 45.1081H89.0534C89.0368 44.4545 89.0424 43.7991 89.069 43.1602C89.0639 42.483 89.2203 41.8142 89.5252 41.2095C89.8302 40.6048 90.2748 40.0815 90.8223 39.6829C91.5114 39.1772 92.3471 38.9109 93.2018 38.9246H93.2136C96.1022 38.9307 98.9914 38.9359 101.881 38.9402C102.391 38.9184 102.901 38.9653 103.399 39.0798C104.131 39.3007 104.789 39.7163 105.303 40.2822C105.818 40.8481 106.169 41.543 106.319 42.2927C106.427 43.0313 106.463 43.7788 106.424 44.5243C106.424 44.7162 106.42 44.9126 106.419 45.1063H104.981C104.89 45.1063 104.802 45.1427 104.737 45.2074C104.673 45.2721 104.636 45.3599 104.636 45.4515V50.0349C104.636 50.1282 104.673 50.2176 104.739 50.2836C104.805 50.3495 104.894 50.3865 104.988 50.3865H106.435C106.415 51.7855 106.408 53.1974 106.412 54.5863M102.158 62.6921V65.1532H100.673V62.6921H102.158ZM106.726 49.2519C106.726 49.2575 106.724 49.2629 106.72 49.2668C106.716 49.2708 106.711 49.273 106.705 49.273H105.769C105.763 49.273 105.758 49.2708 105.754 49.2668C105.75 49.2629 105.748 49.2575 105.748 49.2519V46.2226C105.748 46.217 105.75 46.2116 105.754 46.2076C105.758 46.2037 105.763 46.2015 105.769 46.2015H106.705C106.711 46.2015 106.716 46.2037 106.72 46.2076C106.724 46.2116 106.726 46.217 106.726 46.2226V49.2519Z" fill="#EF5388"/>
</g>
</svg>
