<svg width="84" height="68" viewBox="0 0 84 68" fill="none" xmlns="http://www.w3.org/2000/svg">
<mask id="mask0_663_10733" style="mask-type:luminance" maskUnits="userSpaceOnUse" x="-1" y="0" width="85" height="68">
<path d="M83.998 0.744873H-0.00195312V67.7449H83.998V0.744873Z" fill="white"/>
</mask>
<g mask="url(#mask0_663_10733)">
<path d="M66.8785 17.2061C67.0369 17.2057 67.1937 17.2368 67.34 17.2975C67.4863 17.3582 67.6191 17.4473 67.7308 17.5597L83.6442 33.4805C83.8127 33.6489 83.9274 33.8635 83.9741 34.0972C84.0207 34.3309 83.997 34.5732 83.9061 34.7934C83.8151 35.0136 83.661 35.202 83.4631 35.3346C83.2652 35.4672 83.0325 35.5382 82.7943 35.5386H76.2812L76.1891 36.7941C75.727 43.0527 73.5124 49.0546 69.7991 54.1125C66.0857 59.1704 61.0236 63.0797 55.1926 65.3929C49.3615 67.706 42.9971 68.3294 36.8283 67.1918C30.6595 66.0541 24.9356 63.2013 20.3122 58.9601C20.133 58.7962 20.0076 58.5819 19.9524 58.3454C19.8972 58.1089 19.9148 57.8612 20.0029 57.6349C20.0909 57.4086 20.2454 57.2142 20.4459 57.0773C20.6464 56.9404 20.8836 56.8673 21.1263 56.8678C21.3016 56.8676 21.4749 56.9058 21.6338 56.9798C25.2329 58.6573 29.1796 59.4527 33.1471 59.3C37.1146 59.1473 40.9886 58.0509 44.4482 56.1017C47.9077 54.1525 50.8532 51.4066 53.0406 48.0915C55.2279 44.7764 56.5942 40.9876 57.0262 37.0389L57.1851 35.5386H50.9643C50.7261 35.5383 50.4933 35.4675 50.2953 35.3349C50.0973 35.2024 49.9429 35.0142 49.8518 34.794C49.7606 34.5738 49.7367 34.3316 49.783 34.0978C49.8293 33.864 49.9438 33.6492 50.112 33.4805L66.0254 17.5597C66.1371 17.4475 66.2698 17.3586 66.4159 17.2979C66.562 17.2372 66.7187 17.206 66.8769 17.2061M66.8769 20.1169L53.8729 33.1268H58.3725C58.6928 33.1281 58.9995 33.2564 59.2254 33.4836C59.4513 33.7107 59.5779 34.0183 59.5775 34.3387C59.5788 41.1545 57.033 47.7246 52.4401 52.7586C51.6699 53.5963 50.8303 54.3672 49.9301 55.0631C48.9636 55.8145 47.9449 56.4962 46.8817 57.103C45.7746 57.737 44.6264 58.2963 43.4448 58.7773C42.2499 59.2657 41.0224 59.6701 39.7713 59.9876C38.3395 60.3481 36.8768 60.5716 35.4027 60.6551C33.9145 60.7318 32.4227 60.7012 30.9389 60.5637C29.4178 60.431 27.9039 60.2148 26.4003 59.9542C25.8364 59.8567 25.273 59.7545 24.7101 59.6474L23.8666 59.4885L23.4337 59.4051C23.2997 59.3664 23.1626 59.3398 23.0238 59.3256C23.1042 59.3482 23.1805 59.383 23.2502 59.4289C23.3296 59.4671 23.417 59.502 23.498 59.5426C23.579 59.5831 23.6569 59.6284 23.7363 59.6721C23.9222 59.777 24.1057 59.8866 24.2883 59.9971C24.7546 60.2784 25.2169 60.5669 25.6831 60.8482C26.7079 61.4767 27.7646 62.0515 28.8491 62.5702C31.0353 63.5024 33.3082 64.2166 35.6346 64.7022C38.017 65.1909 40.4475 65.4042 42.8785 65.3379C51.0947 65.3287 58.9717 62.0588 64.781 56.2458C70.5902 50.4328 73.8572 42.5516 73.865 34.3315C73.8658 34.0125 73.9932 33.7069 74.2191 33.4817C74.445 33.2566 74.751 33.1304 75.0699 33.1308H79.8833L66.8769 20.1169Z" fill="#EF5388"/>
<path d="M17.1179 51.2852C16.9595 51.2855 16.8026 51.2544 16.6564 51.1937C16.5101 51.133 16.3773 51.0439 16.2656 50.9315L0.352193 35.01C0.183722 34.8415 0.068931 34.6269 0.0223207 34.3932C-0.0242897 34.1595 -0.00062819 33.9173 0.0903162 33.697C0.181261 33.4768 0.335408 33.2884 0.533285 33.1558C0.731162 33.0232 0.963892 32.9522 1.20207 32.9518H7.71518L7.80732 31.6963C8.26903 25.4373 10.4834 19.435 14.1968 14.3767C17.9102 9.31844 22.9725 5.40878 28.8039 3.09549C34.6353 0.782199 41.0001 0.158811 47.1692 1.29672C53.3383 2.43464 59.0624 5.28784 63.6858 9.52956C63.8649 9.69345 63.9903 9.90772 64.0455 10.1442C64.1007 10.3807 64.0832 10.6284 63.9951 10.8547C63.907 11.081 63.7526 11.2754 63.5521 11.4123C63.3516 11.5492 63.1144 11.6223 62.8717 11.6219C62.6963 11.6221 62.5231 11.5838 62.3641 11.5098C58.7651 9.8323 54.8184 9.03695 50.8509 9.18966C46.8834 9.34236 43.0094 10.4387 39.5498 12.3879C36.0903 14.3371 33.1448 17.083 30.9574 20.3981C28.77 23.7132 27.4037 27.5021 26.9717 31.4507L26.8129 32.951H33.0337C33.2719 32.9513 33.5047 33.0222 33.7027 33.1547C33.9007 33.2872 34.055 33.4754 34.1462 33.6956C34.2374 33.9158 34.2613 34.1581 34.215 34.3918C34.1687 34.6256 34.0542 34.8404 33.886 35.0092L17.9694 50.9307C17.8577 51.0429 17.725 51.1319 17.5789 51.1926C17.4328 51.2532 17.2761 51.2852 17.1179 51.2852ZM17.1179 48.3736L30.1219 35.3636H25.6215C25.3012 35.3623 24.9945 35.234 24.7686 35.0069C24.5427 34.7797 24.4161 34.4722 24.4165 34.1517C24.4152 27.3359 26.961 20.7658 31.5539 15.7318C32.3241 14.8941 33.1637 14.1232 34.0639 13.4273C35.0304 12.6759 36.0491 11.9943 37.1123 11.3874C38.2194 10.7535 39.3676 10.1941 40.5492 9.71312C41.7443 9.22393 42.972 8.81873 44.2235 8.50049C45.6553 8.13992 47.118 7.91642 48.5921 7.83298C50.0803 7.75629 51.5721 7.78683 53.0559 7.92437C54.577 8.05707 56.0901 8.27322 57.5945 8.53386C58.1584 8.63134 58.7218 8.73358 59.2847 8.8406L60.1282 8.99953L60.5611 9.08296C60.6951 9.12165 60.8322 9.14825 60.9709 9.16243C60.8906 9.13988 60.8143 9.10504 60.7446 9.05912C60.6651 9.02098 60.5778 8.98602 60.4968 8.94549C60.4157 8.90496 60.3379 8.85967 60.2585 8.81596C60.0726 8.71107 59.8891 8.60141 59.7064 8.49095C59.241 8.21521 58.7748 7.92437 58.3125 7.64385C57.2877 7.0153 56.231 6.44052 55.1465 5.92185C52.9602 4.98959 50.6874 4.27545 48.3609 3.78981C45.9786 3.30116 43.5481 3.08786 41.1171 3.15409C32.9003 3.16314 25.0227 6.43326 19.2132 12.2468C13.4037 18.0603 10.1369 25.9423 10.1298 34.1629C10.129 34.4819 10.0016 34.7875 9.77566 35.0127C9.54974 35.2378 9.24374 35.364 8.92487 35.3636H4.11153L17.1179 48.3736Z" fill="#EF5388"/>
</g>
</svg>
