<svg width="122" height="122" viewBox="0 0 122 122" fill="none" xmlns="http://www.w3.org/2000/svg">
<g clip-path="url(#clip0_1896_67)">
<path d="M83.8587 53.5183H77.1916L69.1329 12.9729C69.0382 12.4853 68.7718 12.0479 68.3822 11.7399C67.9925 11.4319 67.5054 11.2738 67.0091 11.2942C66.5102 11.3143 66.0344 11.5104 65.6663 11.8479C65.2982 12.1854 65.0616 12.6424 64.9984 13.1378L53.9642 96.6958L39.7806 34.1132C39.6787 33.6554 39.4265 33.2448 39.0641 32.9471C38.7017 32.6494 38.25 32.4817 37.7811 32.4707C37.3135 32.4675 36.8578 32.6185 36.4845 32.9003C36.1113 33.1821 35.8412 33.579 35.7161 34.0296L24.8175 74.3174L16.6322 52.8066C16.4839 52.4044 16.218 52.056 15.8691 51.807C15.5201 51.558 15.1043 51.4198 14.6757 51.4104H2.09611C1.53527 51.4104 0.997394 51.6332 0.600817 52.0298C0.20424 52.4263 -0.0185547 52.9642 -0.0185547 53.5251C-0.0185547 54.0859 0.20424 54.6238 0.600817 55.0204C0.997394 55.417 1.53527 55.6398 2.09611 55.6398H13.2343L23.1999 81.816C23.356 82.2325 23.6393 82.5893 24.0095 82.8358C24.3797 83.0824 24.8181 83.2062 25.2626 83.1897C25.7043 83.168 26.1279 83.0067 26.4721 82.729C26.8164 82.4513 27.0637 82.0715 27.1784 81.6443L37.5552 43.2701L52.4663 109.059C52.5694 109.522 52.8266 109.937 53.1959 110.236C53.5651 110.535 54.0247 110.699 54.4996 110.703H54.5968C55.0895 110.679 55.5579 110.482 55.92 110.147C56.2822 109.812 56.5152 109.36 56.5781 108.871L67.4926 26.3005L73.4254 56.0962C73.5204 56.5692 73.778 56.9941 74.1536 57.297C74.5292 57.6 74.9989 57.7618 75.4814 57.7545H83.8677C84.4286 57.7545 84.9665 57.5317 85.363 57.1351C85.7596 56.7385 85.9824 56.2006 85.9824 55.6398C85.9824 55.0789 85.7596 54.5411 85.363 54.1445C84.9665 53.7479 84.4286 53.5251 83.8677 53.5251L83.8587 53.5183Z" fill="#EF5388"/>
<path d="M105.04 53.5161H94.4396C93.8773 53.5161 93.338 53.7395 92.9403 54.1371C92.5427 54.5348 92.3193 55.0741 92.3193 55.6364C92.3193 56.1988 92.5427 56.7381 92.9403 57.1358C93.338 57.5334 93.8773 57.7568 94.4396 57.7568H105.04C105.602 57.7568 106.142 57.5334 106.539 57.1358C106.937 56.7381 107.16 56.1988 107.16 55.6364C107.16 55.0741 106.937 54.5348 106.539 54.1371C106.142 53.7395 105.602 53.5161 105.04 53.5161Z" fill="#EF5388"/>
<path d="M119.879 53.5161H113.517C112.954 53.5161 112.415 53.7395 112.017 54.1371C111.62 54.5348 111.396 55.0741 111.396 55.6364C111.396 56.1988 111.62 56.7381 112.017 57.1358C112.415 57.5334 112.954 57.7568 113.517 57.7568H119.877C120.439 57.7568 120.978 57.5334 121.376 57.1358C121.774 56.7381 121.997 56.1988 121.997 55.6364C121.997 55.0741 121.774 54.5348 121.376 54.1371C120.978 53.7395 120.439 53.5161 119.877 53.5161H119.879Z" fill="#EF5388"/>
</g>
<defs>
<clipPath id="clip0_1896_67">
<rect width="122" height="122.002" fill="white"/>
</clipPath>
</defs>
</svg>
